<svg width="656" height="538" viewBox="0 0 656 538" fill="none" xmlns="http://www.w3.org/2000/svg">
<mask id="path-1-inside-1_11_1483" fill="white">
<path fill-rule="evenodd" clip-rule="evenodd" d="M30.3162 72.5391C28.3279 72.5391 26.7162 74.1508 26.7162 76.1391V76.9391H25.9162C23.9279 76.9391 22.3162 78.5508 22.3162 80.5391C22.3162 82.5273 23.9279 84.1391 25.9162 84.1391H26.7162V84.9391C26.7162 86.9273 28.3279 88.5391 30.3162 88.5391C32.3044 88.5391 33.9162 86.9273 33.9162 84.9391V84.1391H34.7162C36.7044 84.1391 38.3162 82.5273 38.3162 80.5391C38.3162 78.5508 36.7044 76.9391 34.7162 76.9391H33.9162V76.1391C33.9162 74.1508 32.3044 72.5391 30.3162 72.5391Z"/>
</mask>
<path d="M26.7162 76.9391V77.9391H27.7162V76.9391H26.7162ZM26.7162 84.1391H27.7162V83.1391H26.7162V84.1391ZM33.9162 84.1391V83.1391H32.9162V84.1391H33.9162ZM33.9162 76.9391H32.9162V77.9391H33.9162V76.9391ZM27.7162 76.1391C27.7162 74.7031 28.8802 73.5391 30.3162 73.5391V71.5391C27.7757 71.5391 25.7162 73.5986 25.7162 76.1391H27.7162ZM27.7162 76.9391V76.1391H25.7162V76.9391H27.7162ZM25.9162 77.9391H26.7162V75.9391H25.9162V77.9391ZM23.3162 80.5391C23.3162 79.1031 24.4802 77.9391 25.9162 77.9391V75.9391C23.3757 75.9391 21.3162 77.9986 21.3162 80.5391H23.3162ZM25.9162 83.1391C24.4802 83.1391 23.3162 81.975 23.3162 80.5391H21.3162C21.3162 83.0796 23.3757 85.1391 25.9162 85.1391V83.1391ZM26.7162 83.1391H25.9162V85.1391H26.7162V83.1391ZM27.7162 84.9391V84.1391H25.7162V84.9391H27.7162ZM30.3162 87.5391C28.8802 87.5391 27.7162 86.375 27.7162 84.9391H25.7162C25.7162 87.4796 27.7757 89.5391 30.3162 89.5391V87.5391ZM32.9162 84.9391C32.9162 86.375 31.7521 87.5391 30.3162 87.5391V89.5391C32.8567 89.5391 34.9162 87.4796 34.9162 84.9391H32.9162ZM32.9162 84.1391V84.9391H34.9162V84.1391H32.9162ZM34.7162 83.1391H33.9162V85.1391H34.7162V83.1391ZM37.3162 80.5391C37.3162 81.975 36.1521 83.1391 34.7162 83.1391V85.1391C37.2567 85.1391 39.3162 83.0796 39.3162 80.5391H37.3162ZM34.7162 77.9391C36.1521 77.9391 37.3162 79.1031 37.3162 80.5391H39.3162C39.3162 77.9986 37.2567 75.9391 34.7162 75.9391V77.9391ZM33.9162 77.9391H34.7162V75.9391H33.9162V77.9391ZM32.9162 76.1391V76.9391H34.9162V76.1391H32.9162ZM30.3162 73.5391C31.7521 73.5391 32.9162 74.7031 32.9162 76.1391H34.9162C34.9162 73.5986 32.8567 71.5391 30.3162 71.5391V73.5391Z" fill="#616161" mask="url(#path-1-inside-1_11_1483)"/>
<mask id="path-3-inside-2_11_1483" fill="white">
<path fill-rule="evenodd" clip-rule="evenodd" d="M17.2175 109.063C15.2657 108.684 13.3764 109.959 12.9977 111.911L12.8453 112.697L12.0599 112.544C10.1081 112.166 8.21881 113.441 7.84007 115.393C7.46133 117.344 8.73656 119.234 10.6884 119.612L11.4737 119.765L11.3213 120.55C10.9426 122.502 12.2178 124.391 14.1696 124.77C16.1215 125.149 18.0108 123.874 18.3895 121.922L18.5419 121.136L19.3272 121.289C21.2791 121.668 23.1683 120.392 23.5471 118.44C23.9258 116.489 22.6506 114.599 20.6988 114.221L19.9134 114.068L20.0658 113.283C20.4446 111.331 19.1693 109.442 17.2175 109.063Z"/>
</mask>
<path d="M12.8453 112.697L12.6548 113.678L13.6365 113.869L13.827 112.887L12.8453 112.697ZM12.0599 112.544L11.8694 113.526L12.0599 112.544ZM11.4737 119.765L12.4554 119.955L12.6459 118.974L11.6642 118.783L11.4737 119.765ZM11.3213 120.55L12.303 120.741L11.3213 120.55ZM18.5419 121.136L18.7324 120.155L17.7507 119.964L17.5602 120.946L18.5419 121.136ZM19.9134 114.068L18.9317 113.878L18.7413 114.859L19.7229 115.05L19.9134 114.068ZM20.0658 113.283L19.0841 113.092L20.0658 113.283ZM13.9794 112.102C14.2529 110.692 15.6174 109.771 17.027 110.045L17.408 108.081C14.914 107.597 12.4999 109.227 12.016 111.721L13.9794 112.102ZM13.827 112.887L13.9794 112.102L12.016 111.721L11.8636 112.506L13.827 112.887ZM11.8694 113.526L12.6548 113.678L13.0358 111.715L12.2504 111.563L11.8694 113.526ZM8.82176 115.583C9.0953 114.173 10.4598 113.252 11.8694 113.526L12.2504 111.563C9.75643 111.079 7.34233 112.708 6.85838 115.202L8.82176 115.583ZM10.8789 118.631C9.46922 118.357 8.54823 116.993 8.82176 115.583L6.85838 115.202C6.37444 117.696 8.00389 120.11 10.4979 120.594L10.8789 118.631ZM11.6642 118.783L10.8789 118.631L10.4979 120.594L11.2832 120.747L11.6642 118.783ZM12.303 120.741L12.4554 119.955L10.492 119.574L10.3396 120.36L12.303 120.741ZM14.3601 123.788C12.9505 123.515 12.0295 122.15 12.303 120.741L10.3396 120.36C9.8557 122.854 11.4852 125.268 13.9791 125.752L14.3601 123.788ZM17.4078 121.731C17.1343 123.141 15.7698 124.062 14.3601 123.788L13.9791 125.752C16.4731 126.236 18.8872 124.606 19.3712 122.112L17.4078 121.731ZM17.5602 120.946L17.4078 121.731L19.3712 122.112L19.5236 121.327L17.5602 120.946ZM19.5177 120.307L18.7324 120.155L18.3514 122.118L19.1367 122.27L19.5177 120.307ZM22.5654 118.25C22.2919 119.66 20.9274 120.581 19.5177 120.307L19.1367 122.27C21.6307 122.754 24.0448 121.125 24.5288 118.631L22.5654 118.25ZM20.5083 115.202C21.9179 115.476 22.8389 116.84 22.5654 118.25L24.5288 118.631C25.0127 116.137 23.3833 113.723 20.8893 113.239L20.5083 115.202ZM19.7229 115.05L20.5083 115.202L20.8893 113.239L20.1039 113.087L19.7229 115.05ZM19.0841 113.092L18.9317 113.878L20.8951 114.259L21.0475 113.473L19.0841 113.092ZM17.027 110.045C18.4367 110.318 19.3577 111.683 19.0841 113.092L21.0475 113.473C21.5315 110.979 19.902 108.565 17.408 108.081L17.027 110.045Z" fill="#616161" mask="url(#path-3-inside-2_11_1483)"/>
<mask id="path-5-inside-3_11_1483" fill="white">
<path fill-rule="evenodd" clip-rule="evenodd" d="M297.199 74.2534C295.003 73.8273 292.878 75.262 292.452 77.4578L292.28 78.3436L291.397 78.1722C289.201 77.7461 287.076 79.1807 286.65 81.3765C286.224 83.5723 287.658 85.6978 289.854 86.1239L290.737 86.2952L290.566 87.1765C290.14 89.3723 291.575 91.4977 293.77 91.9238C295.966 92.3499 298.092 90.9153 298.518 88.7195L298.689 87.8382L299.573 88.0098C301.768 88.4358 303.894 87.0012 304.32 84.8054C304.746 82.6096 303.311 80.4842 301.116 80.0581L300.232 79.8866L300.404 79.0007C300.83 76.805 299.395 74.6795 297.199 74.2534Z"/>
</mask>
<path d="M292.452 77.4578L293.434 77.6483L292.452 77.4578ZM292.28 78.3436L292.09 79.3252L293.071 79.5157L293.262 78.5341L292.28 78.3436ZM291.397 78.1722L291.587 77.1905L291.397 78.1722ZM290.737 86.2952L291.719 86.4857L291.909 85.504L290.928 85.3135L290.737 86.2952ZM298.518 88.7195L297.536 88.529L298.518 88.7195ZM298.689 87.8382L298.879 86.8565L297.898 86.666L297.707 87.6477L298.689 87.8382ZM299.573 88.0098L299.382 88.9914L299.573 88.0098ZM300.232 79.8866L299.25 79.6961L299.06 80.6777L300.041 80.8682L300.232 79.8866ZM293.434 77.6483C293.755 75.9946 295.355 74.9142 297.009 75.2351L297.39 73.2717C294.652 72.7404 292.002 74.5293 291.47 77.2673L293.434 77.6483ZM293.262 78.5341L293.434 77.6483L291.47 77.2673L291.298 78.1531L293.262 78.5341ZM291.206 79.1539L292.09 79.3252L292.471 77.3619L291.587 77.1905L291.206 79.1539ZM287.631 81.567C287.952 79.9134 289.553 78.833 291.206 79.1539L291.587 77.1905C288.849 76.6592 286.199 78.4481 285.668 81.1861L287.631 81.567ZM290.044 85.1422C288.391 84.8213 287.31 83.2207 287.631 81.567L285.668 81.1861C285.137 83.924 286.926 86.5743 289.663 87.1056L290.044 85.1422ZM290.928 85.3135L290.044 85.1422L289.663 87.1056L290.547 87.2769L290.928 85.3135ZM291.548 87.367L291.719 86.4857L289.755 86.1047L289.584 86.986L291.548 87.367ZM293.961 90.9421C292.307 90.6212 291.227 89.0206 291.548 87.367L289.584 86.986C289.053 89.7239 290.842 92.3742 293.58 92.9055L293.961 90.9421ZM297.536 88.529C297.215 90.1826 295.615 91.263 293.961 90.9421L293.58 92.9055C296.318 93.4368 298.968 91.6479 299.499 88.91L297.536 88.529ZM297.707 87.6477L297.536 88.529L299.499 88.91L299.67 88.0287L297.707 87.6477ZM299.763 87.0281L298.879 86.8565L298.498 88.8199L299.382 88.9914L299.763 87.0281ZM303.338 84.6149C303.017 86.2685 301.417 87.3489 299.763 87.0281L299.382 88.9914C302.12 89.5227 304.77 87.7339 305.302 84.9959L303.338 84.6149ZM300.925 81.0398C302.579 81.3606 303.659 82.9613 303.338 84.6149L305.302 84.9959C305.833 82.2579 304.044 79.6077 301.306 79.0764L300.925 81.0398ZM300.041 80.8682L300.925 81.0398L301.306 79.0764L300.422 78.9049L300.041 80.8682ZM299.422 78.8103L299.25 79.6961L301.213 80.077L301.385 79.1912L299.422 78.8103ZM297.009 75.2351C298.662 75.556 299.743 77.1566 299.422 78.8103L301.385 79.1912C301.917 76.4533 300.128 73.803 297.39 73.2717L297.009 75.2351Z" fill="#616161" mask="url(#path-5-inside-3_11_1483)"/>
<mask id="path-7-inside-4_11_1483" fill="white">
<path fill-rule="evenodd" clip-rule="evenodd" d="M148.639 136.396C147.541 136.183 146.478 136.9 146.265 137.998L146.178 138.445L145.737 138.359C144.639 138.146 143.577 138.863 143.364 139.961C143.151 141.059 143.868 142.122 144.966 142.335L145.407 142.42L145.322 142.858C145.109 143.956 145.826 145.018 146.924 145.231C148.022 145.444 149.085 144.727 149.298 143.629L149.383 143.192L149.825 143.278C150.923 143.491 151.986 142.774 152.199 141.676C152.412 140.578 151.695 139.515 150.597 139.302L150.154 139.216L150.241 138.77C150.454 137.672 149.736 136.609 148.639 136.396Z"/>
</mask>
<path d="M146.265 137.998L145.283 137.808L146.265 137.998ZM146.178 138.445L145.988 139.426L146.969 139.617L147.16 138.635L146.178 138.445ZM144.966 142.335L144.775 143.317L144.966 142.335ZM145.407 142.42L146.388 142.611L146.579 141.629L145.597 141.439L145.407 142.42ZM145.322 142.858L146.304 143.048L145.322 142.858ZM149.298 143.629L148.316 143.439L149.298 143.629ZM149.383 143.192L149.573 142.21L148.591 142.02L148.401 143.001L149.383 143.192ZM150.154 139.216L149.172 139.026L148.982 140.007L149.964 140.198L150.154 139.216ZM150.241 138.77L149.259 138.579L150.241 138.77ZM147.247 138.189C147.354 137.633 147.892 137.27 148.448 137.378L148.829 135.414C147.189 135.096 145.601 136.168 145.283 137.808L147.247 138.189ZM147.16 138.635L147.247 138.189L145.283 137.808L145.197 138.254L147.16 138.635ZM145.547 139.341L145.988 139.426L146.369 137.463L145.928 137.377L145.547 139.341ZM144.345 140.152C144.453 139.596 144.991 139.233 145.547 139.341L145.928 137.377C144.288 137.059 142.7 138.131 142.382 139.771L144.345 140.152ZM145.156 141.353C144.601 141.245 144.238 140.707 144.345 140.152L142.382 139.771C142.064 141.411 143.135 142.998 144.775 143.317L145.156 141.353ZM145.597 141.439L145.156 141.353L144.775 143.317L145.216 143.402L145.597 141.439ZM146.304 143.048L146.388 142.611L144.425 142.23L144.34 142.667L146.304 143.048ZM147.115 144.25C146.559 144.142 146.196 143.604 146.304 143.048L144.34 142.667C144.022 144.307 145.094 145.895 146.734 146.213L147.115 144.25ZM148.316 143.439C148.208 143.994 147.67 144.357 147.115 144.25L146.734 146.213C148.374 146.531 149.961 145.46 150.279 143.82L148.316 143.439ZM148.401 143.001L148.316 143.439L150.279 143.82L150.364 143.382L148.401 143.001ZM150.016 142.296L149.573 142.21L149.192 144.174L149.635 144.259L150.016 142.296ZM151.217 141.485C151.109 142.041 150.571 142.404 150.016 142.296L149.635 144.259C151.275 144.578 152.862 143.506 153.181 141.866L151.217 141.485ZM150.406 140.284C150.962 140.391 151.325 140.929 151.217 141.485L153.181 141.866C153.499 140.226 152.427 138.639 150.787 138.32L150.406 140.284ZM149.964 140.198L150.406 140.284L150.787 138.32L150.345 138.234L149.964 140.198ZM149.259 138.579L149.172 139.026L151.136 139.407L151.222 138.96L149.259 138.579ZM148.448 137.378C149.004 137.486 149.367 138.024 149.259 138.579L151.222 138.96C151.541 137.32 150.469 135.733 148.829 135.414L148.448 137.378Z" fill="#616161" mask="url(#path-7-inside-4_11_1483)"/>
<mask id="path-9-inside-5_11_1483" fill="white">
<path fill-rule="evenodd" clip-rule="evenodd" d="M281.938 55.4912C280.718 55.2545 279.537 56.0515 279.301 57.2714L279.204 57.7698L278.715 57.6749C277.495 57.4381 276.314 58.2352 276.077 59.455C275.84 60.6749 276.638 61.8557 277.857 62.0925L278.347 62.1874L278.253 62.6707C278.016 63.8906 278.813 65.0714 280.033 65.3081C281.253 65.5448 282.434 64.7478 282.671 63.5279L282.764 63.0446L283.257 63.1402C284.477 63.3769 285.657 62.5799 285.894 61.36C286.131 60.1401 285.334 58.9593 284.114 58.7226L283.622 58.627L283.718 58.1286C283.955 56.9088 283.158 55.728 281.938 55.4912Z"/>
</mask>
<path d="M279.204 57.7698L279.013 58.7515L279.995 58.942L280.186 57.9603L279.204 57.7698ZM278.715 57.6749L278.524 58.6565L278.524 58.6565L278.715 57.6749ZM278.347 62.1874L279.328 62.3779L279.519 61.3962L278.537 61.2057L278.347 62.1874ZM278.253 62.6707L279.235 62.8612L278.253 62.6707ZM282.764 63.0446L282.955 62.0629L281.973 61.8725L281.783 62.8541L282.764 63.0446ZM283.622 58.627L282.64 58.4365L282.449 59.4182L283.431 59.6087L283.622 58.627ZM280.282 57.4619C280.414 56.7842 281.07 56.3414 281.748 56.4729L282.129 54.5096C280.367 54.1676 278.661 55.3189 278.319 57.0809L280.282 57.4619ZM280.186 57.9603L280.282 57.4619L278.319 57.0809L278.222 57.5793L280.186 57.9603ZM278.524 58.6565L279.013 58.7515L279.394 56.7881L278.905 56.6932L278.524 58.6565ZM277.059 59.6455C277.19 58.9678 277.846 58.525 278.524 58.6565L278.905 56.6932C277.143 56.3512 275.437 57.5025 275.096 59.2646L277.059 59.6455ZM278.048 61.1108C277.37 60.9793 276.927 60.3233 277.059 59.6455L275.096 59.2646C274.754 61.0266 275.905 62.7322 277.667 63.0741L278.048 61.1108ZM278.537 61.2057L278.048 61.1108L277.667 63.0741L278.156 63.1691L278.537 61.2057ZM279.235 62.8612L279.328 62.3779L277.365 61.9969L277.271 62.4802L279.235 62.8612ZM280.224 64.3264C279.546 64.1949 279.103 63.5389 279.235 62.8612L277.271 62.4802C276.929 64.2423 278.081 65.9479 279.843 66.2898L280.224 64.3264ZM281.689 63.3374C281.557 64.0152 280.901 64.4579 280.224 64.3264L279.843 66.2898C281.605 66.6317 283.31 65.4805 283.652 63.7184L281.689 63.3374ZM281.783 62.8541L281.689 63.3374L283.652 63.7184L283.746 63.2351L281.783 62.8541ZM283.447 62.1585L282.955 62.0629L282.574 64.0263L283.066 64.1219L283.447 62.1585ZM284.912 61.1695C284.781 61.8472 284.125 62.29 283.447 62.1585L283.066 64.1219C284.828 64.4638 286.534 63.3125 286.876 61.5505L284.912 61.1695ZM283.923 59.7043C284.601 59.8358 285.044 60.4918 284.912 61.1695L286.876 61.5505C287.218 59.7884 286.066 58.0828 284.304 57.7409L283.923 59.7043ZM283.431 59.6087L283.923 59.7043L284.304 57.7409L283.812 57.6453L283.431 59.6087ZM282.737 57.9382L282.64 58.4365L284.603 58.8175L284.7 58.3191L282.737 57.9382ZM281.748 56.4729C282.425 56.6044 282.868 57.2604 282.737 57.9382L284.7 58.3191C285.042 56.5571 283.891 54.8515 282.129 54.5096L281.748 56.4729Z" fill="#616161" mask="url(#path-9-inside-5_11_1483)"/>
<mask id="path-11-inside-6_11_1483" fill="white">
<path fill-rule="evenodd" clip-rule="evenodd" d="M515.128 162.491C513.908 162.255 512.727 163.052 512.491 164.271L512.394 164.77L511.905 164.675C510.685 164.438 509.504 165.235 509.267 166.455C509.03 167.675 509.827 168.856 511.047 169.092L511.537 169.187L511.443 169.671C511.206 170.891 512.003 172.071 513.223 172.308C514.443 172.545 515.624 171.748 515.861 170.528L515.954 170.045L516.447 170.14C517.667 170.377 518.847 169.58 519.084 168.36C519.321 167.14 518.524 165.959 517.304 165.723L516.812 165.627L516.908 165.129C517.145 163.909 516.348 162.728 515.128 162.491Z"/>
</mask>
<path d="M512.394 164.77L512.203 165.752L513.185 165.942L513.376 164.96L512.394 164.77ZM511.905 164.675L511.714 165.657L511.714 165.657L511.905 164.675ZM511.537 169.187L512.518 169.378L512.709 168.396L511.727 168.206L511.537 169.187ZM515.954 170.045L516.145 169.063L515.163 168.872L514.973 169.854L515.954 170.045ZM516.812 165.627L515.83 165.437L515.639 166.418L516.621 166.609L516.812 165.627ZM513.472 164.462C513.604 163.784 514.26 163.341 514.938 163.473L515.319 161.51C513.556 161.168 511.851 162.319 511.509 164.081L513.472 164.462ZM513.376 164.96L513.472 164.462L511.509 164.081L511.412 164.579L513.376 164.96ZM511.714 165.657L512.203 165.752L512.584 163.788L512.095 163.693L511.714 165.657ZM510.249 166.646C510.38 165.968 511.036 165.525 511.714 165.657L512.095 163.693C510.333 163.351 508.627 164.502 508.285 166.265L510.249 166.646ZM511.238 168.111C510.56 167.979 510.117 167.323 510.249 166.646L508.285 166.265C507.944 168.027 509.095 169.732 510.857 170.074L511.238 168.111ZM511.727 168.206L511.238 168.111L510.857 170.074L511.346 170.169L511.727 168.206ZM512.425 169.861L512.518 169.378L510.555 168.997L510.461 169.48L512.425 169.861ZM513.414 171.326C512.736 171.195 512.293 170.539 512.425 169.861L510.461 169.48C510.119 171.242 511.271 172.948 513.033 173.29L513.414 171.326ZM514.879 170.337C514.747 171.015 514.091 171.458 513.414 171.326L513.033 173.29C514.795 173.632 516.5 172.48 516.842 170.718L514.879 170.337ZM514.973 169.854L514.879 170.337L516.842 170.718L516.936 170.235L514.973 169.854ZM516.637 169.158L516.145 169.063L515.764 171.026L516.256 171.122L516.637 169.158ZM518.102 168.169C517.971 168.847 517.315 169.29 516.637 169.158L516.256 171.122C518.018 171.464 519.724 170.313 520.066 168.55L518.102 168.169ZM517.113 166.704C517.791 166.836 518.234 167.492 518.102 168.169L520.066 168.55C520.408 166.788 519.256 165.083 517.494 164.741L517.113 166.704ZM516.621 166.609L517.113 166.704L517.494 164.741L517.002 164.645L516.621 166.609ZM515.927 164.938L515.83 165.437L517.793 165.818L517.89 165.319L515.927 164.938ZM514.938 163.473C515.615 163.604 516.058 164.26 515.927 164.938L517.89 165.319C518.232 163.557 517.081 161.851 515.319 161.51L514.938 163.473Z" fill="#616161" mask="url(#path-11-inside-6_11_1483)"/>
<mask id="path-13-inside-7_11_1483" fill="white">
<path fill-rule="evenodd" clip-rule="evenodd" d="M626.128 344.491C624.908 344.255 623.727 345.052 623.491 346.271L623.394 346.77L622.905 346.675C621.685 346.438 620.504 347.235 620.267 348.455C620.03 349.675 620.827 350.856 622.047 351.092L622.537 351.187L622.443 351.671C622.206 352.891 623.003 354.071 624.223 354.308C625.443 354.545 626.624 353.748 626.861 352.528L626.954 352.045L627.447 352.14C628.667 352.377 629.847 351.58 630.084 350.36C630.321 349.14 629.524 347.959 628.304 347.723L627.812 347.627L627.908 347.129C628.145 345.909 627.348 344.728 626.128 344.491Z"/>
</mask>
<path d="M623.394 346.77L623.203 347.752L624.185 347.942L624.376 346.96L623.394 346.77ZM622.905 346.675L622.714 347.657L622.714 347.657L622.905 346.675ZM622.537 351.187L623.518 351.378L623.709 350.396L622.727 350.206L622.537 351.187ZM622.443 351.671L623.425 351.861L622.443 351.671ZM626.954 352.045L627.145 351.063L626.163 350.872L625.973 351.854L626.954 352.045ZM627.447 352.14L627.256 353.122L627.447 352.14ZM627.812 347.627L626.83 347.437L626.639 348.418L627.621 348.609L627.812 347.627ZM624.472 346.462C624.604 345.784 625.26 345.341 625.938 345.473L626.319 343.51C624.556 343.168 622.851 344.319 622.509 346.081L624.472 346.462ZM624.376 346.96L624.472 346.462L622.509 346.081L622.412 346.579L624.376 346.96ZM622.714 347.657L623.203 347.752L623.584 345.788L623.095 345.693L622.714 347.657ZM621.249 348.646C621.38 347.968 622.036 347.525 622.714 347.657L623.095 345.693C621.333 345.351 619.627 346.502 619.285 348.265L621.249 348.646ZM622.238 350.111C621.56 349.979 621.117 349.323 621.249 348.646L619.285 348.265C618.944 350.027 620.095 351.732 621.857 352.074L622.238 350.111ZM622.727 350.206L622.238 350.111L621.857 352.074L622.346 352.169L622.727 350.206ZM623.425 351.861L623.518 351.378L621.555 350.997L621.461 351.48L623.425 351.861ZM624.414 353.326C623.736 353.195 623.293 352.539 623.425 351.861L621.461 351.48C621.119 353.242 622.271 354.948 624.033 355.29L624.414 353.326ZM625.879 352.337C625.747 353.015 625.091 353.458 624.414 353.326L624.033 355.29C625.795 355.632 627.5 354.48 627.842 352.718L625.879 352.337ZM625.973 351.854L625.879 352.337L627.842 352.718L627.936 352.235L625.973 351.854ZM627.637 351.158L627.145 351.063L626.764 353.026L627.256 353.122L627.637 351.158ZM629.102 350.169C628.971 350.847 628.315 351.29 627.637 351.158L627.256 353.122C629.018 353.464 630.724 352.313 631.066 350.55L629.102 350.169ZM628.113 348.704C628.791 348.836 629.234 349.492 629.102 350.169L631.066 350.55C631.408 348.788 630.256 347.083 628.494 346.741L628.113 348.704ZM627.621 348.609L628.113 348.704L628.494 346.741L628.002 346.645L627.621 348.609ZM626.927 346.938L626.83 347.437L628.793 347.818L628.89 347.319L626.927 346.938ZM625.938 345.473C626.615 345.604 627.058 346.26 626.927 346.938L628.89 347.319C629.232 345.557 628.081 343.851 626.319 343.51L625.938 345.473Z" fill="#616161" mask="url(#path-13-inside-7_11_1483)"/>
<mask id="path-15-inside-8_11_1483" fill="white">
<path fill-rule="evenodd" clip-rule="evenodd" d="M651.147 158.301C650.171 158.112 649.226 158.749 649.037 159.725L648.96 160.122L648.568 160.046C647.592 159.856 646.647 160.494 646.458 161.47C646.269 162.446 646.906 163.39 647.882 163.58L648.274 163.656L648.199 164.044C648.009 165.02 648.647 165.965 649.623 166.154C650.599 166.344 651.543 165.706 651.733 164.73L651.808 164.342L652.202 164.418C653.177 164.607 654.122 163.97 654.311 162.994C654.501 162.018 653.863 161.073 652.887 160.884L652.494 160.808L652.571 160.411C652.76 159.435 652.123 158.49 651.147 158.301Z"/>
</mask>
<path d="M648.96 160.122L648.769 161.103L649.751 161.294L649.941 160.312L648.96 160.122ZM647.882 163.58L648.073 162.598L647.882 163.58ZM648.274 163.656L649.256 163.846L649.446 162.865L648.464 162.674L648.274 163.656ZM648.199 164.044L647.217 163.854L648.199 164.044ZM651.733 164.73L650.751 164.54L651.733 164.73ZM651.808 164.342L651.999 163.36L651.017 163.169L650.826 164.151L651.808 164.342ZM652.494 160.808L651.512 160.617L651.322 161.599L652.303 161.789L652.494 160.808ZM652.571 160.411L653.553 160.601L652.571 160.411ZM650.018 159.916C650.103 159.482 650.522 159.198 650.956 159.283L651.337 157.319C649.819 157.025 648.35 158.016 648.055 159.535L650.018 159.916ZM649.941 160.312L650.018 159.916L648.055 159.535L647.978 159.931L649.941 160.312ZM648.377 161.027L648.769 161.103L649.15 159.14L648.758 159.064L648.377 161.027ZM647.44 161.66C647.524 161.227 647.944 160.943 648.377 161.027L648.758 159.064C647.24 158.769 645.771 159.761 645.476 161.279L647.44 161.66ZM648.073 162.598C647.639 162.514 647.355 162.094 647.44 161.66L645.476 161.279C645.182 162.797 646.174 164.267 647.692 164.561L648.073 162.598ZM648.464 162.674L648.073 162.598L647.692 164.561L648.084 164.638L648.464 162.674ZM649.18 164.235L649.256 163.846L647.292 163.465L647.217 163.854L649.18 164.235ZM649.813 165.173C649.379 165.089 649.096 164.669 649.18 164.235L647.217 163.854C646.922 165.372 647.914 166.842 649.432 167.136L649.813 165.173ZM650.751 164.54C650.667 164.973 650.247 165.257 649.813 165.173L649.432 167.136C650.95 167.431 652.42 166.439 652.714 164.921L650.751 164.54ZM650.826 164.151L650.751 164.54L652.714 164.921L652.79 164.532L650.826 164.151ZM652.392 163.436L651.999 163.36L651.618 165.323L652.011 165.4L652.392 163.436ZM653.33 162.803C653.246 163.237 652.826 163.52 652.392 163.436L652.011 165.4C653.529 165.694 654.999 164.702 655.293 163.184L653.33 162.803ZM652.697 161.866C653.131 161.95 653.414 162.37 653.33 162.803L655.293 163.184C655.588 161.666 654.596 160.197 653.078 159.902L652.697 161.866ZM652.303 161.789L652.697 161.866L653.078 159.902L652.684 159.826L652.303 161.789ZM651.589 160.22L651.512 160.617L653.476 160.998L653.553 160.601L651.589 160.22ZM650.956 159.283C651.39 159.367 651.673 159.787 651.589 160.22L653.553 160.601C653.847 159.083 652.855 157.614 651.337 157.319L650.956 159.283Z" fill="#616161" mask="url(#path-15-inside-8_11_1483)"/>
<mask id="path-17-inside-9_11_1483" fill="white">
<path fill-rule="evenodd" clip-rule="evenodd" d="M91.7661 12.3009C90.7902 12.1115 89.8455 12.7491 89.6561 13.725L89.5792 14.1217L89.1873 14.0457C88.2114 13.8563 87.2667 14.4939 87.0773 15.4698C86.888 16.4458 87.5256 17.3904 88.5015 17.5798L88.8934 17.6558L88.818 18.0445C88.6286 19.0204 89.2662 19.965 90.2421 20.1544C91.218 20.3438 92.1627 19.7061 92.352 18.7302L92.4275 18.3416L92.8209 18.4179C93.7968 18.6073 94.7415 17.9697 94.9308 16.9938C95.1202 16.0179 94.4826 15.0732 93.5067 14.8839L93.1132 14.8075L93.1902 14.4108C93.3796 13.4349 92.742 12.4903 91.7661 12.3009Z"/>
</mask>
<path d="M89.6561 13.725L90.6378 13.9155L89.6561 13.725ZM89.5792 14.1217L89.3887 15.1034L90.3704 15.2939L90.5608 14.3122L89.5792 14.1217ZM88.8934 17.6558L89.8751 17.8463L90.0656 16.8646L89.0839 16.6741L88.8934 17.6558ZM92.4275 18.3416L92.618 17.3599L91.6363 17.1694L91.4458 18.1511L92.4275 18.3416ZM93.1132 14.8075L92.1316 14.617L91.9411 15.5987L92.9227 15.7892L93.1132 14.8075ZM90.6378 13.9155C90.722 13.4818 91.1418 13.1984 91.5756 13.2826L91.9566 11.3192C90.4385 11.0246 88.969 12.0165 88.6744 13.5345L90.6378 13.9155ZM90.5608 14.3122L90.6378 13.9155L88.6744 13.5345L88.5975 13.9312L90.5608 14.3122ZM88.9968 15.0274L89.3887 15.1034L89.7697 13.14L89.3778 13.064L88.9968 15.0274ZM88.059 15.6603C88.1432 15.2266 88.563 14.9432 88.9968 15.0274L89.3778 13.064C87.8597 12.7694 86.3902 13.7613 86.0956 15.2794L88.059 15.6603ZM88.692 16.5981C88.2582 16.5139 87.9749 16.0941 88.059 15.6603L86.0956 15.2794C85.8011 16.7974 86.7929 18.2669 88.311 18.5615L88.692 16.5981ZM89.0839 16.6741L88.692 16.5981L88.311 18.5615L88.7029 18.6375L89.0839 16.6741ZM89.7997 18.235L89.8751 17.8463L87.9117 17.4653L87.8363 17.854L89.7997 18.235ZM90.4326 19.1727C89.9989 19.0885 89.7155 18.6687 89.7997 18.235L87.8363 17.854C87.5417 19.3721 88.5336 20.8415 90.0516 21.1361L90.4326 19.1727ZM91.3704 18.5397C91.2862 18.9735 90.8664 19.2569 90.4326 19.1727L90.0516 21.1361C91.5697 21.4307 93.0392 20.4388 93.3337 18.9207L91.3704 18.5397ZM91.4458 18.1511L91.3704 18.5397L93.3337 18.9207L93.4092 18.5321L91.4458 18.1511ZM93.0114 17.4362L92.618 17.3599L92.237 19.3233L92.6304 19.3996L93.0114 17.4362ZM93.9492 16.8033C93.865 17.237 93.4451 17.5204 93.0114 17.4362L92.6304 19.3996C94.1485 19.6942 95.618 18.7024 95.9125 17.1843L93.9492 16.8033ZM93.3162 15.8655C93.7499 15.9497 94.0333 16.3696 93.9492 16.8033L95.9125 17.1843C96.2071 15.6662 95.2153 14.1967 93.6972 13.9022L93.3162 15.8655ZM92.9227 15.7892L93.3162 15.8655L93.6972 13.9022L93.3037 13.8258L92.9227 15.7892ZM92.2085 14.2203L92.1316 14.617L94.0949 14.998L94.1719 14.6013L92.2085 14.2203ZM91.5756 13.2826C92.0093 13.3667 92.2927 13.7866 92.2085 14.2203L94.1719 14.6013C94.4665 13.0832 93.4746 11.6138 91.9566 11.3192L91.5756 13.2826Z" fill="#616161" mask="url(#path-17-inside-9_11_1483)"/>
<path d="M30.8162 162.538L30.164 161.78L30.1581 161.785L30.8162 162.538ZM121.316 74.5382L122.302 74.707L121.316 74.5382ZM189.316 21.0382L189.657 20.0981L189.648 20.0947L189.316 21.0382ZM28.7785 282.585C28.3967 282.186 27.7637 282.172 27.3646 282.554C26.9655 282.936 26.9514 283.569 27.3332 283.968L28.7785 282.585ZM22.0937 278.029C22.4428 278.457 23.0727 278.52 23.5007 278.171C23.9287 277.822 23.9927 277.192 23.6436 276.764L22.0937 278.029ZM18.9556 270.563C18.6388 270.111 18.0153 270.001 17.5629 270.317C17.1105 270.634 17.0005 271.258 17.3173 271.71L18.9556 270.563ZM13.0162 265.064C13.2991 265.539 13.9129 265.694 14.3873 265.411C14.8616 265.128 15.0169 264.514 14.7341 264.04L13.0162 265.064ZM11.0124 257.227C10.7665 256.732 10.1663 256.531 9.67174 256.776C9.17723 257.022 8.9757 257.623 9.22162 258.117L11.0124 257.227ZM5.98291 250.889C6.18779 251.402 6.76964 251.652 7.28252 251.447C7.7954 251.242 8.04508 250.66 7.8402 250.147L5.98291 250.889ZM5.28089 242.832C5.12203 242.303 4.56445 242.003 4.0355 242.162C3.50656 242.321 3.20656 242.878 3.36542 243.407L5.28089 242.832ZM1.44563 235.709C1.55301 236.251 2.07923 236.603 2.62098 236.496C3.16272 236.388 3.51484 235.862 3.40746 235.32L1.44563 235.709ZM2.29543 227.667C2.24491 227.117 1.75811 226.712 1.20814 226.763C0.658176 226.814 0.253294 227.3 0.303817 227.85L2.29543 227.667ZM0.0133077 219.907C0.00253723 220.459 0.441436 220.915 0.993616 220.926C1.5458 220.937 2.00216 220.498 2.01293 219.946L0.0133077 219.907ZM2.60886 212.243C2.68344 211.695 2.30029 211.191 1.75306 211.117C1.20584 211.042 0.70176 211.425 0.627177 211.972L2.60886 212.243ZM2.1597 204.176C2.02166 204.71 2.34326 205.256 2.87802 205.394C3.41278 205.532 3.95818 205.21 4.09622 204.675L2.1597 204.176ZM6.45273 197.328C6.65108 196.812 6.39403 196.234 5.87859 196.035C5.36315 195.837 4.78451 196.094 4.58616 196.609L6.45273 197.328ZM7.85063 189.348C7.59736 189.839 7.7899 190.442 8.28069 190.695C8.77147 190.949 9.37465 190.756 9.62793 190.265L7.85063 189.348ZM13.5098 183.598C13.8109 183.135 13.6796 182.516 13.2166 182.215C12.7536 181.913 12.1342 182.045 11.8331 182.508L13.5098 183.598ZM16.4654 176.057C16.1236 176.491 16.1981 177.12 16.6319 177.462C17.0657 177.804 17.6944 177.729 18.0363 177.295L16.4654 176.057ZM23.0832 171.408C23.459 171.003 23.4355 170.37 23.0307 169.994C22.626 169.619 21.9932 169.642 21.6175 170.047L23.0832 171.408ZM27.1943 164.462C26.7906 164.839 26.769 165.472 27.1459 165.875C27.5228 166.279 28.1556 166.301 28.5593 165.924L27.1943 164.462ZM34.6878 160.61C35.1172 160.262 35.1837 159.633 34.8364 159.203C34.4891 158.774 33.8594 158.708 33.43 159.055L34.6878 160.61ZM40.1659 153.948C39.7153 154.267 39.6089 154.892 39.9283 155.342C40.2476 155.793 40.8718 155.899 41.3224 155.58L40.1659 153.948ZM48.2488 151.006C48.7195 150.718 48.8669 150.102 48.578 149.631C48.2892 149.16 47.6734 149.013 47.2027 149.302L48.2488 151.006ZM54.5515 145.117C54.0631 145.375 53.8762 145.979 54.1341 146.468C54.3919 146.956 54.9968 147.143 55.4852 146.885L54.5515 145.117ZM62.9629 143.211C63.4649 142.981 63.6853 142.388 63.4551 141.886C63.2249 141.384 62.6313 141.163 62.1293 141.393L62.9629 143.211ZM69.8591 138.038C69.349 138.25 69.1072 138.835 69.3189 139.345C69.5306 139.855 70.1158 140.097 70.6259 139.885L69.8591 138.038ZM78.394 136.705C78.9047 136.495 79.1482 135.911 78.9379 135.4C78.7276 134.889 78.1432 134.646 77.6325 134.856L78.394 136.705ZM85.2761 131.538C84.776 131.772 84.5607 132.368 84.7951 132.868C85.0296 133.368 85.625 133.583 86.125 133.349L85.2761 131.538ZM93.6272 129.357C94.0979 129.068 94.2451 128.452 93.9561 127.981C93.6671 127.511 93.0513 127.364 92.5807 127.653L93.6272 129.357ZM99.202 122.806C98.7869 123.17 98.7456 123.802 99.1099 124.217C99.4741 124.632 100.106 124.673 100.521 124.309L99.202 122.806ZM106.394 118.092C106.735 117.657 106.659 117.029 106.224 116.688C105.789 116.347 105.161 116.423 104.82 116.858L106.394 118.092ZM109.342 109.982C109.075 110.465 109.25 111.073 109.733 111.341C110.216 111.608 110.825 111.433 111.092 110.95L109.342 109.982ZM114.729 103.272C114.936 102.76 114.69 102.177 114.178 101.969C113.667 101.761 113.083 102.008 112.876 102.519L114.729 103.272ZM115.636 94.7199C115.473 95.2476 115.769 95.8075 116.297 95.9703C116.824 96.1332 117.384 95.8374 117.547 95.3097L115.636 94.7199ZM119.78 87.1132C119.909 86.5762 119.579 86.0363 119.042 85.9072C118.505 85.7781 117.965 86.1088 117.836 86.6458L119.78 87.1132ZM119.576 78.5391C119.472 79.0815 119.827 79.6054 120.37 79.7092C120.912 79.813 121.436 79.4574 121.54 78.915L119.576 78.5391ZM123.07 70.6125C123.181 70.0714 122.832 69.543 122.291 69.4323C121.75 69.3216 121.221 69.6705 121.111 70.2116L123.07 70.6125ZM123.092 62.0248C122.941 62.5563 123.251 63.1088 123.782 63.2589C124.314 63.409 124.866 63.0998 125.016 62.5683L123.092 62.0248ZM127.593 54.7398C127.789 54.2236 127.53 53.6459 127.014 53.4496C126.497 53.2532 125.92 53.5125 125.723 54.0287L127.593 54.7398ZM129.131 46.302C128.881 46.7942 129.077 47.3963 129.569 47.6467C130.061 47.8972 130.663 47.7011 130.914 47.2089L129.131 46.302ZM135.091 40.1343C135.403 39.6785 135.286 39.0562 134.83 38.7443C134.375 38.4324 133.752 38.5491 133.44 39.0049L135.091 40.1343ZM138.741 32.3789C138.363 32.7818 138.383 33.4146 138.786 33.7924C139.189 34.1701 139.822 34.1497 140.2 33.7468L138.741 32.3789ZM146.27 28.2917C146.712 27.9603 146.801 27.3335 146.47 26.8917C146.138 26.4499 145.511 26.3604 145.07 26.6918L146.27 28.2917ZM152.325 22.2331C151.829 22.4771 151.625 23.0765 151.869 23.572C152.113 24.0675 152.713 24.2713 153.208 24.0274L152.325 22.2331ZM160.822 21.1258C161.354 20.9776 161.665 20.4261 161.517 19.8941C161.369 19.3621 160.818 19.0509 160.286 19.1991L160.822 21.1258ZM168.657 17.6557C168.107 17.708 167.704 18.1961 167.756 18.7459C167.809 19.2957 168.297 19.699 168.847 19.6467L168.657 17.6557ZM177.01 19.5586C177.561 19.5984 178.04 19.1841 178.08 18.6332C178.12 18.0824 177.705 17.6036 177.154 17.5638L177.01 19.5586ZM185.561 18.8825C185.025 18.7504 184.483 19.0781 184.351 19.6144C184.219 20.1507 184.547 20.6924 185.083 20.8245L185.561 18.8825ZM192.813 23.5501C193.316 23.7785 193.909 23.5561 194.137 23.0533C194.366 22.5504 194.143 21.9576 193.641 21.7292L192.813 23.5501ZM201.217 25.7991C200.748 25.5073 200.132 25.6508 199.84 26.1197C199.548 26.5886 199.691 27.2053 200.16 27.4971L201.217 25.7991ZM206.959 32.3433C207.387 32.6918 208.017 32.6269 208.366 32.1985C208.714 31.77 208.649 31.1402 208.221 30.7917L206.959 32.3433ZM214.514 36.6538C214.137 36.2502 213.504 36.2286 213.101 36.6056C212.697 36.9826 212.676 37.6154 213.053 38.019L214.514 36.6538ZM218.253 44.504C218.564 44.9607 219.186 45.0791 219.643 44.7685C220.099 44.4578 220.218 43.8358 219.907 43.3792L218.253 44.504ZM224.143 50.9061C223.915 50.403 223.322 50.1798 222.819 50.4076C222.316 50.6354 222.093 51.2279 222.321 51.731L224.143 50.9061ZM225.033 59.5533C225.165 60.0896 225.707 60.4173 226.243 60.2853C226.779 60.1532 227.107 59.6115 226.975 59.0752L225.033 59.5533ZM228.262 67.6186C228.23 67.0673 227.756 66.6468 227.205 66.6795C226.654 66.7122 226.233 67.1856 226.266 67.7369L228.262 67.6186ZM226.05 76.0235C225.99 76.5726 226.387 77.0659 226.936 77.1254C227.485 77.1849 227.978 76.788 228.038 76.239L226.05 76.0235ZM226.476 84.7146C226.614 84.1798 226.292 83.6345 225.758 83.4965C225.223 83.3585 224.677 83.6802 224.54 84.215L226.476 84.7146ZM31.5071 285.315C30.6106 284.459 29.699 283.548 28.7785 282.585L27.3332 283.968C28.2739 284.951 29.2067 285.883 30.1253 286.761L31.5071 285.315ZM23.6436 276.764C22.0627 274.826 20.49 272.755 18.9556 270.563L17.3173 271.71C18.8802 273.942 20.4825 276.053 22.0937 278.029L23.6436 276.764ZM14.7341 264.04C13.4305 261.854 12.1824 259.579 11.0124 257.227L9.22162 258.117C10.4152 260.517 11.6878 262.836 13.0162 265.064L14.7341 264.04ZM7.8402 250.147C6.88973 247.768 6.0302 245.327 5.28089 242.832L3.36542 243.407C4.13252 245.961 5.01173 248.458 5.98291 250.889L7.8402 250.147ZM3.40746 235.32C2.90966 232.809 2.53318 230.255 2.29543 227.667L0.303817 227.85C0.5482 230.511 0.934955 233.133 1.44563 235.709L3.40746 235.32ZM2.01293 219.946C2.06256 217.401 2.25602 214.831 2.60886 212.243L0.627177 211.972C0.263613 214.64 0.0644069 217.287 0.0133077 219.907L2.01293 219.946ZM4.09622 204.675C4.7259 202.236 5.50712 199.785 6.45273 197.328L4.58616 196.609C3.61299 199.138 2.80844 201.662 2.1597 204.176L4.09622 204.675ZM9.62793 190.265C10.7747 188.043 12.0655 185.819 13.5098 183.598L11.8331 182.508C10.353 184.784 9.02856 187.065 7.85063 189.348L9.62793 190.265ZM18.0363 177.295C19.5874 175.327 21.2675 173.364 23.0832 171.408L21.6175 170.047C19.7661 172.041 18.0509 174.046 16.4654 176.057L18.0363 177.295ZM28.5593 165.924C29.5015 165.044 30.4729 164.166 31.4743 163.291L30.1581 161.785C29.1405 162.675 28.1528 163.567 27.1943 164.462L28.5593 165.924ZM31.4683 163.296C32.5499 162.366 33.623 161.471 34.6878 160.61L33.43 159.055C32.3495 159.929 31.2608 160.837 30.1641 161.78L31.4683 163.296ZM41.3224 155.58C43.675 153.913 45.984 152.396 48.2488 151.006L47.2027 149.302C44.9016 150.714 42.5557 152.254 40.1659 153.948L41.3224 155.58ZM55.4852 146.885C58.0383 145.538 60.5309 144.326 62.9629 143.211L62.1293 141.393C59.6691 142.521 57.1426 143.749 54.5515 145.117L55.4852 146.885ZM70.6259 139.885C73.3082 138.772 75.874 137.743 78.394 136.705L77.6325 134.856C75.1478 135.879 72.5321 136.929 69.8591 138.038L70.6259 139.885ZM86.125 133.349C88.7294 132.128 91.2328 130.827 93.6272 129.357L92.5807 127.653C90.2669 129.073 87.8333 130.339 85.2761 131.538L86.125 133.349ZM100.521 124.309C102.589 122.495 104.547 120.448 106.394 118.092L104.82 116.858C103.051 119.115 101.178 121.072 99.202 122.806L100.521 124.309ZM111.092 110.95C112.376 108.629 113.588 106.082 114.729 103.272L112.876 102.519C111.762 105.263 110.583 107.737 109.342 109.982L111.092 110.95ZM117.547 95.3097C118.334 92.7597 119.078 90.0331 119.78 87.1132L117.836 86.6458C117.143 89.5284 116.409 92.214 115.636 94.7199L117.547 95.3097ZM121.54 78.915C121.801 77.5491 122.055 76.1468 122.302 74.707L120.331 74.3694C120.086 75.797 119.834 77.1864 119.576 78.5391L121.54 78.915ZM122.302 74.707C122.541 73.3091 122.798 71.9445 123.07 70.6125L121.111 70.2116C120.834 71.5652 120.573 72.9509 120.331 74.3694L122.302 74.707ZM125.016 62.5683C125.799 59.7948 126.661 57.1882 127.593 54.7398L125.723 54.0287C124.77 56.5348 123.89 59.1974 123.092 62.0248L125.016 62.5683ZM130.914 47.2089C132.223 44.6356 133.621 42.2828 135.091 40.1343L133.44 39.0049C131.92 41.2275 130.478 43.6549 129.131 46.302L130.914 47.2089ZM140.2 33.7468C142.151 31.6656 144.184 29.8565 146.27 28.2917L145.07 26.6918C142.89 28.3267 140.771 30.2135 138.741 32.3789L140.2 33.7468ZM153.208 24.0274C155.725 22.7879 158.278 21.8345 160.822 21.1258L160.286 19.1991C157.627 19.9395 154.958 20.9363 152.325 22.2331L153.208 24.0274ZM168.847 19.6467C171.658 19.3793 174.4 19.37 177.01 19.5586L177.154 17.5638C174.44 17.3677 171.586 17.3771 168.657 17.6557L168.847 19.6467ZM185.083 20.8245C186.469 21.1656 187.774 21.5563 188.985 21.9817L189.648 20.0947C188.375 19.6474 187.007 19.2385 185.561 18.8825L185.083 20.8245ZM188.975 21.9783C190.187 22.4179 191.474 22.9416 192.813 23.5501L193.641 21.7292C192.256 21.1002 190.921 20.5565 189.657 20.0981L188.975 21.9783ZM200.16 27.4971C202.425 28.9065 204.719 30.5215 206.959 32.3433L208.221 30.7917C205.912 28.9136 203.549 27.2501 201.217 25.7991L200.16 27.4971ZM213.053 38.019C214.915 40.0129 216.669 42.1743 218.253 44.504L219.907 43.3792C218.26 40.958 216.441 38.7167 214.514 36.6538L213.053 38.019ZM222.321 51.731C223.435 54.1919 224.355 56.7989 225.033 59.5533L226.975 59.0752C226.266 56.1969 225.305 53.474 224.143 50.9061L222.321 51.731ZM226.266 67.7369C226.423 70.3823 226.362 73.1441 226.05 76.0235L228.038 76.239C228.362 73.2507 228.426 70.3773 228.262 67.6186L226.266 67.7369ZM224.54 84.215C224.2 85.5311 223.81 86.869 223.366 88.2287L225.267 88.8495C225.724 87.4507 226.126 86.0724 226.476 84.7146L224.54 84.215Z" fill="#616161"/>
<path d="M402.816 65.5365C421.983 66.3698 465.416 62.7365 485.816 41.5365C511.316 15.0365 508.316 2.53652 494.816 1.03652C481.316 -0.463482 451.816 44.5365 488.316 82.5365C503.316 97.5365 540.816 103.039 567.316 106.039C593.816 109.039 615.816 157.539 585.816 179.539C576.816 186.539 567.316 183.039 564.316 169.039C561.316 155.039 601.316 158.539 620.316 188.039C639.316 217.539 644.816 269.539 612.316 298.539" stroke="#616161" stroke-width="2" stroke-linecap="round" stroke-dasharray="8 8"/>
<path d="M502.586 537.479H123.216C118.296 537.479 114.316 533.499 114.316 528.579C114.316 523.659 118.296 519.679 123.216 519.679H502.586C507.506 519.679 511.486 523.659 511.486 528.579C511.486 533.489 507.496 537.479 502.586 537.479Z" fill="#FFD0C7"/>
<path d="M144.966 300.419C144.256 297.879 142.966 295.669 141.106 293.799C140.096 293.019 139.086 292.239 138.066 291.449C135.726 290.089 133.206 289.409 130.496 289.399H129.756C127.686 289.319 125.766 289.749 123.976 290.689C122.116 291.289 120.506 292.329 119.146 293.789C117.686 295.149 116.646 296.759 116.046 298.619C115.106 300.409 114.676 302.329 114.756 304.399C114.936 305.729 115.116 307.059 115.296 308.389C116.006 310.929 117.296 313.139 119.156 315.009C120.166 315.789 121.176 316.569 122.196 317.359C124.536 318.719 127.056 319.399 129.766 319.409H130.506C132.576 319.489 134.496 319.059 136.286 318.119C138.146 317.519 139.756 316.479 141.116 315.019C142.576 313.659 143.616 312.049 144.216 310.189C145.156 308.399 145.586 306.479 145.506 304.409C145.326 303.069 145.146 301.749 144.966 300.419Z" fill="#EBEBEB"/>
<path d="M514.186 317.649C532.086 317.649 546.596 303.139 546.596 285.239C546.596 267.34 532.086 252.829 514.186 252.829C496.287 252.829 481.776 267.34 481.776 285.239C481.776 303.139 496.287 317.649 514.186 317.649Z" fill="#EBEBEB"/>
<path d="M392.916 135.749C391.516 136.029 390.166 136.429 388.886 136.959C388.966 137.059 389.046 137.149 389.116 137.259C390.166 138.939 389.656 141.159 387.976 142.219C386.296 143.269 384.076 142.759 383.016 141.079C382.946 140.959 382.896 140.829 382.836 140.709C381.776 141.639 380.806 142.669 379.936 143.779C380.056 143.829 380.186 143.869 380.306 143.929C382.056 144.859 382.726 147.039 381.796 148.789C380.866 150.539 378.686 151.209 376.936 150.279C376.796 150.209 376.676 150.109 376.556 150.029C376.096 151.359 375.766 152.739 375.576 154.169C375.726 154.149 375.866 154.109 376.026 154.109C378.006 154.039 379.676 155.589 379.746 157.579C379.816 159.559 378.266 161.229 376.276 161.299C376.106 161.309 375.936 161.279 375.766 161.269C376.036 162.699 376.456 164.079 376.986 165.389C377.116 165.279 377.246 165.169 377.386 165.079C379.066 164.029 381.286 164.539 382.346 166.219C383.396 167.899 382.886 170.119 381.206 171.179C381.046 171.279 380.876 171.349 380.706 171.429C381.656 172.519 382.706 173.519 383.846 174.399C383.906 174.229 383.966 174.059 384.056 173.889C384.986 172.139 387.166 171.469 388.916 172.399C390.666 173.329 391.336 175.509 390.406 177.259C390.316 177.439 390.196 177.599 390.076 177.749C391.436 178.219 392.846 178.549 394.306 178.739C394.266 178.559 394.236 178.369 394.226 178.179C394.156 176.199 395.706 174.529 397.696 174.459C399.676 174.389 401.346 175.939 401.416 177.929C401.426 178.129 401.406 178.329 401.376 178.519C402.816 178.239 404.216 177.809 405.536 177.259C405.416 177.119 405.286 176.979 405.186 176.809C404.136 175.129 404.646 172.909 406.326 171.849C408.006 170.799 410.226 171.309 411.286 172.989C411.386 173.159 411.466 173.329 411.536 173.499C412.626 172.539 413.606 171.479 414.486 170.329C414.316 170.269 414.156 170.209 413.996 170.129C412.246 169.199 411.576 167.019 412.506 165.269C413.436 163.519 415.616 162.849 417.366 163.779C417.526 163.869 417.666 163.969 417.806 164.079C418.256 162.739 418.586 161.339 418.766 159.889C418.606 159.919 418.446 159.949 418.286 159.959C416.306 160.029 414.636 158.479 414.566 156.489C414.496 154.509 416.046 152.839 418.036 152.769C418.196 152.759 418.356 152.789 418.506 152.799C418.216 151.389 417.796 150.029 417.256 148.729C417.146 148.819 417.036 148.919 416.916 148.999C415.236 150.049 413.016 149.539 411.956 147.859C410.906 146.179 411.416 143.959 413.096 142.899C413.216 142.819 413.356 142.769 413.476 142.709C412.536 141.649 411.506 140.689 410.386 139.829C410.336 139.949 410.296 140.069 410.236 140.189C409.306 141.939 407.126 142.609 405.376 141.679C403.626 140.749 402.956 138.569 403.886 136.819C403.946 136.699 404.036 136.599 404.106 136.489C402.786 136.049 401.416 135.729 400.006 135.539C400.026 135.659 400.056 135.779 400.056 135.899C400.126 137.879 398.576 139.549 396.586 139.619C394.606 139.689 392.936 138.139 392.866 136.149C392.886 136.009 392.906 135.879 392.916 135.749ZM396.706 144.629C403.606 144.389 409.396 149.779 409.646 156.679C409.886 163.579 404.496 169.369 397.596 169.619C390.696 169.859 384.906 164.469 384.656 157.569C384.406 150.669 389.806 144.879 396.706 144.629Z" fill="#EBEBEB"/>
<path d="M161.946 264.549C184.303 264.549 202.426 247.916 202.426 227.399C202.426 206.882 184.303 190.249 161.946 190.249C139.59 190.249 121.466 206.882 121.466 227.399C121.466 247.916 139.59 264.549 161.946 264.549Z" fill="#EBEBEB"/>
<path d="M160.986 227.969L129.416 217.859C128.176 221.109 127.546 224.529 127.546 227.969C127.546 244.799 142.646 258.659 160.986 258.659C167.046 258.659 172.996 257.149 178.196 254.289L160.986 227.969Z" fill="#FF4917"/>
<path d="M162.716 227.399L180.146 253.589C185.036 250.849 189.076 246.999 191.886 242.419C194.686 237.829 196.166 232.659 196.166 227.399H162.716Z" fill="#FF7B5C"/>
<path d="M162.906 225.919L196.346 225.499C196.286 221.319 195.296 217.199 193.436 213.389C191.576 209.579 188.896 206.149 185.536 203.329L162.906 225.919Z" fill="#FEFEFF"/>
<path d="M258.896 191.059H246.786V220.159H258.896V191.059Z" fill="#FF4917"/>
<path d="M277.616 176.819H265.506V220.159H277.616V176.819Z" fill="#FF4917"/>
<path d="M296.326 157.169H284.216V220.159H296.326V157.169Z" fill="#FF4917"/>
<path d="M315.046 184.719H302.936V220.159H315.046V184.719Z" fill="#FF4917"/>
<path d="M240.306 157.779V219.899H323.036" stroke="#CECECE" stroke-width="0.8763" stroke-miterlimit="10"/>
<path d="M426.236 176.479C423.486 177.019 420.836 177.819 418.316 178.859C418.466 179.059 418.636 179.229 418.776 179.449C420.846 182.759 419.846 187.119 416.536 189.189C413.226 191.259 408.866 190.259 406.796 186.949C406.646 186.719 406.556 186.469 406.436 186.229C404.346 188.059 402.436 190.079 400.736 192.269C400.976 192.369 401.226 192.439 401.466 192.569C404.916 194.399 406.226 198.679 404.396 202.129C402.566 205.579 398.286 206.889 394.836 205.059C394.566 204.919 394.336 204.729 394.086 204.559C393.186 207.169 392.536 209.899 392.156 212.699C392.446 212.649 392.726 212.589 393.036 212.579C396.936 212.439 400.216 215.489 400.356 219.399C400.496 223.299 397.446 226.579 393.536 226.719C393.196 226.729 392.866 226.689 392.536 226.649C393.076 229.459 393.886 232.169 394.946 234.749C395.196 234.539 395.446 234.319 395.736 234.129C399.046 232.059 403.406 233.059 405.476 236.369C407.546 239.679 406.546 244.039 403.236 246.109C402.926 246.309 402.586 246.449 402.256 246.589C404.116 248.729 406.186 250.689 408.436 252.429C408.556 252.089 408.676 251.759 408.846 251.429C410.676 247.979 414.956 246.669 418.406 248.499C421.856 250.329 423.166 254.609 421.336 258.059C421.146 258.409 420.926 258.719 420.696 259.019C423.366 259.939 426.146 260.599 429.016 260.969C428.946 260.609 428.876 260.239 428.866 259.859C428.726 255.959 431.776 252.679 435.686 252.539C439.586 252.399 442.866 255.449 443.006 259.359C443.016 259.759 442.976 260.139 442.926 260.529C445.766 259.969 448.506 259.129 451.106 258.049C450.866 257.769 450.626 257.489 450.426 257.169C448.356 253.859 449.356 249.499 452.666 247.429C455.976 245.359 460.336 246.359 462.406 249.669C462.606 249.989 462.756 250.339 462.906 250.679C465.036 248.799 466.986 246.719 468.706 244.459C468.376 244.339 468.046 244.229 467.736 244.059C464.286 242.229 462.976 237.949 464.806 234.499C466.636 231.049 470.916 229.739 474.366 231.569C474.676 231.739 474.956 231.949 475.236 232.149C476.126 229.509 476.756 226.749 477.116 223.919C476.806 223.969 476.496 224.039 476.166 224.049C472.266 224.189 468.986 221.139 468.846 217.229C468.706 213.329 471.756 210.049 475.666 209.909C475.986 209.899 476.286 209.939 476.596 209.969C476.036 207.189 475.206 204.509 474.146 201.969C473.926 202.149 473.716 202.339 473.466 202.489C470.156 204.559 465.796 203.559 463.726 200.249C461.656 196.939 462.656 192.579 465.966 190.509C466.206 190.359 466.466 190.259 466.726 190.139C464.886 188.059 462.856 186.159 460.646 184.479C460.556 184.719 460.476 184.959 460.356 185.189C458.526 188.639 454.246 189.949 450.796 188.119C447.346 186.289 446.036 182.009 447.866 178.559C447.996 178.319 448.156 178.119 448.306 177.909C445.716 177.039 443.026 176.409 440.246 176.039C440.276 176.279 440.336 176.509 440.346 176.749C440.486 180.649 437.436 183.929 433.526 184.069C429.626 184.209 426.346 181.159 426.206 177.249C426.176 176.989 426.216 176.739 426.236 176.479ZM433.546 189.719C449.446 189.159 462.796 201.589 463.356 217.499C463.916 233.399 451.486 246.749 435.576 247.309C419.676 247.869 406.326 235.439 405.756 219.529C405.206 203.629 417.646 190.279 433.546 189.719Z" fill="#EBEBEB"/>
<path d="M384.726 212.879C383.856 212.239 382.776 211.709 382.446 210.689C381.906 209.039 383.676 207.329 383.236 205.649C382.866 204.239 381.196 203.669 379.756 203.459C378.316 203.239 376.666 203.049 375.836 201.839C375.156 200.839 375.316 199.509 375.156 198.309C374.836 195.889 372.976 193.739 370.626 193.069C368.126 192.359 365.946 194.629 363.856 195.539C361.576 196.529 360.186 198.479 359.676 200.939C359.186 203.289 359.536 205.739 360.046 208.079C360.556 210.429 361.236 212.749 361.416 215.149C361.616 217.819 361.016 220.169 360.286 222.689C359.796 224.399 359.676 226.799 360.596 228.379C361.506 229.929 363.336 230.659 365.066 231.159C368.416 232.129 371.956 232.649 375.416 232.129C378.686 231.639 381.856 230.109 383.986 227.599C385.496 226.339 386.716 224.749 387.396 222.899C388.666 219.419 387.716 215.069 384.726 212.879Z" fill="#273238"/>
<path d="M367.366 200.769C367.786 202.219 367.596 203.839 366.836 205.149C366.586 205.579 366.196 206.019 365.696 205.979C365.126 205.939 364.806 205.319 364.626 204.769C364.126 203.279 363.816 201.719 363.686 200.149C363.606 199.189 363.786 197.449 365.156 197.779C366.226 198.049 367.086 199.839 367.366 200.769Z" fill="#FF6EA1"/>
<path d="M367.356 224.319C366.346 227.829 360.636 229.529 357.346 225.479C356.946 224.979 356.566 224.459 356.206 223.929C352.666 224.629 347.386 226.169 345.026 229.049C344.266 229.979 343.886 231.159 343.546 232.319C342.306 236.519 341.286 240.789 340.476 245.099C340.386 245.589 340.296 246.109 340.466 246.579C340.666 247.159 341.206 247.539 341.696 247.929C346.596 251.789 347.876 258.029 349.496 263.659C351.946 272.209 353.066 284.049 355.516 292.599C363.526 293.219 396.916 285.639 400.936 282.119C395.176 271.749 390.516 253.039 388.686 240.019C387.916 234.499 385.746 229.249 383.636 224.089C383.146 222.879 382.696 220.089 381.776 219.309C380.556 218.269 368.926 220.029 367.696 220.069C367.736 220.759 367.776 221.439 367.786 222.129C367.796 222.919 367.556 223.629 367.356 224.319Z" fill="#FF4917"/>
<path d="M355.456 218.659C355.066 217.439 354.546 216.279 353.886 215.209C355.876 215.149 357.736 214.509 359.366 213.349C360.166 212.779 360.886 212.109 361.566 211.409C361.806 211.159 362.186 210.529 362.576 210.069C362.046 210.689 363.346 214.149 363.606 214.859C364.146 216.339 364.916 217.809 365.976 218.989C367.026 220.159 367.716 220.349 367.906 221.999C368.106 223.739 367.736 225.659 367.146 227.289C366.776 228.309 366.236 229.329 365.326 229.919C364.256 230.599 362.876 230.569 361.646 230.249C359.576 229.709 356.736 227.979 355.996 225.819C355.606 224.689 356.046 224.109 356.146 222.939C356.266 221.499 355.886 219.999 355.456 218.659Z" fill="#FFC1A6"/>
<path d="M356.156 222.359C356.156 222.239 356.156 222.129 356.146 222.009C356.046 220.879 355.806 219.739 355.456 218.659C355.066 217.439 354.546 216.279 353.886 215.209C355.876 215.149 357.736 214.509 359.366 213.349C360.166 212.779 360.886 212.109 361.566 211.409C361.806 211.159 362.186 210.529 362.576 210.069C362.636 210.709 362.726 211.349 362.836 211.979C362.566 216.059 359.766 220.489 356.156 222.359Z" fill="#E3856D"/>
<path d="M342.966 207.539C343.756 210.759 345.636 213.709 348.226 215.779C348.936 216.349 349.706 216.859 350.586 217.079C351.466 217.299 352.456 217.199 353.166 216.639C354.176 215.839 354.346 214.399 354.416 213.109C354.556 210.699 354.636 208.269 354.186 205.899C353.736 203.529 352.716 201.209 350.946 199.569C349.496 198.229 345.526 196.289 343.776 198.129C341.886 200.149 342.376 205.149 342.966 207.539Z" fill="#273238"/>
<path d="M345.036 201.879C345.376 199.619 347.936 201.299 350.016 200.339C351.826 199.499 353.196 198.779 355.236 198.919C357.046 199.049 358.856 199.759 360.126 201.089C360.466 201.449 360.786 201.819 361.076 202.189C361.876 203.529 362.626 204.899 363.186 206.359C363.196 206.389 363.196 206.429 363.206 206.459C363.396 209.369 362.696 212.109 361.326 214.479C359.996 216.779 357.606 218.389 354.946 218.329C353.526 218.299 352.146 217.829 350.886 216.749C349.626 215.669 348.706 214.259 347.906 212.809C346.686 210.599 344.656 204.369 345.036 201.879Z" fill="#FFC1A6"/>
<path d="M354.936 206.129C352.466 205.549 349.916 205.189 347.646 204.069C345.986 203.249 344.466 201.899 343.716 200.179C342.956 198.429 343.476 197.199 344.486 195.689C345.916 193.529 348.216 191.929 350.716 191.279C353.226 190.619 356.366 191.589 358.776 192.429C360.446 193.009 362.046 193.929 363.176 195.289C365.136 197.659 365.806 201.739 365.646 204.739C365.576 206.019 365.236 207.169 364.886 208.379C364.606 209.379 364.096 210.509 362.936 210.649C362.136 210.749 360.546 208.479 359.736 207.969C358.456 207.169 357.006 206.659 355.556 206.289C355.346 206.229 355.146 206.179 354.936 206.129Z" fill="#273238"/>
<path d="M351.136 208.849C351.176 209.249 351.536 209.539 351.936 209.499C352.336 209.459 352.626 209.099 352.586 208.699C352.546 208.299 352.186 208.009 351.786 208.049C351.386 208.099 351.096 208.449 351.136 208.849Z" fill="#485070"/>
<path d="M352.216 206.769C351.726 206.669 351.216 206.739 350.766 206.959" stroke="#485070" stroke-width="0.75" stroke-miterlimit="10" stroke-linecap="round"/>
<path d="M346.646 210.059C346.686 210.459 347.046 210.749 347.446 210.709C347.846 210.669 348.136 210.309 348.096 209.909C348.056 209.509 347.696 209.219 347.296 209.259C346.896 209.299 346.606 209.659 346.646 210.059Z" fill="#485070"/>
<path d="M347.726 207.979C347.236 207.879 346.726 207.949 346.276 208.169" stroke="#485070" stroke-width="0.75" stroke-miterlimit="10" stroke-linecap="round"/>
<path d="M349.276 210.139C349.426 210.769 349.316 211.449 348.986 211.999C348.896 212.139 348.796 212.299 348.816 212.459C348.846 212.639 349.026 212.759 349.196 212.779C349.366 212.799 349.556 212.749 349.726 212.699" stroke="#485070" stroke-width="0.75" stroke-miterlimit="10" stroke-linecap="round"/>
<path d="M352.936 213.769C352.326 214.429 351.396 214.769 350.506 214.669" stroke="#485070" stroke-width="0.75" stroke-miterlimit="10" stroke-linecap="round"/>
<path d="M363.366 206.279C363.516 207.739 362.456 209.049 360.986 209.199C359.526 209.349 358.216 208.289 358.066 206.819C357.916 205.359 358.976 204.049 360.446 203.899C361.906 203.749 363.216 204.819 363.366 206.279Z" fill="#FFC1A6"/>
<path d="M361.116 205.369C360.726 205.359 360.336 205.559 360.126 205.889C359.916 206.219 359.886 206.649 360.046 206.999C360.256 206.769 360.606 206.679 360.896 206.789C361.186 206.899 361.396 207.199 361.406 207.509" stroke="#485070" stroke-width="0.75" stroke-miterlimit="10" stroke-linecap="round" stroke-linejoin="round"/>
<path d="M425.096 515.149H214.146C209.316 515.149 205.406 511.239 205.406 506.409V388.049C205.406 383.219 209.316 379.309 214.146 379.309H425.096C429.926 379.309 433.836 383.219 433.836 388.049V506.409C433.836 511.229 429.926 515.149 425.096 515.149Z" stroke="#15222B" stroke-width="0.75" stroke-miterlimit="10"/>
<path d="M450.746 515.319H188.496C188.496 521.339 193.376 526.219 199.396 526.219H439.836C445.866 526.219 450.746 521.339 450.746 515.319Z" fill="#15222B"/>
<path d="M421.526 510.879H217.716C213.946 510.879 210.886 507.819 210.886 504.049V391.469C210.886 387.699 213.946 384.639 217.716 384.639H421.526C425.296 384.639 428.356 387.699 428.356 391.469V504.049C428.356 507.829 425.296 510.879 421.526 510.879Z" fill="#14212A"/>
<path d="M322.656 381.859C322.656 382.799 321.896 383.549 320.966 383.549C320.026 383.549 319.276 382.789 319.276 381.859C319.276 380.919 320.036 380.169 320.966 380.169C321.906 380.169 322.656 380.919 322.656 381.859Z" fill="#333333"/>
<path d="M233.307 256.506L233.307 510.146H405.927V256.506H233.307Z" fill="white" stroke="#EFEFEF" stroke-miterlimit="10"/>
<path d="M335.476 490.019L312.506 461.409L292.526 486.999L275.206 468.289L277.476 466.199L292.326 482.239L312.466 456.439L334.836 484.309L347.826 457.799L375.236 452.949L375.766 455.989L349.906 460.559L335.476 490.019Z" fill="#EBEBEB"/>
<path d="M379.456 454.469C379.456 452.279 377.686 450.509 375.496 450.509C373.306 450.509 371.536 452.279 371.536 454.469C371.536 456.659 373.306 458.429 375.496 458.429C377.686 458.429 379.456 456.649 379.456 454.469Z" fill="#FF4917"/>
<path d="M339.276 487.169C339.276 484.979 337.506 483.209 335.316 483.209C333.126 483.209 331.356 484.979 331.356 487.169C331.356 489.359 333.126 491.129 335.316 491.129C337.506 491.119 339.276 489.349 339.276 487.169Z" fill="#FF4917"/>
<path d="M352.356 459.179C352.356 456.989 350.586 455.219 348.396 455.219C346.206 455.219 344.436 456.989 344.436 459.179C344.436 461.369 346.206 463.139 348.396 463.139C350.586 463.139 352.356 461.359 352.356 459.179Z" fill="#FF4917"/>
<path d="M312.336 463.139C314.523 463.139 316.296 461.366 316.296 459.179C316.296 456.992 314.523 455.219 312.336 455.219C310.149 455.219 308.376 456.992 308.376 459.179C308.376 461.366 310.149 463.139 312.336 463.139Z" fill="#FF4917"/>
<path d="M292.896 488.109C295.083 488.109 296.856 486.336 296.856 484.149C296.856 481.962 295.083 480.189 292.896 480.189C290.709 480.189 288.936 481.962 288.936 484.149C288.936 486.336 290.709 488.109 292.896 488.109Z" fill="#FF4917"/>
<path d="M281.156 467.989C281.156 465.799 279.386 464.029 277.196 464.029C275.006 464.029 273.236 465.799 273.236 467.989C273.236 470.179 275.006 471.949 277.196 471.949C279.386 471.949 281.156 470.179 281.156 467.989Z" fill="#FF4917"/>
<path d="M259.776 442.979V496.969H380.256" stroke="#CECECE" stroke-width="0.8763" stroke-miterlimit="10"/>
<path d="M287.756 356.799H269.366V399.509H287.756V356.799Z" fill="#FF4917"/>
<path d="M316.176 335.889H297.786V399.499H316.176V335.889Z" fill="#FF4917"/>
<path d="M265.936 344.559C288.016 334.509 307.876 319.639 323.736 301.289" stroke="#15222B" stroke-width="0.75" stroke-miterlimit="10" stroke-linecap="round"/>
<path d="M325.416 299.309L324.106 303.029L323.566 301.389L321.876 301.049L325.416 299.309Z" fill="#15222B"/>
<path d="M344.606 307.049H326.216V399.509H344.606V307.049Z" fill="#FF4917"/>
<path d="M373.036 347.489H354.646V399.509H373.036V347.489Z" fill="#FF4917"/>
<path d="M258.546 308.769V399.649H381.396" stroke="#CECECE" stroke-width="0.8763" stroke-miterlimit="10"/>
<path d="M381.216 408.419H257.846V414.629H381.216V408.419Z" fill="#FFD0C7"/>
<path d="M356.446 285.429H282.306V291.639H356.446V285.429Z" fill="#FFD0C7"/>
<path d="M381.066 274.579H257.696V280.789H381.066V274.579Z" fill="#FFD0C7"/>
<path d="M381.216 419.809H257.846V426.019H381.216V419.809Z" fill="#FFD0C7"/>
<path d="M381.216 431.199H257.846V437.409H381.216V431.199Z" fill="#FFD0C7"/>
<path d="M376.536 219.569C375.096 219.909 373.666 220.309 372.256 220.709C372.016 220.779 371.766 220.849 371.586 221.009C371.326 221.239 371.236 221.589 371.166 221.929C370.236 226.449 371.506 232.429 374.416 236.059C375.296 237.159 376.336 238.109 377.286 239.149C378.226 240.169 379.476 241.089 380.316 242.169C381.296 243.419 381.706 245.439 382.166 246.929C383.206 250.359 383.856 253.909 384.086 257.479C384.236 259.859 384.346 262.559 386.176 264.089C387.986 265.609 390.846 265.219 392.706 263.779C394.566 262.339 395.626 260.089 396.416 257.869C398.476 252.109 399.606 245.889 399.306 239.759C399.036 234.169 397.326 227.439 393.716 223.019C391.296 220.059 387.316 218.739 383.496 218.679C381.146 218.649 378.826 219.029 376.536 219.569Z" fill="#FF4917"/>
<path d="M354.286 268.529C354.776 268.349 355.306 268.249 355.876 268.229C360.726 268.119 365.466 267.619 370.356 267.129C373.636 266.799 376.916 266.609 380.176 266.569C382.806 266.529 385.856 267.109 388.426 266.379C391.136 265.609 392.986 264.849 394.346 262.609C395.006 261.519 395.596 260.409 396.126 259.289C396.436 258.629 396.726 257.919 396.586 257.249C396.376 256.259 395.286 255.659 394.216 255.269C391.946 254.429 390.536 253.129 387.926 252.859C385.276 252.589 382.476 252.929 379.806 253.499C374.606 254.589 369.396 255.039 364.296 256.559C358.526 258.279 353.016 260.679 347.556 263.109C345.556 263.999 343.496 264.949 342.056 266.439C339.836 268.719 339.596 272.119 341.486 274.249C342.036 274.869 342.876 275.409 343.836 275.239C344.796 275.069 345.436 273.809 344.626 273.439C349.886 275.459 350.026 270.059 354.286 268.529Z" fill="#FFC1A6"/>
<path d="M337.866 269.359L337.906 269.039C337.826 269.239 337.746 269.429 337.666 269.629C337.736 269.539 337.796 269.449 337.866 269.359Z" fill="#FF6EA1"/>
<path d="M351.486 228.749C351.186 228.179 350.746 227.709 350.146 227.359C348.446 226.369 344.886 227.889 343.366 228.729C343.036 228.909 342.726 229.099 342.406 229.319C340.566 230.479 338.956 232.069 337.546 233.619C337.056 234.159 336.576 234.699 336.106 235.249C329.056 243.399 324.496 252.369 325.636 263.279C325.876 265.619 326.346 268.129 328.086 269.709C329.466 270.959 331.486 271.389 333.316 271.049C335.056 270.729 336.646 269.789 337.946 268.589L337.896 269.039C337.986 268.829 338.066 268.619 338.156 268.399C340.936 265.699 341.586 261.969 342.266 258.329C342.266 258.319 342.266 258.309 342.266 258.309C344.476 252.879 346.686 247.459 348.896 242.029C349.966 239.429 353.376 232.299 351.486 228.749Z" fill="#FF4917"/>
<path d="M340.216 309.269C343.256 304.299 337.706 303.469 336.906 299.029C336.816 298.519 336.796 297.979 336.886 297.409C337.656 292.569 338.006 287.789 338.386 282.849C338.646 279.549 339.046 276.259 339.586 272.999C339.956 270.799 340.806 268.359 340.916 266.079C340.866 265.349 340.776 264.619 340.656 263.909C339.766 262.239 338.336 260.909 336.086 260.179C333.436 259.319 330.246 259.979 328.086 261.769C327.526 262.619 327.036 263.519 326.606 264.429C326.046 266.789 325.926 269.289 326.016 271.719C326.196 277.039 325.716 282.279 326.356 287.549C327.076 293.509 328.556 299.299 330.086 305.039C330.646 307.139 331.246 309.309 332.516 310.939C334.466 313.429 337.926 314.109 340.476 312.489C341.206 312.019 341.926 311.249 341.926 310.279C341.936 309.319 340.756 308.519 340.216 309.269Z" fill="#FFC1A6"/>
<path d="M191.376 375.119C195.096 379.369 196.626 385.109 197.886 390.479C199.516 397.419 201.156 404.369 202.786 411.309C203.166 412.939 203.556 414.579 203.606 416.259C203.686 418.949 202.916 422.359 202.286 424.949C201.476 428.269 199.486 428.069 196.536 427.769C191.856 427.309 185.496 425.889 182.336 422.079C180.836 420.269 180.356 417.839 179.916 415.529C179.326 412.349 178.726 409.169 178.136 405.979C175.706 392.979 173.276 379.569 176.026 366.629C182.566 367.609 187.546 370.749 191.376 375.119Z" fill="white"/>
<path d="M198.246 416.239C200.316 417.219 202.296 418.479 204.286 419.679C207.446 421.579 210.746 422.919 213.986 424.689C214.906 425.189 215.846 425.689 216.856 425.869C218.586 426.179 220.416 425.519 222.166 425.759C224.496 426.069 226.486 428.149 227.336 430.899C228.756 435.529 225.426 433.809 223.216 433.399C221.496 433.079 219.766 432.769 218.046 432.449C211.266 431.209 204.766 430.609 197.826 430.249C194.056 430.049 187.406 430.139 184.586 426.709C183.216 425.039 181.696 417.749 183.506 415.949C183.846 415.609 184.256 415.459 184.666 415.319C188.286 414.119 191.996 414.069 195.496 415.149C196.436 415.439 197.346 415.809 198.246 416.239Z" fill="#9C5240"/>
<path d="M195.796 469.799H129.656C127.486 469.799 125.726 468.039 125.726 465.869C125.726 463.699 127.486 461.939 129.656 461.939H195.796C197.966 461.939 199.726 463.699 199.726 465.869C199.726 468.039 197.966 469.799 195.796 469.799Z" fill="#15222B"/>
<path d="M122.676 417.929V394.719C122.676 391.219 125.516 388.389 129.006 388.389H180.736C184.236 388.389 187.066 391.229 187.066 394.719V417.929C187.066 421.429 184.226 424.259 180.736 424.259H129.006C125.506 424.259 122.676 421.429 122.676 417.929Z" fill="#15222B"/>
<path d="M134.916 418.429H130.916V466.169H134.916V418.429Z" fill="#15222B"/>
<path d="M162.646 467.829H158.646V525.819H162.646V467.829Z" fill="#15222B"/>
<path d="M132.586 467.829H128.586V525.819H132.586V467.829Z" fill="#15222B"/>
<path d="M196.706 467.829H192.706V525.819H196.706V467.829Z" fill="#485070"/>
<path d="M176.176 467.829H172.176V525.819H176.176V467.829Z" fill="#15222B"/>
<path d="M236.716 488.179C234.446 488.659 232.886 488.769 230.206 489.149C226.306 489.699 222.406 490.159 218.486 490.489C219.506 497.539 220.436 503.739 220.676 504.979C221.696 510.379 221.136 523.909 223.546 529.039C226.476 529.399 229.016 528.919 231.756 528.699C233.216 515.169 234.416 501.589 236.716 488.179Z" fill="#CF9378"/>
<path d="M216.286 500.049C216.296 501.149 216.316 502.289 216.536 503.359C219.636 506.639 224.286 508.319 228.756 508.539C231.376 508.669 233.886 508.259 236.276 507.489C236.566 502.209 236.876 496.929 237.216 491.649C237.656 484.779 238.006 477.919 238.866 471.079C239.246 468.039 239.696 459.029 238.966 452.609C237.216 445.899 232.756 444.069 232.756 444.069C232.756 444.069 220.296 439.139 210.756 437.039C199.046 434.469 187.136 432.559 175.356 429.989C169.696 428.759 160.226 428.979 157.296 435.179C153.916 442.339 160.656 451.859 166.086 455.999C171.706 460.279 178.636 462.439 185.536 463.949C195.296 466.079 205.316 467.039 215.306 466.809C214.996 466.829 216.276 497.579 216.286 500.049Z" fill="#15222B"/>
<path d="M215.306 466.879C215.326 466.859 215.346 466.849 215.366 466.829C213.186 464.669 211.136 462.379 208.956 460.219C205.716 456.999 202.566 453.689 199.356 450.449C192.966 444.019 186.536 437.609 180.286 431.039C178.646 430.709 177.006 430.359 175.366 430.009C169.706 428.779 160.236 428.999 157.306 435.199C153.926 442.359 160.666 451.879 166.096 456.019C171.716 460.299 178.646 462.459 185.546 463.969C195.306 466.099 205.326 467.059 215.316 466.829C215.316 466.829 215.306 466.859 215.306 466.879Z" fill="#15222B"/>
<path d="M223.436 441.059C215.056 438.369 207.416 435.869 195.116 434.209" stroke="#485070" stroke-width="0.75" stroke-miterlimit="10"/>
<path d="M248.926 535.789H223.066C222.536 535.789 222.106 535.359 222.106 534.829V532.889H248.926V535.789Z" fill="#B3B3B3"/>
<path d="M248.556 533.669C248.646 533.529 248.736 533.399 248.806 533.239C249.456 531.809 248.696 530.089 247.446 529.069C246.196 528.049 244.576 527.589 242.996 527.139C239.626 526.189 236.386 525.289 232.916 524.819C232.006 524.689 222.236 523.799 222.276 523.359C222.126 525.819 221.976 528.279 221.826 530.749C221.766 531.769 221.506 532.769 221.816 533.659H248.556V533.669Z" fill="#485070"/>
<path d="M226.726 521.339C228.216 520.109 230.526 520.109 232.126 521.189C233.726 522.269 234.596 524.269 234.506 526.189C234.486 526.549 234.426 526.939 234.156 527.169C233.886 527.409 233.496 527.429 233.136 527.429C231.596 527.449 230.056 527.469 228.516 527.479C227.556 527.489 226.326 527.709 225.666 526.849C224.486 525.339 225.576 522.489 226.726 521.339Z" fill="#485070"/>
<path d="M236.876 525.539C235.976 525.449 235.046 526.019 234.726 526.879" stroke="#B3B3B3" stroke-width="0.75" stroke-miterlimit="10" stroke-linecap="round"/>
<path d="M237.436 527.889C237.906 527.109 238.796 526.599 239.716 526.589" stroke="#B3B3B3" stroke-width="0.75" stroke-miterlimit="10" stroke-linecap="round"/>
<path d="M240.826 528.249C241.046 527.679 241.636 527.279 242.246 527.279" stroke="#B3B3B3" stroke-width="0.75" stroke-miterlimit="10" stroke-linecap="round"/>
<path d="M192.276 484.539C188.846 485.019 185.396 485.419 181.946 485.739C184.556 498.569 185.756 511.639 187.886 524.559C190.816 524.549 193.486 523.929 196.606 523.999C197.196 520.089 198.396 496.869 200.226 483.249C197.076 484.019 195.486 484.079 192.276 484.539Z" fill="#CF9378"/>
<path d="M182.456 502.799C183.166 505.689 183.996 507.459 186.836 508.589C189.306 509.569 192.006 509.969 194.646 509.689C198.196 509.309 201.096 506.699 201.096 506.699C201.096 506.699 204.776 451.909 200.196 444.889C194.606 436.299 182.356 434.539 172.816 432.439C164.456 430.599 155.996 429.109 147.556 427.469C145.496 435.279 146.986 444.469 149.966 451.679C149.986 451.719 149.996 451.749 150.016 451.789C152.386 457.449 157.816 461.279 163.926 461.799C168.396 462.179 172.886 462.319 177.366 462.219C177.316 462.219 179.916 492.449 182.456 502.799Z" fill="#15222B"/>
<path d="M214.006 535.369H188.146C187.616 535.369 187.186 534.939 187.186 534.409V532.469H214.006V535.369Z" fill="#B3B3B3"/>
<path d="M213.626 533.249C213.716 533.109 213.806 532.979 213.876 532.819C214.526 531.389 213.766 529.669 212.516 528.649C211.266 527.629 209.646 527.169 208.066 526.719C204.696 525.769 201.456 524.869 197.986 524.399C197.076 524.269 187.306 523.379 187.346 522.939C187.196 525.399 187.046 527.859 186.896 530.329C186.836 531.349 186.576 532.349 186.886 533.239H213.626V533.249Z" fill="#485070"/>
<path d="M191.806 520.919C193.296 519.689 195.606 519.689 197.206 520.769C198.806 521.849 199.676 523.849 199.586 525.769C199.566 526.129 199.506 526.519 199.236 526.749C198.966 526.989 198.576 527.009 198.216 527.009C196.676 527.029 195.136 527.049 193.596 527.059C192.636 527.069 191.406 527.289 190.746 526.429C189.566 524.919 190.656 522.069 191.806 520.919Z" fill="#485070"/>
<path d="M201.956 525.119C201.056 525.029 200.126 525.599 199.806 526.459" stroke="#B3B3B3" stroke-width="0.75" stroke-miterlimit="10" stroke-linecap="round"/>
<path d="M202.516 527.469C202.986 526.689 203.876 526.179 204.796 526.169" stroke="#B3B3B3" stroke-width="0.75" stroke-miterlimit="10" stroke-linecap="round"/>
<path d="M205.906 527.829C206.126 527.259 206.716 526.859 207.326 526.859" stroke="#B3B3B3" stroke-width="0.75" stroke-miterlimit="10" stroke-linecap="round"/>
<path d="M146.436 438.059C146.676 439.319 146.906 440.579 147.146 441.839C151.496 439.549 156.706 440.029 161.616 440.019C172.376 439.999 183.116 437.319 192.616 432.279C192.086 429.599 191.476 427.029 191.456 424.339C191.446 421.599 190.306 418.949 190.306 416.199C190.126 412.489 190.266 408.769 190.456 405.069C190.806 398.049 191.276 390.949 189.966 384.039C189.116 379.559 187.436 375.139 184.716 371.459C183.466 369.769 181.736 367.569 179.816 366.599C177.786 365.569 174.736 365.909 172.446 365.709C170.776 365.559 169.076 365.409 167.426 365.699C165.386 366.049 163.506 367.039 161.736 368.099C152.266 373.779 151.116 382.939 148.266 392.799C146.846 397.729 144.606 402.389 143.186 407.309C142.386 410.059 142.056 412.929 142.126 415.789C142.186 418.379 143.186 420.679 143.656 423.229C144.586 428.159 145.516 433.109 146.436 438.059Z" fill="#FF4917"/>
<path d="M173.226 374.699C174.976 376.189 177.316 376.969 179.606 376.839C180.406 376.789 181.226 376.619 181.856 376.139C182.486 375.649 182.866 374.769 182.576 374.029" stroke="white" stroke-width="0.3975" stroke-miterlimit="10" stroke-linecap="round"/>
<path d="M171.046 395.359C173.076 402.099 178.436 407.739 185.066 410.109" stroke="white" stroke-width="0.3975" stroke-miterlimit="10" stroke-linecap="round"/>
<path d="M177.186 400.589C178.906 402.649 181.436 404.009 184.096 404.309" stroke="white" stroke-width="0.3975" stroke-miterlimit="10" stroke-linecap="round"/>
<path d="M165.096 400.179C167.526 407.869 171.896 414.929 177.676 420.539" stroke="white" stroke-width="0.3975" stroke-miterlimit="10" stroke-linecap="round"/>
<path d="M181.196 364.239C181.616 362.929 182.176 361.679 182.886 360.529C180.746 360.459 178.746 359.769 177.006 358.529C176.146 357.919 175.376 357.199 174.636 356.449C174.376 356.179 173.976 355.499 173.556 355.009C173.126 359.719 171.366 364.149 167.356 366.839C168.706 369.319 170.986 371.179 173.426 372.589C175.516 373.799 180.736 376.149 180.856 371.909C180.896 370.519 180.346 369.239 180.466 367.829C180.556 366.609 180.826 365.399 181.196 364.239Z" fill="#CF9378"/>
<path d="M180.446 368.199C180.446 368.079 180.446 367.949 180.456 367.819C180.556 366.599 180.826 365.389 181.196 364.229C181.616 362.919 182.176 361.669 182.886 360.519C180.746 360.449 178.746 359.759 177.006 358.519C176.146 357.909 175.376 357.189 174.636 356.439C174.376 356.169 173.976 355.489 173.556 354.999C173.496 355.689 173.396 356.369 173.276 357.049C173.576 361.449 176.576 366.199 180.446 368.199Z" fill="#9C5240"/>
<path d="M149.646 375.119C145.926 379.369 144.396 385.109 143.136 390.479C141.506 397.419 139.866 404.369 138.236 411.309C137.666 413.719 136.756 417.009 137.296 419.459C137.876 422.129 139.796 424.599 142.126 425.999C144.596 427.479 148.356 428.159 151.076 426.899C153.736 425.659 156.776 424.409 158.706 422.079C160.206 420.269 160.686 417.839 161.126 415.529C161.716 412.349 162.316 409.169 162.906 405.979C165.336 392.979 167.766 379.569 165.016 366.629C158.456 367.609 153.476 370.749 149.646 375.119Z" fill="#FF4917"/>
<path d="M165.136 388.029C159.726 389.439 160.216 396.359 159.726 400.629C159.006 406.929 157.796 413.179 156.136 419.309" stroke="white" stroke-width="0.3975" stroke-miterlimit="10"/>
<path d="M161.076 391.579C161.676 389.699 162.836 387.999 164.356 386.759" stroke="white" stroke-width="0.3975" stroke-miterlimit="10"/>
<path d="M157.876 417.489C160.776 418.119 163.626 419.049 166.466 419.909C170.986 421.279 175.566 422.069 180.156 423.289C181.456 423.639 182.786 423.979 184.136 423.989C186.456 424.009 188.696 423.069 191.016 423.019C194.116 422.949 197.156 424.679 198.836 427.259C201.676 431.599 196.966 430.439 194.006 430.389C191.696 430.359 189.386 430.319 187.076 430.289C177.996 430.159 169.406 430.619 160.296 431.379C155.346 431.799 146.716 432.959 142.316 430.019C140.176 428.589 136.646 421.649 138.616 419.569C138.986 419.179 139.496 418.959 139.986 418.759C144.436 416.989 149.266 416.339 154.046 416.839C155.346 416.999 156.616 417.219 157.876 417.489Z" fill="#FFC1A6"/>
<path d="M233.986 442.979H173.986C173.316 442.979 172.776 442.439 172.776 441.769V441.359C172.776 440.689 173.316 440.149 173.986 440.149H233.986C234.656 440.149 235.196 440.689 235.196 441.359V441.769C235.206 442.439 234.656 442.979 233.986 442.979Z" fill="#485070"/>
<path d="M241.516 442.979H188.166L192.806 412.329C192.966 411.269 193.866 410.469 194.916 410.469H244.036C245.306 410.469 246.256 411.609 246.066 412.899L241.516 442.979Z" fill="#757E96"/>
<path d="M219.246 429.629C221.201 429.629 222.786 428.044 222.786 426.089C222.786 424.134 221.201 422.549 219.246 422.549C217.291 422.549 215.706 424.134 215.706 426.089C215.706 428.044 217.291 429.629 219.246 429.629Z" fill="white"/>
<path d="M191.766 344.719C191.156 342.339 188.606 344.409 186.276 343.619C184.256 342.919 182.716 342.299 180.556 342.679C178.636 343.009 176.776 343.969 175.576 345.529C175.246 345.949 174.956 346.379 174.686 346.799C173.976 348.309 173.326 349.859 172.896 351.479C172.896 351.519 172.886 351.549 172.886 351.589C172.996 354.709 174.046 357.569 175.766 359.939C177.436 362.249 180.156 363.699 182.996 363.359C184.506 363.169 185.926 362.519 187.156 361.229C188.376 359.939 189.216 358.329 189.906 356.699C190.956 354.209 192.436 347.339 191.766 344.719Z" fill="#CF9378"/>
<path d="M180.516 347.059C180.536 346.959 180.556 346.839 180.586 346.699C180.796 345.709 181.006 344.709 181.216 343.719C183.726 345.599 186.446 348.269 189.696 349.349C192.156 350.169 194.926 349.259 196.486 347.209C196.766 346.839 196.976 346.439 197.186 346.029C197.276 345.839 197.526 345.049 197.616 344.979C196.746 345.579 195.496 345.149 194.796 344.359C194.096 343.569 193.776 342.529 193.376 341.549C192.436 339.259 190.886 337.189 188.846 335.779C186.806 334.369 184.266 333.649 181.806 333.949C180.256 334.129 178.756 334.729 177.516 335.669C176.906 336.129 176.326 336.679 175.876 337.309C175.666 337.599 174.786 339.189 175.146 339.499C174.596 339.029 173.736 339.079 173.106 339.439C172.476 339.809 172.046 340.429 171.696 341.059C170.166 343.739 169.616 346.949 170.086 349.999C170.296 351.359 170.786 352.549 171.286 353.809C171.696 354.839 172.366 355.999 173.616 356.019C175.346 356.059 175.156 353.149 175.646 351.649C175.836 351.059 175.796 350.319 176.496 350.149C177.206 349.969 178.356 351.319 178.906 350.219C179.106 349.819 179.006 349.349 178.916 348.909C178.826 348.469 178.756 347.989 178.996 347.609C179.016 347.569 179.916 347.609 180.046 347.569C180.376 347.469 180.456 347.299 180.516 347.059Z" fill="#273238"/>
<path d="M176.236 335.009C174.886 336.819 174.606 339.369 175.536 341.429" stroke="#485070" stroke-width="0.75" stroke-miterlimit="10" stroke-linecap="round"/>
<path d="M171.456 338.899C172.556 338.209 174.146 338.469 174.986 339.459" stroke="#485070" stroke-width="0.75" stroke-miterlimit="10" stroke-linecap="round"/>
<path d="M185.236 353.609C185.667 353.609 186.016 353.26 186.016 352.829C186.016 352.399 185.667 352.049 185.236 352.049C184.805 352.049 184.456 352.399 184.456 352.829C184.456 353.26 184.805 353.609 185.236 353.609Z" fill="#485070"/>
<path d="M184.626 350.729C185.136 350.569 185.696 350.589 186.196 350.769" stroke="#485070" stroke-width="0.75" stroke-miterlimit="10" stroke-linecap="round"/>
<path d="M190.936 353.629C190.936 354.059 190.586 354.409 190.156 354.409C189.726 354.409 189.376 354.059 189.376 353.629C189.376 353.199 189.726 352.849 190.156 352.849C190.586 352.849 190.936 353.199 190.936 353.629Z" fill="#485070"/>
<path d="M189.556 351.529C190.066 351.369 190.626 351.389 191.126 351.569" stroke="#485070" stroke-width="0.75" stroke-miterlimit="10" stroke-linecap="round"/>
<path d="M188.136 354.009C188.046 354.689 188.236 355.409 188.646 355.959C188.756 356.099 188.886 356.259 188.876 356.429C188.866 356.619 188.686 356.769 188.506 356.819C188.316 356.869 188.126 356.829 187.936 356.789" stroke="#485070" stroke-width="0.75" stroke-miterlimit="10" stroke-linecap="round"/>
<path d="M184.626 358.279C185.346 358.919 186.376 359.179 187.316 358.969" stroke="#485070" stroke-width="0.75" stroke-miterlimit="10" stroke-linecap="round"/>
<path d="M172.676 351.419C172.676 352.999 173.956 354.279 175.536 354.279C177.116 354.279 178.396 352.999 178.396 351.419C178.396 349.839 177.116 348.559 175.536 348.559C173.956 348.569 172.676 349.849 172.676 351.419Z" fill="#CF9378"/>
<path d="M174.976 350.199C175.386 350.149 175.826 350.319 176.086 350.639C176.346 350.959 176.426 351.429 176.286 351.819C176.036 351.589 175.656 351.539 175.346 351.689C175.046 351.839 174.856 352.179 174.876 352.509" stroke="#485070" stroke-width="0.75" stroke-miterlimit="10" stroke-linecap="round" stroke-linejoin="round"/>
<path d="M492.786 514.909C492.706 514.549 482.496 516.339 481.366 516.509C481.326 516.549 481.286 516.579 481.246 516.619C477.716 519.619 473.236 521.249 468.856 522.839C468.176 523.089 467.476 523.349 467.006 523.899C465.016 526.229 469.236 527.239 470.736 527.359C473.186 527.569 475.616 527.069 477.996 526.649C482.916 525.779 487.936 526.059 492.806 524.859C492.996 524.809 493.206 524.749 493.316 524.599C493.406 524.469 493.426 524.309 493.436 524.149C493.686 521.089 493.476 517.959 492.786 514.909Z" fill="#485070"/>
<path d="M470.426 443.099C472.896 467.679 477.386 492.899 480.206 517.459C485.966 517.959 488.056 517.579 493.646 516.629C497.316 489.919 498.866 477.029 495.556 449.929C495.216 447.149 495.506 424.109 495.406 421.149C494.816 403.539 497.176 383.429 486.596 368.559C483.926 364.799 479.546 361.919 475.096 362.269C471.846 362.519 469.336 364.299 467.466 366.839C462.006 374.259 465.046 394.409 466.026 403.209C467.316 414.879 469.256 431.389 470.426 443.099Z" fill="#14212A"/>
<path d="M453.406 518.319C453.306 518.319 453.196 518.329 453.106 518.339C449.836 518.729 446.516 518.719 443.246 518.289C442.826 518.239 442.406 518.169 441.996 518.269C441.626 518.359 441.296 518.559 440.976 518.759C437.916 520.619 434.526 521.919 431.006 522.569C428.976 522.939 426.796 523.149 425.196 524.439C424.446 525.039 423.856 526.159 424.426 526.929C424.626 527.189 424.916 527.359 425.216 527.499C428.286 528.939 432.926 528.379 436.226 528.199C441.556 527.899 446.836 528.229 452.096 527.159C452.316 527.119 452.536 527.059 452.706 526.919C452.946 526.719 453.026 526.399 453.096 526.099C453.436 524.649 453.716 523.169 453.896 521.679C453.966 521.089 454.296 518.979 453.886 518.489C453.756 518.369 453.586 518.329 453.406 518.319Z" fill="#485070"/>
<path d="M466.446 365.649C454.326 365.459 450.616 378.109 449.176 387.839C446.126 408.389 443.986 429.069 442.766 449.809C442.156 460.129 441.346 468.839 441.006 479.169C440.646 489.769 440.076 508.119 440.536 518.669C440.546 518.879 440.566 519.109 440.696 519.279C440.856 519.459 441.116 519.499 441.356 519.529C445.796 519.999 450.286 520.069 454.746 519.719C454.956 519.699 455.176 519.679 455.346 519.559C455.536 519.419 453.826 518.749 453.896 518.519C457.306 507.989 459.636 489.169 460.706 478.159C462.946 455.149 467.726 432.759 476.306 411.509C484.876 391.439 489.726 366.029 466.446 365.649Z" fill="#14212A"/>
<path d="M468.826 392.909C468.866 392.919 468.906 392.919 468.946 392.929C470.056 393.109 471.166 393.269 472.276 393.409C473.096 393.509 473.916 393.599 474.736 393.669C475.006 393.699 475.276 393.719 475.546 393.739C476.236 393.799 476.916 393.849 477.606 393.879C477.996 393.899 478.386 393.919 478.766 393.929C479.066 393.939 479.376 393.959 479.676 393.969V393.959C484.906 394.119 490.156 393.769 495.306 392.859C494.536 383.569 492.506 374.619 487.106 367.039C484.436 363.279 480.056 360.399 475.606 360.749C472.356 360.999 469.846 362.779 467.976 365.319C467.566 365.869 467.216 366.509 466.906 367.189C456.376 366.949 451.726 377.559 449.386 386.509C451.756 387.949 454.366 389.049 456.926 389.939C460.786 391.299 464.786 392.249 468.826 392.909Z" fill="#091116"/>
<path d="M474.106 299.589C474.176 298.219 474.086 296.849 473.816 295.529C475.836 296.209 477.956 296.269 480.026 295.709C481.046 295.439 482.016 295.029 482.966 294.579C483.306 294.419 483.916 293.919 484.476 293.609C483.236 298.169 483.336 302.939 486.166 306.859C484.036 308.709 481.256 309.659 478.476 310.129C476.086 310.539 470.386 310.909 471.756 306.899C472.206 305.589 473.166 304.579 473.546 303.209C473.866 302.039 474.046 300.799 474.106 299.589Z" fill="#F7B699"/>
<path d="M479.636 295.789C477.696 296.239 475.716 296.159 473.816 295.519C474.086 296.849 474.176 298.209 474.106 299.579C474.046 300.799 473.876 302.029 473.546 303.199C473.516 303.319 473.466 303.439 473.426 303.559C473.666 303.529 473.896 303.489 474.136 303.439C476.826 301.639 478.676 298.869 479.636 295.789Z" fill="#C46E58"/>
<path d="M471.016 277.609C472.416 275.589 474.086 278.429 476.546 278.489C478.686 278.539 480.346 278.499 482.236 279.609C483.916 280.589 485.326 282.139 485.916 284.019C486.076 284.529 486.206 285.029 486.306 285.519C486.446 287.189 486.516 288.869 486.356 290.539C486.346 290.569 486.336 290.609 486.326 290.639C485.126 293.529 483.156 295.839 480.706 297.459C478.336 299.039 475.276 299.449 472.746 298.139C471.396 297.439 470.286 296.329 469.586 294.699C468.886 293.069 468.666 291.269 468.586 289.489C468.456 286.789 469.466 279.839 471.016 277.609Z" fill="#F7B699"/>
<path d="M473.786 282.299C471.866 282.579 470.306 282.879 468.546 281.849C467.206 281.069 466.186 279.779 465.736 278.299C465.606 277.849 465.536 277.409 465.486 276.949C465.466 276.739 465.516 275.909 465.446 275.819C466.056 276.679 467.376 276.719 468.306 276.229C469.236 275.739 469.896 274.869 470.616 274.089C472.296 272.269 474.476 270.879 476.876 270.269C479.276 269.659 481.906 269.869 484.116 271.009C485.496 271.719 486.696 272.809 487.536 274.119C487.946 274.769 488.296 275.489 488.496 276.229C488.586 276.579 488.856 278.379 488.416 278.539C489.096 278.289 489.886 278.639 490.346 279.199C490.806 279.759 490.986 280.499 491.106 281.209C491.466 283.449 491.156 286.309 490.216 288.389C489.476 290.019 488.696 291.819 487.786 293.369C486.996 294.719 485.896 295.939 484.486 296.629C482.706 297.499 480.636 297.429 478.656 297.319C476.836 297.219 475.446 296.569 474.696 294.819C474.356 294.029 474.246 293.059 474.186 292.209C474.166 291.839 473.986 289.269 474.296 289.119C473.926 289.309 473.536 289.509 473.116 289.539C472.696 289.569 472.236 289.399 472.056 289.019C471.886 288.669 471.996 288.249 472.106 287.869C472.676 286.009 473.226 284.159 473.786 282.299Z" fill="#273238"/>
<path d="M488.956 273.929C489.596 276.089 488.966 278.589 487.376 280.189" stroke="#485070" stroke-width="0.75" stroke-miterlimit="10" stroke-linecap="round"/>
<path d="M492.076 279.239C491.276 278.209 489.706 277.889 488.566 278.529" stroke="#485070" stroke-width="0.75" stroke-miterlimit="10" stroke-linecap="round"/>
<path d="M478.326 290.559C477.776 292.039 476.126 292.789 474.656 292.239C473.176 291.689 472.426 290.039 472.976 288.569C473.526 287.089 475.176 286.339 476.646 286.889C478.116 287.429 478.876 289.079 478.326 290.559Z" fill="#F7B699"/>
<path d="M476.596 288.609C476.226 288.419 475.756 288.429 475.396 288.639C475.036 288.849 474.796 289.259 474.796 289.669C475.106 289.539 475.486 289.629 475.716 289.869C475.946 290.109 476.006 290.499 475.866 290.799" stroke="#485070" stroke-width="0.75" stroke-miterlimit="10" stroke-linecap="round" stroke-linejoin="round"/>
<path d="M438.636 322.969C438.806 322.079 439.466 321.299 440.326 321.009C441.206 320.699 442.696 320.699 442.996 319.809C443.146 319.369 443.286 319.199 442.936 318.899C442.576 318.599 442.106 318.469 441.636 318.449C440.206 318.359 438.756 319.169 438.076 320.429C437.866 320.819 437.566 321.329 437.136 321.199C436.936 321.139 436.806 320.949 436.726 320.759C436.226 319.589 436.916 318.289 437.586 317.209C438.106 316.359 438.676 315.479 439.536 314.979C440.506 314.429 441.696 314.459 442.816 314.539C445.076 314.699 447.436 314.869 449.346 316.209C449.846 316.559 450.306 316.969 450.806 317.329C452.086 318.239 453.596 318.749 455.086 319.239C454.626 320.849 454.156 322.459 453.696 324.079C453.676 324.159 453.646 324.249 453.566 324.299C453.486 324.349 453.386 324.329 453.296 324.309C450.556 323.639 447.396 323.079 444.646 322.649C442.676 322.379 440.586 322.629 438.636 322.969Z" fill="#F7B699"/>
<path d="M453.706 315.639C451.196 318.789 449.846 322.849 449.976 326.879C451.736 327.579 453.496 328.279 455.256 328.989C455.866 326.199 456.466 323.409 457.076 320.629C457.256 319.789 458.006 318.009 457.526 317.319C457.016 316.569 454.556 316.009 453.706 315.639Z" fill="white"/>
<path d="M471.856 322.249C470.426 321.359 468.896 320.569 467.316 319.859C464.606 318.639 461.746 317.639 459.016 316.699C457.986 316.339 456.896 315.939 455.826 315.719C452.856 318.889 451.816 324.259 452.176 328.769C455.306 331.509 459.886 333.139 463.336 335.289C465.266 336.499 467.186 337.759 469.306 338.589C471.426 339.419 473.806 339.799 475.996 339.169C477.136 338.839 478.266 338.169 478.766 337.089C479.076 336.419 479.116 335.649 479.096 334.909C478.976 329.849 476.156 324.929 471.856 322.249Z" fill="#FF4917"/>
<path d="M420.296 339.839C419.126 337.749 418.846 335.139 419.716 332.909C420.036 332.079 420.576 331.259 421.416 330.989C422.426 330.669 423.546 331.279 424.186 332.129C424.826 332.979 425.126 334.029 425.536 335.009C425.976 336.069 426.556 337.079 427.256 337.989C427.986 338.939 428.866 339.859 429.076 341.029C429.246 341.959 428.926 342.969 428.246 343.639C425.736 346.109 421.516 341.999 420.296 339.839Z" fill="#F7B699"/>
<path d="M448.586 338.319L433.416 345.669L413.336 327.449L428.516 320.099L448.586 338.319Z" fill="#F4AE2D"/>
<path d="M446.106 337.559L433.076 343.879L415.726 328.129L428.766 321.819L446.106 337.559Z" fill="white"/>
<path d="M430.746 325.149L419.916 330.399L418.856 329.439L429.686 324.189L430.746 325.149Z" fill="#C8DDF7"/>
<path d="M436.276 330.169L425.446 335.419L424.386 334.459L435.216 329.209L436.276 330.169Z" fill="#C8DDF7"/>
<path d="M438.106 331.829L427.276 337.079L426.226 336.119L437.056 330.869L438.106 331.829Z" fill="#C8DDF7"/>
<path d="M439.946 333.499L429.116 338.749L428.056 337.789L438.886 332.539L439.946 333.499Z" fill="#C8DDF7"/>
<path d="M441.776 335.159L430.946 340.409L429.886 339.449L440.716 334.199L441.776 335.159Z" fill="#C8DDF7"/>
<path d="M443.606 336.819L432.776 342.069L431.716 341.109L442.556 335.859L443.606 336.819Z" fill="#C8DDF7"/>
<path d="M428.116 323.299L419.016 327.709L415.136 324.189L424.246 319.779L428.116 323.299Z" fill="#485070"/>
<path d="M421.866 338.169C421.716 338.349 421.576 338.529 421.456 338.729C420.306 340.569 422.526 342.289 423.946 343.279C427.156 345.539 431.076 346.619 434.796 347.699C436.896 348.309 442.976 346.809 441.296 343.509C440.146 341.259 436.756 339.959 434.526 339.359C432.206 338.929 430.226 337.959 429.356 335.609C428.966 334.569 428.816 333.449 428.476 332.389C428.396 332.129 428.296 331.859 428.086 331.679C427.886 331.499 427.546 331.429 427.336 331.599C427.216 331.699 427.156 331.849 427.096 331.989C426.446 333.799 427.616 335.139 425.376 336.209C424.636 336.559 423.826 336.759 423.106 337.149C422.646 337.419 422.216 337.769 421.866 338.169Z" fill="#F7B699"/>
<path d="M433.046 336.209C430.886 339.609 429.986 343.799 430.546 347.789C432.376 348.299 434.196 348.809 436.026 349.319C436.326 346.479 436.626 343.649 436.936 340.809C437.026 339.959 437.576 338.099 437.026 337.469C436.436 336.779 433.936 336.479 433.046 336.209Z" fill="white"/>
<path d="M470.586 303.169C471.656 302.209 473.206 302.029 474.636 301.889C478.346 301.539 482.046 301.199 485.756 300.849C486.456 303.329 487.156 305.809 487.856 308.289C487.826 308.189 475.836 308.659 474.686 308.629C473.486 308.589 469.576 308.979 469.076 307.859C468.526 306.599 469.666 303.989 470.586 303.169Z" fill="white"/>
<path d="M494.956 364.979C494.966 361.029 495.186 357.089 495.436 353.149C495.766 348.019 496.146 342.889 496.216 337.749C496.296 331.509 496.046 324.929 494.946 318.639C494.676 317.069 494.346 315.519 493.956 313.999C493.876 313.689 493.786 313.349 493.696 313.009C492.516 310.179 490.276 306.419 487.286 304.749C486.786 304.719 486.286 304.739 485.786 304.779C482.356 305.009 478.936 305.389 475.536 305.909C473.196 306.269 471.536 306.569 469.816 308.359C465.426 312.929 461.306 323.179 460.156 329.469C459.056 335.479 459.486 335.829 458.866 341.889C458.126 349.109 457.066 356.299 455.716 363.429C454.576 369.439 452.856 375.969 447.866 379.509C456.146 382.989 464.526 386.489 473.396 387.879C482.266 389.269 491.816 388.339 499.366 383.469C495.796 377.969 494.936 371.529 494.956 364.979Z" fill="#FF4917"/>
<path d="M474.476 324.309C474.136 323.649 473.716 322.999 473.096 322.589C472.436 322.149 471.606 322.029 470.816 322.069C467.346 322.219 464.596 325.059 462.746 327.999C460.896 330.939 459.466 334.259 456.816 336.509C452.206 340.449 441.096 337.229 435.936 336.079C432.006 339.919 431.586 344.369 433.626 349.549C440.546 352.589 455.106 359.799 462.656 356.199C465.286 354.949 467.246 352.769 468.866 350.299C469.796 348.869 470.616 347.349 471.386 345.849C473.106 342.489 474.756 339.049 475.546 335.359C476.346 331.669 476.216 327.669 474.476 324.309Z" fill="#FF4917"/>
<path d="M477.556 311.819C475.256 309.369 471.296 309.099 468.516 310.849C466.886 311.869 466.066 313.979 465.226 315.649C464.196 317.699 463.316 319.819 462.606 321.999C461.866 324.249 461.296 326.559 460.606 328.819C459.466 332.529 457.986 336.149 457.136 339.939C456.286 343.729 456.096 347.799 457.526 351.409C459.566 356.569 466.356 353.829 469.376 350.959C471.986 348.489 473.226 344.949 474.396 341.549C475.566 338.129 476.726 334.719 477.896 331.299C478.876 328.419 480.006 324.599 480.216 320.909C480.386 317.499 479.786 314.189 477.556 311.819Z" fill="#FF4917"/>
<path d="M434.806 326.089L433.016 327.059L433.926 325.239L444.716 314.069C444.946 313.829 445.336 313.819 445.586 314.049C445.826 314.279 445.836 314.669 445.606 314.919L434.806 326.089Z" fill="#485070"/>
</svg>
