<svg width="652" height="593" viewBox="0 0 652 593" fill="none" xmlns="http://www.w3.org/2000/svg">
<path fill-rule="evenodd" clip-rule="evenodd" d="M138.193 0.5C54.5949 59.521 0 156.885 0 267C0 447.045 145.955 593 326 593C506.045 593 652 447.045 652 267C652 156.885 597.405 59.521 513.807 0.5H138.193Z" fill="#FF4917"/>
<path d="M305.16 236.027C305.16 285.507 293.279 324.244 269.516 352.238C245.427 380.233 211.736 398.625 168.441 407.414L168.441 356.633C201.319 346.542 223.454 328.313 234.848 301.945C241.358 287.948 243.962 274.439 242.66 261.418L166 261.418L166 133L305.16 133L305.16 236.027ZM487.605 236.027C487.605 284.855 476.049 323.43 452.937 351.75C429.5 380.07 395.483 398.625 350.887 407.414L350.887 356.633C384.09 346.216 406.388 328.313 417.781 302.922C423.641 289.576 426.082 275.741 425.105 261.418L348.445 261.418L348.445 133L487.605 133L487.605 236.027Z" fill="white"/>
</svg>
