<svg width="533" height="851" viewBox="0 0 533 851" fill="none" xmlns="http://www.w3.org/2000/svg">
<mask id="path-1-inside-1_21_1398" fill="white">
<path fill-rule="evenodd" clip-rule="evenodd" d="M118 95C113.526 95 109.9 98.6265 109.9 103.1V104.9H108.1C103.626 104.9 100 108.526 100 113C100 117.474 103.626 121.1 108.1 121.1H109.9V122.9C109.9 127.374 113.526 131 118 131C122.474 131 126.1 127.374 126.1 122.9V121.1H127.9C132.374 121.1 136 117.474 136 113C136 108.526 132.374 104.9 127.9 104.9H126.1V103.1C126.1 98.6265 122.474 95 118 95Z"/>
</mask>
<path d="M109.9 104.9V107.9H112.9V104.9H109.9ZM109.9 121.1H112.9V118.1H109.9V121.1ZM126.1 121.1V118.1H123.1V121.1H126.1ZM126.1 104.9H123.1V107.9H126.1V104.9ZM112.9 103.1C112.9 100.283 115.183 98 118 98V92C111.87 92 106.9 96.9696 106.9 103.1H112.9ZM112.9 104.9V103.1H106.9V104.9H112.9ZM108.1 107.9H109.9V101.9H108.1V107.9ZM103 113C103 110.183 105.283 107.9 108.1 107.9V101.9C101.97 101.9 97 106.87 97 113H103ZM108.1 118.1C105.283 118.1 103 115.817 103 113H97C97 119.13 101.97 124.1 108.1 124.1V118.1ZM109.9 118.1H108.1V124.1H109.9V118.1ZM112.9 122.9V121.1H106.9V122.9H112.9ZM118 128C115.183 128 112.9 125.717 112.9 122.9H106.9C106.9 129.03 111.87 134 118 134V128ZM123.1 122.9C123.1 125.717 120.817 128 118 128V134C124.13 134 129.1 129.03 129.1 122.9H123.1ZM123.1 121.1V122.9H129.1V121.1H123.1ZM127.9 118.1H126.1V124.1H127.9V118.1ZM133 113C133 115.817 130.717 118.1 127.9 118.1V124.1C134.03 124.1 139 119.13 139 113H133ZM127.9 107.9C130.717 107.9 133 110.183 133 113H139C139 106.87 134.03 101.9 127.9 101.9V107.9ZM126.1 107.9H127.9V101.9H126.1V107.9ZM123.1 103.1V104.9H129.1V103.1H123.1ZM118 98C120.817 98 123.1 100.283 123.1 103.1H129.1C129.1 96.9696 124.13 92 118 92V98Z" fill="#FF4917" mask="url(#path-1-inside-1_21_1398)"/>
<mask id="path-3-inside-2_21_1398" fill="white">
<path fill-rule="evenodd" clip-rule="evenodd" d="M338.494 455.882C336.75 452.861 332.887 451.826 329.867 453.571L328.652 454.272L327.949 453.055C326.205 450.035 322.342 449 319.322 450.744C316.301 452.488 315.267 456.351 317.011 459.372L317.713 460.588L316.497 461.291C313.477 463.035 312.442 466.897 314.186 469.918C315.931 472.938 319.793 473.973 322.814 472.229L324.03 471.527L324.731 472.741C326.475 475.761 330.338 476.796 333.358 475.052C336.379 473.308 337.413 469.445 335.669 466.424L334.968 465.21L336.183 464.509C339.203 462.765 340.238 458.902 338.494 455.882Z"/>
</mask>
<path d="M329.867 453.571L330.867 455.303L329.867 453.571ZM328.652 454.272L326.92 455.272L327.92 457.004L329.652 456.004L328.652 454.272ZM327.949 453.055L326.217 454.055L326.217 454.055L327.949 453.055ZM317.011 459.372L318.743 458.372L317.011 459.372ZM317.713 460.588L318.714 462.32L320.446 461.32L319.445 459.588L317.713 460.588ZM316.497 461.291L317.498 463.023L316.497 461.291ZM322.814 472.229L323.814 473.961L322.814 472.229ZM324.03 471.527L325.762 470.527L324.762 468.795L323.03 469.795L324.03 471.527ZM335.669 466.424L337.401 465.424L337.401 465.424L335.669 466.424ZM334.968 465.21L333.968 463.478L332.236 464.479L333.236 466.211L334.968 465.21ZM336.183 464.509L337.183 466.241L336.183 464.509ZM330.867 455.303C332.931 454.111 335.57 454.818 336.762 456.882L340.226 454.882C337.929 450.904 332.844 449.542 328.866 451.839L330.867 455.303ZM329.652 456.004L330.867 455.303L328.866 451.839L327.652 452.54L329.652 456.004ZM326.217 454.055L326.92 455.272L330.384 453.272L329.681 452.055L326.217 454.055ZM320.322 452.476C322.386 451.284 325.025 451.991 326.217 454.055L329.681 452.055C327.385 448.078 322.299 446.716 318.322 449.012L320.322 452.476ZM318.743 458.372C317.551 456.308 318.258 453.668 320.322 452.476L318.322 449.012C314.345 451.309 312.982 456.395 315.279 460.372L318.743 458.372ZM319.445 459.588L318.743 458.372L315.279 460.372L315.981 461.589L319.445 459.588ZM317.498 463.023L318.714 462.32L316.713 458.856L315.497 459.559L317.498 463.023ZM315.918 468.918C314.727 466.854 315.434 464.214 317.498 463.023L315.497 459.559C311.52 461.855 310.158 466.941 312.454 470.918L315.918 468.918ZM321.814 470.497C319.75 471.689 317.11 470.982 315.918 468.918L312.454 470.918C314.751 474.895 319.837 476.257 323.814 473.961L321.814 470.497ZM323.03 469.795L321.814 470.497L323.814 473.961L325.03 473.259L323.03 469.795ZM326.463 471.741L325.762 470.527L322.298 472.527L322.999 473.741L326.463 471.741ZM332.358 473.32C330.294 474.512 327.655 473.805 326.463 471.741L322.999 473.741C325.295 477.718 330.381 479.08 334.358 476.784L332.358 473.32ZM333.937 467.425C335.129 469.489 334.422 472.128 332.358 473.32L334.358 476.784C338.335 474.487 339.698 469.401 337.401 465.424L333.937 467.425ZM333.236 466.211L333.937 467.425L337.401 465.424L336.7 464.21L333.236 466.211ZM335.183 462.777L333.968 463.478L335.968 466.942L337.183 466.241L335.183 462.777ZM336.762 456.882C337.954 458.946 337.247 461.585 335.183 462.777L337.183 466.241C341.16 463.944 342.522 458.859 340.226 454.882L336.762 456.882Z" fill="#FF4917" mask="url(#path-3-inside-2_21_1398)"/>
<path d="M314 64.4993L312.855 65.4682C312.859 65.4725 312.862 65.4769 312.866 65.4812L314 64.4993ZM356 7.99926L356.86 6.77041C356.824 6.74534 356.787 6.72184 356.75 6.69998L356 7.99926ZM394.5 194.5L393.132 193.884C393.13 193.89 393.127 193.896 393.124 193.902L394.5 194.5ZM203.5 298L203.279 296.516C203.258 296.52 203.237 296.523 203.216 296.527L203.5 298ZM90.5 462.5L89.1208 463.09C89.1233 463.096 89.1259 463.102 89.1285 463.107L90.5 462.5ZM95.3502 844.706C94.6961 844.198 93.7537 844.316 93.2454 844.97C92.737 845.624 92.8551 846.566 93.5092 847.075L95.3502 844.706ZM85.611 840.722C86.2476 841.252 87.1934 841.166 87.7235 840.529C88.2537 839.892 88.1673 838.946 87.5307 838.416L85.611 840.722ZM79.9006 831.832C79.2832 831.279 78.3349 831.332 77.7825 831.949C77.2301 832.567 77.2829 833.515 77.9003 834.067L79.9006 831.832ZM70.424 827.126C71.0205 827.701 71.97 827.684 72.545 827.087C73.1199 826.491 73.1025 825.541 72.506 824.966L70.424 827.126ZM65.3951 817.843C64.8213 817.245 63.8718 817.226 63.2742 817.8C62.6766 818.373 62.6573 819.323 63.231 819.921L65.3951 817.843ZM56.3359 812.445C56.8851 813.065 57.8331 813.123 58.4533 812.574C59.0735 812.024 59.131 811.076 58.5818 810.456L56.3359 812.445ZM52.083 802.803C51.5601 802.16 50.6154 802.063 49.9728 802.586C49.3302 803.109 49.2331 804.054 49.7559 804.696L52.083 802.803ZM43.5018 796.662C43.9964 797.327 44.9361 797.465 45.6007 796.97C46.2653 796.476 46.4032 795.536 45.9086 794.872L43.5018 796.662ZM40.078 786.661C39.6137 785.975 38.6811 785.795 37.995 786.259C37.309 786.724 37.1293 787.656 37.5936 788.342L40.078 786.661ZM32.0712 779.768C32.5036 780.475 33.427 780.697 34.1336 780.264C34.8402 779.832 35.0625 778.909 34.63 778.202L32.0712 779.768ZM29.5827 769.505C29.1838 768.779 28.2718 768.514 27.5458 768.913C26.8197 769.312 26.5545 770.224 26.9534 770.95L29.5827 769.505ZM22.258 761.901C22.6219 762.645 23.5202 762.953 24.2644 762.589C25.0086 762.225 25.317 761.327 24.953 760.583L22.258 761.901ZM20.7566 751.451C20.4289 750.69 19.5465 750.339 18.7856 750.667C18.0247 750.994 17.6735 751.877 18.0012 752.638L20.7566 751.451ZM14.1968 743.179C14.4872 743.955 15.3516 744.349 16.1275 744.058C16.9033 743.768 17.2968 742.904 17.0064 742.128L14.1968 743.179ZM13.713 732.634C13.4606 731.845 12.6163 731.41 11.8273 731.662C11.0383 731.915 10.6032 732.759 10.8557 733.548L13.713 732.634ZM7.98559 723.766C8.19953 724.567 9.02176 725.042 9.82208 724.828C10.6224 724.614 11.0978 723.792 10.8838 722.991L7.98559 723.766ZM8.52318 713.224C8.34795 712.414 7.54953 711.9 6.73984 712.075C5.93016 712.25 5.41583 713.049 5.59105 713.858L8.52318 713.224ZM3.67343 703.849C3.80995 704.666 4.58301 705.218 5.40011 705.081C6.21721 704.945 6.76893 704.172 6.63241 703.355L3.67343 703.849ZM5.2101 693.408C5.11206 692.585 4.36573 691.998 3.54312 692.096C2.72052 692.194 2.13314 692.94 2.23119 693.763L5.2101 693.408ZM1.26029 683.624C1.32025 684.451 2.03868 685.072 2.86493 685.012C3.69118 684.952 4.31238 684.233 4.25242 683.407L1.26029 683.624ZM3.75299 673.357C3.73064 672.529 3.04119 671.876 2.21306 671.898C1.38494 671.92 0.73173 672.61 0.754084 673.438L3.75299 673.357ZM0.707358 663.239C0.692697 664.067 1.35228 664.75 2.18058 664.765C3.00887 664.78 3.69223 664.12 3.70689 663.292L0.707358 663.239ZM4.10656 653.237C4.1576 652.411 3.52867 651.699 2.70182 651.648C1.87497 651.597 1.1633 652.226 1.11226 653.053L4.10656 653.237ZM1.96027 642.902C1.87347 643.726 2.47098 644.464 3.29485 644.551C4.11872 644.638 4.85696 644.04 4.94376 643.216L1.96027 642.902ZM6.21011 633.253C6.33214 632.434 5.76682 631.671 4.94743 631.549C4.12804 631.427 3.36487 631.992 3.24284 632.812L6.21011 633.253ZM4.96237 622.752C4.80529 623.565 5.33735 624.352 6.15075 624.509C6.96415 624.666 7.75087 624.134 7.90795 623.321L4.96237 622.752ZM10.0289 613.481C10.221 612.676 9.72341 611.867 8.91756 611.674C8.1117 611.482 7.30273 611.98 7.11066 612.786L10.0289 613.481ZM9.68367 602.952C9.45627 603.748 9.91771 604.578 10.7143 604.806C11.5109 605.033 12.341 604.572 12.5684 603.775L9.68367 602.952ZM15.5587 594.143C15.8228 593.358 15.4004 592.507 14.6152 592.243C13.83 591.979 12.9793 592.401 12.7153 593.187L15.5587 594.143ZM16.1971 583.618C15.8941 584.39 16.2736 585.26 17.0446 585.563C17.8156 585.866 18.6863 585.487 18.9893 584.716L16.1971 583.618ZM22.956 575.433C23.3065 574.683 22.9821 573.79 22.2315 573.439C21.4809 573.089 20.5883 573.413 20.2377 574.164L22.956 575.433ZM24.935 564.891C24.5383 565.619 24.8063 566.53 25.5335 566.927C26.2608 567.323 27.1719 567.055 27.5687 566.328L24.935 564.891ZM32.715 557.488C33.1508 556.783 32.9328 555.859 32.2282 555.423C31.5236 554.988 30.5992 555.205 30.1635 555.91L32.715 557.488ZM35.8431 547.214C35.3737 547.896 35.5465 548.83 36.2291 549.299C36.9117 549.769 37.8456 549.596 38.315 548.913L35.8431 547.214ZM44.3035 540.61C44.8027 539.949 44.6713 539.009 44.0102 538.509C43.349 538.01 42.4084 538.142 41.9092 538.803L44.3035 540.61ZM48.3314 530.656C47.8053 531.296 47.8977 532.241 48.5376 532.767C49.1776 533.293 50.1229 533.201 50.6489 532.561L48.3314 530.656ZM57.313 524.774C57.8639 524.155 57.8088 523.207 57.1901 522.656C56.5714 522.105 55.6232 522.16 55.0724 522.779L57.313 524.774ZM62.1148 515.17C61.5405 515.767 61.559 516.716 62.1561 517.291C62.7531 517.865 63.7027 517.846 64.277 517.249L62.1148 515.17ZM71.5223 509.999C72.119 509.425 72.137 508.475 71.5624 507.878C70.9878 507.282 70.0382 507.264 69.4414 507.838L71.5223 509.999ZM77.0522 500.791C76.4333 501.342 76.3782 502.29 76.9289 502.909C77.4797 503.528 78.4278 503.583 79.0467 503.032L77.0522 500.791ZM86.8351 496.379C87.476 495.854 87.5701 494.909 87.0453 494.268C86.5204 493.627 85.5753 493.533 84.9344 494.058L86.8351 496.379ZM93.1045 487.66C92.4409 488.156 92.3051 489.096 92.8011 489.759C93.2971 490.423 94.2371 490.559 94.9006 490.063L93.1045 487.66ZM103.249 484.13C103.936 483.668 104.118 482.735 103.655 482.048C103.192 481.361 102.26 481.179 101.573 481.642L103.249 484.13ZM110.348 476.076C109.636 476.5 109.402 477.42 109.825 478.132C110.248 478.844 111.169 479.078 111.881 478.655L110.348 476.076ZM120.816 473.732C121.556 473.358 121.851 472.456 121.477 471.717C121.103 470.977 120.201 470.682 119.461 471.056L120.816 473.732ZM128.955 466.726C128.187 467.036 127.815 467.91 128.125 468.679C128.435 469.447 129.309 469.818 130.078 469.508L128.955 466.726ZM139.672 466.223C140.471 466.002 140.939 465.176 140.718 464.377C140.497 463.579 139.67 463.111 138.872 463.332L139.672 466.223ZM149.211 461.297C148.388 461.387 147.793 462.127 147.883 462.95C147.972 463.774 148.713 464.369 149.536 464.279L149.211 461.297ZM159.863 464.266C160.687 464.351 161.424 463.751 161.508 462.927C161.593 462.103 160.993 461.366 160.169 461.282L159.863 464.266ZM171.231 463.808C170.455 463.516 169.59 463.908 169.299 464.683C169.007 465.459 169.399 466.324 170.174 466.615L171.231 463.808ZM179.206 471.84C179.838 472.376 180.785 472.299 181.321 471.667C181.857 471.036 181.779 470.089 181.148 469.553L179.206 471.84ZM188.255 478.638C187.893 477.893 186.995 477.583 186.25 477.946C185.505 478.309 185.195 479.206 185.558 479.951L188.255 478.638ZM187.94 489.935C187.952 490.764 188.634 491.425 189.462 491.413C190.29 491.4 190.952 490.718 190.939 489.89L187.94 489.935ZM188.657 501.213C188.986 500.453 188.637 499.569 187.877 499.24C187.116 498.911 186.233 499.26 185.904 500.02L188.657 501.213ZM180.008 508.537C179.418 509.118 179.411 510.068 179.992 510.658C180.573 511.248 181.523 511.255 182.113 510.674L180.008 508.537ZM172.76 517.245C173.503 516.878 173.808 515.979 173.441 515.236C173.074 514.493 172.175 514.188 171.432 514.555L172.76 517.245ZM161.658 517.933C160.848 518.11 160.335 518.909 160.512 519.719C160.689 520.528 161.488 521.041 162.298 520.864L161.658 517.933ZM151.601 521.86C152.429 521.888 153.122 521.239 153.15 520.411C153.178 519.583 152.529 518.89 151.701 518.862L151.601 521.86ZM141.828 517.257C141.033 517.023 140.199 517.478 139.966 518.273C139.732 519.068 140.187 519.901 140.982 520.135L141.828 517.257ZM131.107 515.975C131.832 516.375 132.745 516.112 133.145 515.387C133.545 514.661 133.282 513.749 132.556 513.349L131.107 515.975ZM124.159 507.677C123.513 507.159 122.569 507.262 122.05 507.909C121.532 508.555 121.636 509.499 122.282 510.017L124.159 507.677ZM114.49 502.832C115.063 503.431 116.012 503.452 116.611 502.88C117.21 502.308 117.232 501.358 116.66 500.759L114.49 502.832ZM109.987 492.979C109.48 492.324 108.537 492.205 107.883 492.712C107.228 493.22 107.108 494.162 107.616 494.817L109.987 492.979ZM101.529 486.224C101.98 486.919 102.909 487.116 103.604 486.665C104.298 486.214 104.496 485.285 104.045 484.59L101.529 486.224ZM98.7464 475.755C98.3447 475.03 97.4317 474.769 96.7072 475.17C95.9826 475.572 95.7209 476.485 96.1226 477.21L98.7464 475.755ZM91.3198 467.873C91.6765 468.621 92.5718 468.938 93.3195 468.581C94.0672 468.224 94.3841 467.329 94.0273 466.581L91.3198 467.873ZM89.9375 457.092C89.6444 456.317 88.7787 455.927 88.0038 456.22C87.229 456.513 86.8384 457.379 87.1315 458.153L89.9375 457.092ZM83.8424 448.131C84.0644 448.929 84.8914 449.396 85.6895 449.174C86.4876 448.952 86.9547 448.125 86.7327 447.327L83.8424 448.131ZM84.4572 437.279C84.3146 436.463 83.5375 435.917 82.7214 436.06C81.9053 436.202 81.3594 436.979 81.5019 437.796L84.4572 437.279ZM80.2215 427.281C80.2782 428.107 80.9942 428.731 81.8207 428.674C82.6471 428.618 83.2711 427.902 83.2144 427.075L80.2215 427.281ZM83.0647 416.812C83.0977 415.984 82.4534 415.286 81.6257 415.253C80.7979 415.22 80.1001 415.865 80.0671 416.693L83.0647 416.812ZM81.0707 406.135C80.9472 406.954 81.5111 407.718 82.3302 407.842C83.1494 407.965 83.9136 407.401 84.0372 406.582L81.0707 406.135ZM86.1182 396.526C86.3295 395.725 85.8515 394.904 85.0504 394.693C84.2494 394.482 83.4288 394.96 83.2174 395.761L86.1182 396.526ZM86.4549 385.674C86.1613 386.448 86.5512 387.314 87.3258 387.608C88.1004 387.902 88.9664 387.512 89.2601 386.737L86.4549 385.674ZM93.383 377.311C93.7517 376.569 93.4491 375.668 92.7072 375.3C91.9654 374.931 91.0651 375.234 90.6964 375.976L93.383 377.311ZM95.8399 366.735C95.4044 367.44 95.6227 368.364 96.3274 368.8C97.0321 369.235 97.9564 369.017 98.3919 368.312L95.8399 366.735ZM104.188 359.784C104.683 359.12 104.544 358.18 103.88 357.686C103.215 357.191 102.275 357.33 101.781 357.994L104.188 359.784ZM108.415 349.782C107.87 350.406 107.933 351.354 108.557 351.899C109.18 352.445 110.128 352.381 110.673 351.758L108.415 349.782ZM117.762 344.242C118.352 343.661 118.359 342.711 117.778 342.121C117.196 341.531 116.246 341.524 115.656 342.105L117.762 344.242ZM123.419 334.972C122.79 335.512 122.717 336.459 123.257 337.087C123.796 337.716 124.743 337.789 125.372 337.249L123.419 334.972ZM133.442 330.775C134.105 330.278 134.239 329.338 133.741 328.675C133.244 328.013 132.304 327.879 131.641 328.376L133.442 330.775ZM140.259 322.321C139.567 322.776 139.375 323.706 139.83 324.398C140.285 325.09 141.215 325.283 141.907 324.827L140.259 322.321ZM150.725 319.403C151.443 318.991 151.691 318.074 151.278 317.355C150.865 316.637 149.948 316.39 149.23 316.802L150.725 319.403ZM158.51 311.826C157.769 312.196 157.468 313.097 157.838 313.838C158.208 314.579 159.108 314.88 159.85 314.51L158.51 311.826ZM169.244 310.158C170.005 309.832 170.358 308.95 170.032 308.189C169.706 307.427 168.824 307.075 168.063 307.401L169.244 310.158ZM177.861 303.539C177.081 303.82 176.677 304.68 176.958 305.459C177.239 306.238 178.099 306.642 178.878 306.361L177.861 303.539ZM188.716 303.144C189.511 302.91 189.965 302.076 189.732 301.282C189.498 300.487 188.664 300.032 187.87 300.266L188.716 303.144ZM198.065 297.609C197.258 297.793 196.751 298.596 196.935 299.404C197.118 300.212 197.922 300.718 198.73 300.535L198.065 297.609ZM208.806 298.698C209.624 298.567 210.181 297.798 210.05 296.98C209.919 296.162 209.15 295.605 208.332 295.736L208.806 298.698ZM218.388 294.014C217.573 294.163 217.033 294.944 217.182 295.759C217.331 296.574 218.112 297.114 218.927 296.965L218.388 294.014ZM229.004 295.008C229.816 294.841 230.338 294.048 230.171 293.237C230.004 292.425 229.211 291.903 228.399 292.07L229.004 295.008ZM238.369 289.897C237.562 290.083 237.058 290.888 237.244 291.696C237.429 292.503 238.234 293.007 239.042 292.821L238.369 289.897ZM249.031 290.397C249.834 290.192 250.318 289.375 250.114 288.573C249.909 287.77 249.092 287.286 248.289 287.491L249.031 290.397ZM258.142 284.845C257.345 285.07 256.881 285.898 257.105 286.696C257.33 287.493 258.159 287.957 258.956 287.733L258.142 284.845ZM268.806 284.82C269.597 284.575 270.04 283.734 269.795 282.943C269.549 282.152 268.709 281.709 267.918 281.954L268.806 284.82ZM277.611 278.808C276.826 279.075 276.407 279.927 276.673 280.711C276.939 281.495 277.791 281.915 278.576 281.649L277.611 278.808ZM288.272 278.203C289.048 277.914 289.444 277.051 289.155 276.274C288.867 275.498 288.003 275.102 287.227 275.391L288.272 278.203ZM296.726 271.699C295.959 272.011 295.589 272.886 295.901 273.653C296.213 274.421 297.088 274.79 297.855 274.478L296.726 271.699ZM307.31 270.462C308.068 270.126 308.409 269.24 308.073 268.483C307.737 267.725 306.85 267.384 306.093 267.72L307.31 270.462ZM315.344 263.424C314.599 263.786 314.288 264.683 314.65 265.429C315.012 266.174 315.91 266.484 316.655 266.122L315.344 263.424ZM325.823 261.459C326.554 261.07 326.831 260.161 326.442 259.43C326.053 258.699 325.144 258.422 324.413 258.811L325.823 261.459ZM333.302 253.848C332.587 254.266 332.347 255.185 332.765 255.9C333.184 256.615 334.103 256.855 334.818 256.436L333.302 253.848ZM343.59 251.037C344.286 250.587 344.485 249.658 344.034 248.963C343.584 248.267 342.656 248.068 341.96 248.518L343.59 251.037ZM350.359 242.789C349.687 243.273 349.534 244.211 350.018 244.883C350.502 245.555 351.439 245.708 352.111 245.224L350.359 242.789ZM360.311 238.979C360.955 238.459 361.056 237.515 360.536 236.87C360.015 236.225 359.071 236.125 358.426 236.645L360.311 238.979ZM366.129 230.027C365.518 230.587 365.477 231.536 366.036 232.146C366.596 232.757 367.545 232.798 368.156 232.239L366.129 230.027ZM375.531 224.989C376.1 224.387 376.073 223.437 375.471 222.868C374.869 222.299 373.92 222.326 373.35 222.928L375.531 224.989ZM379.992 215.312C379.474 215.959 379.579 216.903 380.226 217.42C380.872 217.938 381.816 217.833 382.334 217.187L379.992 215.312ZM388.432 208.798C388.886 208.105 388.693 207.176 388 206.722C387.307 206.268 386.377 206.461 385.923 207.154L388.432 208.798ZM390.981 198.45C390.606 199.189 390.9 200.092 391.638 200.467C392.377 200.843 393.28 200.548 393.655 199.81L390.981 198.45ZM397.964 190.313C398.287 189.55 397.93 188.67 397.167 188.347C396.404 188.024 395.524 188.382 395.201 189.145L397.964 190.313ZM398.972 179.595C398.687 180.373 399.086 181.234 399.864 181.52C400.641 181.805 401.503 181.406 401.789 180.629L398.972 179.595ZM405.129 170.76C405.374 169.969 404.932 169.129 404.14 168.884C403.349 168.638 402.509 169.081 402.264 169.872L405.129 170.76ZM405.043 159.969C404.841 160.772 405.328 161.587 406.132 161.789C406.935 161.991 407.75 161.503 407.952 160.7L405.043 159.969ZM410.205 150.513C410.36 149.7 409.826 148.914 409.012 148.759C408.199 148.603 407.413 149.137 407.258 149.951L410.205 150.513ZM408.877 139.828C408.772 140.65 409.352 141.401 410.173 141.507C410.995 141.613 411.747 141.033 411.853 140.211L408.877 139.828ZM412.862 129.804C412.915 128.977 412.289 128.264 411.462 128.21C410.635 128.157 409.922 128.784 409.868 129.61L412.862 129.804ZM410.194 119.379C410.195 120.207 410.868 120.878 411.696 120.877C412.525 120.875 413.195 120.203 413.194 119.375L410.194 119.379ZM412.822 108.915C412.764 108.089 412.047 107.466 411.221 107.524C410.394 107.582 409.771 108.299 409.829 109.126L412.822 108.915ZM408.754 98.9454C408.87 99.7656 409.629 100.336 410.449 100.22C411.269 100.104 411.84 99.3446 411.724 98.5244L408.754 98.9454ZM409.882 88.226C409.707 87.4164 408.908 86.9022 408.099 87.0776C407.289 87.2531 406.775 88.0516 406.95 88.8612L409.882 88.226ZM404.415 78.9388C404.649 79.7333 405.484 80.187 406.278 79.9523C407.073 79.7175 407.526 78.8832 407.292 78.0887L404.415 78.9388ZM403.955 68.1788C403.662 67.4041 402.796 67.0142 402.021 67.3078C401.246 67.6015 400.856 68.4675 401.15 69.2421L403.955 68.1788ZM397.161 59.8134C397.513 60.5635 398.406 60.8866 399.156 60.5351C399.906 60.1835 400.229 59.2904 399.878 58.5403L397.161 59.8134ZM395.075 49.2382C394.667 48.5172 393.752 48.2635 393.031 48.6715C392.31 49.0795 392.056 49.9948 392.464 50.7157L395.075 49.2382ZM387.084 42.0105C387.546 42.6978 388.478 42.8799 389.166 42.4174C389.853 41.9548 390.035 41.0227 389.572 40.3354L387.084 42.0105ZM383.394 31.888C382.879 31.239 381.935 31.1304 381.286 31.6454C380.637 32.1603 380.529 33.1038 381.044 33.7528L383.394 31.888ZM374.373 25.9993C374.938 26.6052 375.887 26.6384 376.493 26.0734C377.099 25.5084 377.132 24.5593 376.567 23.9534L374.373 25.9993ZM369.121 16.592C368.509 16.0342 367.56 16.0785 367.002 16.691C366.444 17.3035 366.489 18.2522 367.101 18.81L369.121 16.592ZM359.262 12.2498C359.919 12.754 360.861 12.6299 361.365 11.9726C361.869 11.3152 361.745 10.3736 361.087 9.86945L359.262 12.2498ZM351.949 4.24376C351.193 3.90584 350.306 4.24506 349.968 5.00144C349.63 5.75781 349.969 6.64491 350.726 6.98283L351.949 4.24376ZM341.154 4.03158C341.971 4.16877 342.744 3.61769 342.881 2.8007C343.019 1.98371 342.468 1.2102 341.651 1.073L341.154 4.03158ZM330.785 0.936345C329.966 1.05959 329.402 1.8236 329.525 2.64281C329.648 3.46202 330.412 4.02621 331.231 3.90296L330.785 0.936345ZM321.867 7.01383C322.597 6.6219 322.871 5.71251 322.479 4.98266C322.087 4.25282 321.178 3.97889 320.448 4.37082L321.867 7.01383ZM311.851 11.0376C311.287 11.6444 311.321 12.5935 311.928 13.1575C312.535 13.7215 313.484 13.6868 314.048 13.08L311.851 11.0376ZM308.461 21.3131C308.82 20.5664 308.506 19.6702 307.759 19.3113C307.013 18.9524 306.117 19.2667 305.758 20.0133L308.461 21.3131ZM302.492 30.3269C302.354 31.1437 302.904 31.9179 303.721 32.056C304.538 32.1941 305.312 31.6439 305.45 30.827L302.492 30.3269ZM305.131 40.8225C305.047 39.9984 304.31 39.3988 303.486 39.4832C302.662 39.5676 302.062 40.3041 302.147 41.1283L305.131 40.8225ZM304.629 51.6309C304.921 52.4063 305.786 52.7986 306.561 52.5071C307.337 52.2155 307.729 51.3506 307.438 50.5751L304.629 51.6309ZM312.078 59.4924C311.614 58.8065 310.681 58.6271 309.995 59.0917C309.309 59.5563 309.13 60.489 309.595 61.1749L312.078 59.4924ZM316.274 69.3294C316.83 69.9435 317.778 69.9906 318.392 69.4346C319.007 68.8785 319.054 67.9299 318.498 67.3158L316.274 69.3294ZM325.452 74.6665C324.869 74.0772 323.919 74.0715 323.33 74.6538C322.741 75.2361 322.735 76.1858 323.318 76.7751L325.452 74.6665ZM330.675 83.9082C331.282 84.472 332.232 84.437 332.795 83.83C333.359 83.223 333.324 82.2739 332.717 81.7101L330.675 83.9082ZM340.275 88.4398C339.645 87.902 338.699 87.9768 338.161 88.6069C337.623 89.237 337.698 90.1838 338.328 90.7216L340.275 88.4398ZM346.254 97.2105C346.906 97.7221 347.849 97.6087 348.36 96.9571C348.872 96.3055 348.758 95.3626 348.107 94.851L346.254 97.2105ZM356.192 100.941C355.52 100.456 354.583 100.607 354.097 101.278C353.612 101.95 353.763 102.888 354.434 103.373L356.192 100.941ZM362.856 109.213C363.546 109.672 364.477 109.484 364.936 108.795C365.395 108.105 365.208 107.174 364.518 106.715L362.856 109.213ZM373.059 112.167C372.353 111.734 371.429 111.956 370.997 112.663C370.564 113.369 370.786 114.293 371.492 114.726L373.059 112.167ZM380.324 119.913C381.046 120.32 381.961 120.065 382.367 119.343C382.774 118.621 382.518 117.706 381.796 117.3L380.324 119.913ZM390.712 122.115C389.976 121.735 389.071 122.022 388.69 122.758C388.309 123.494 388.597 124.399 389.333 124.78L390.712 122.115ZM398.5 129.328C399.249 129.683 400.143 129.365 400.499 128.617C400.854 127.868 400.536 126.973 399.788 126.618L398.5 129.328ZM409.007 130.811C408.247 130.48 407.364 130.828 407.033 131.588C406.703 132.348 407.05 133.231 407.81 133.562L409.007 130.811ZM417.269 137.496C418.039 137.801 418.911 137.425 419.217 136.655C419.523 135.885 419.146 135.013 418.376 134.707L417.269 137.496ZM427.863 138.302C427.083 138.021 426.224 138.424 425.942 139.203C425.661 139.983 426.064 140.842 426.844 141.124L427.863 138.302ZM436.517 144.449C437.305 144.706 438.152 144.277 438.409 143.489C438.666 142.702 438.237 141.855 437.449 141.598L436.517 144.449ZM447.123 144.597C446.328 144.363 445.495 144.819 445.262 145.613C445.028 146.408 445.483 147.242 446.278 147.475L447.123 144.597ZM456.154 150.214C456.956 150.424 457.775 149.944 457.985 149.142C458.194 148.341 457.714 147.521 456.913 147.312L456.154 150.214ZM466.759 149.728C465.952 149.543 465.147 150.047 464.961 150.855C464.776 151.662 465.28 152.467 466.087 152.652L466.759 149.728ZM476.089 154.792C476.902 154.953 477.691 154.425 477.852 153.612C478.013 152.8 477.485 152.011 476.673 151.849L476.089 154.792ZM486.657 153.67C485.84 153.534 485.067 154.087 484.931 154.904C484.795 155.721 485.347 156.494 486.165 156.63L486.657 153.67ZM496.284 158.149C497.105 158.259 497.86 157.682 497.969 156.861C498.079 156.04 497.502 155.285 496.681 155.175L496.284 158.149ZM506.731 156.344C505.906 156.263 505.172 156.866 505.091 157.69C505.01 158.514 505.612 159.249 506.436 159.33L506.731 156.344ZM516.666 160.142C517.493 160.191 518.203 159.561 518.252 158.734C518.301 157.907 517.671 157.197 516.844 157.148L516.666 160.142ZM526.946 157.515C526.118 157.506 525.439 158.169 525.429 158.998C525.42 159.826 526.084 160.505 526.912 160.515L526.946 157.515ZM99.4008 847.801C98.0327 846.773 96.6826 845.742 95.3502 844.706L93.5092 847.075C94.8547 848.12 96.218 849.162 97.5992 850.199L99.4008 847.801ZM87.5307 838.416C84.9133 836.237 82.3704 834.041 79.9006 831.832L77.9003 834.067C80.3968 836.301 82.9665 838.52 85.611 840.722L87.5307 838.416ZM72.506 824.966C70.0573 822.606 67.6877 820.231 65.3951 817.843L63.231 819.921C65.5506 822.337 67.9476 824.739 70.424 827.126L72.506 824.966ZM58.5818 810.456C56.3335 807.917 54.168 805.366 52.083 802.803L49.7559 804.696C51.8674 807.291 54.06 809.875 56.3359 812.445L58.5818 810.456ZM45.9086 794.872C43.8791 792.144 41.9365 789.406 40.078 786.661L37.5936 788.342C39.4772 791.125 41.4457 793.899 43.5018 796.662L45.9086 794.872ZM34.63 778.202C32.8595 775.309 31.1782 772.409 29.5827 769.505L26.9534 770.95C28.5713 773.895 30.2762 776.835 32.0712 779.768L34.63 778.202ZM24.953 760.583C23.4652 757.54 22.0676 754.495 20.7566 751.451L18.0012 752.638C19.3312 755.726 20.7489 758.814 22.258 761.901L24.953 760.583ZM17.0064 742.128C15.8201 738.959 14.7237 735.793 13.713 732.634L10.8557 733.548C11.881 736.753 12.9933 739.964 14.1968 743.179L17.0064 742.128ZM10.8838 722.991C10.0104 719.724 9.22503 716.467 8.52318 713.224L5.59105 713.858C6.30294 717.148 7.09954 720.452 7.98559 723.766L10.8838 722.991ZM6.63241 703.355C6.0751 700.019 5.60273 696.702 5.2101 693.408L2.23119 693.763C2.62927 697.103 3.10825 700.466 3.67343 703.849L6.63241 703.355ZM4.25242 683.407C4.00708 680.027 3.84257 676.675 3.75299 673.357L0.754084 673.438C0.844861 676.801 1.01159 680.198 1.26029 683.624L4.25242 683.407ZM3.70689 663.292C3.76697 659.897 3.90245 656.544 4.10656 653.237L1.11226 653.053C0.905492 656.402 0.768237 659.799 0.707358 663.239L3.70689 663.292ZM4.94376 643.216C5.29992 639.836 5.72468 636.513 6.21011 633.253L3.24284 632.812C2.75121 636.113 2.32101 639.478 1.96027 642.902L4.94376 643.216ZM7.90795 623.321C8.5574 619.957 9.2677 616.675 10.0289 613.481L7.11066 612.786C6.33956 616.021 5.62012 619.346 4.96237 622.752L7.90795 623.321ZM12.5684 603.775C13.5199 600.442 14.5212 597.228 15.5587 594.143L12.7153 593.187C11.6629 596.316 10.6478 599.574 9.68367 602.952L12.5684 603.775ZM18.9893 584.716C19.6136 583.127 20.2449 581.583 20.8806 580.086L18.1194 578.914C17.4729 580.435 16.8313 582.004 16.1971 583.618L18.9893 584.716ZM20.8806 580.086C21.5381 578.539 22.2304 576.987 22.956 575.433L20.2377 574.164C19.4977 575.749 18.7911 577.332 18.1194 578.914L20.8806 580.086ZM27.5687 566.328C29.1789 563.376 30.8978 560.427 32.715 557.488L30.1635 555.91C28.3191 558.893 26.5726 561.89 24.935 564.891L27.5687 566.328ZM38.315 548.913C40.2334 546.124 42.2327 543.353 44.3035 540.61L41.9092 538.803C39.8126 541.58 37.7874 544.386 35.8431 547.214L38.315 548.913ZM50.6489 532.561C52.8133 529.928 55.0376 527.329 57.313 524.774L55.0724 522.779C52.7712 525.363 50.5213 527.992 48.3314 530.656L50.6489 532.561ZM64.277 517.249C66.6529 514.779 69.071 512.36 71.5223 509.999L69.4414 507.838C66.9624 510.225 64.5172 512.672 62.1148 515.17L64.277 517.249ZM79.0467 503.032C81.621 500.741 84.2204 498.52 86.8351 496.379L84.9344 494.058C82.2872 496.226 79.6565 498.473 77.0522 500.791L79.0467 503.032ZM94.9006 490.063C97.6816 487.984 100.468 486.003 103.249 484.13L101.573 481.642C98.7497 483.544 95.9231 485.553 93.1045 487.66L94.9006 490.063ZM111.881 478.655C114.887 476.869 117.87 475.224 120.816 473.732L119.461 471.056C116.451 472.58 113.408 474.258 110.348 476.076L111.881 478.655ZM130.078 469.508C133.357 468.185 136.563 467.084 139.672 466.223L138.872 463.332C135.641 464.226 132.328 465.365 128.955 466.726L130.078 469.508ZM149.536 464.279C151.237 464.094 152.893 464 154.5 464V461C152.776 461 151.012 461.101 149.211 461.297L149.536 464.279ZM154.5 464C156.368 464 158.155 464.091 159.863 464.266L160.169 461.282C158.355 461.096 156.466 461 154.5 461V464ZM170.174 466.615C173.725 467.952 176.733 469.741 179.206 471.84L181.148 469.553C178.398 467.219 175.087 465.259 171.231 463.808L170.174 466.615ZM185.558 479.951C187.091 483.101 187.887 486.501 187.94 489.935L190.939 489.89C190.88 486.02 189.983 482.187 188.255 478.638L185.558 479.951ZM185.904 500.02C184.588 503.059 182.628 505.956 180.008 508.537L182.113 510.674C185.001 507.828 187.184 504.613 188.657 501.213L185.904 500.02ZM171.432 514.555C169.905 515.309 168.267 515.988 166.519 516.579L167.481 519.421C169.35 518.789 171.11 518.06 172.76 517.245L171.432 514.555ZM166.519 516.579C164.879 517.134 163.258 517.583 161.658 517.933L162.298 520.864C164.01 520.49 165.738 520.01 167.481 519.421L166.519 516.579ZM151.701 518.862C148.321 518.749 145.029 518.197 141.828 517.257L140.982 520.135C144.415 521.143 147.957 521.739 151.601 521.86L151.701 518.862ZM132.556 513.349C129.67 511.756 126.869 509.851 124.159 507.677L122.282 510.017C125.111 512.287 128.055 514.291 131.107 515.975L132.556 513.349ZM116.66 500.759C114.35 498.341 112.124 495.736 109.987 492.979L107.616 494.817C109.81 497.647 112.102 500.332 114.49 502.832L116.66 500.759ZM104.045 484.59C102.192 481.738 100.425 478.783 98.7464 475.755L96.1226 477.21C97.8326 480.294 99.6357 483.309 101.529 486.224L104.045 484.59ZM94.0273 466.581C93.2858 465.027 92.567 463.463 91.8715 461.893L89.1285 463.107C89.8352 464.703 90.5658 466.293 91.3198 467.873L94.0273 466.581ZM91.8791 461.91C91.1894 460.298 90.5425 458.691 89.9375 457.092L87.1315 458.153C87.7518 459.793 88.4146 461.439 89.1208 463.09L91.8791 461.91ZM86.7327 447.327C85.7917 443.944 85.0362 440.594 84.4572 437.279L81.5019 437.796C82.0981 441.208 82.8755 444.654 83.8424 448.131L86.7327 447.327ZM83.2144 427.075C82.9765 423.61 82.9302 420.187 83.0647 416.812L80.0671 416.693C79.9283 420.176 79.9761 423.707 80.2215 427.281L83.2144 427.075ZM84.0372 406.582C84.5509 403.176 85.2484 399.823 86.1182 396.526L83.2174 395.761C82.3206 399.16 81.6009 402.619 81.0707 406.135L84.0372 406.582ZM89.2601 386.737C90.4751 383.532 91.8533 380.389 93.383 377.311L90.6964 375.976C89.1241 379.14 87.706 382.374 86.4549 385.674L89.2601 386.737ZM98.3919 368.312C100.191 365.4 102.127 362.557 104.188 359.784L101.781 357.994C99.6704 360.833 97.686 363.748 95.8399 366.735L98.3919 368.312ZM110.673 351.758C112.93 349.178 115.297 346.672 117.762 344.242L115.656 342.105C113.14 344.585 110.723 347.145 108.415 349.782L110.673 351.758ZM125.372 337.249C127.981 335.011 130.675 332.852 133.442 330.775L131.641 328.376C128.823 330.491 126.078 332.691 123.419 334.972L125.372 337.249ZM141.907 324.827C144.788 322.933 147.731 321.124 150.725 319.403L149.23 316.802C146.184 318.553 143.191 320.393 140.259 322.321L141.907 324.827ZM159.85 314.51C162.944 312.966 166.078 311.514 169.244 310.158L168.063 307.401C164.844 308.779 161.656 310.256 158.51 311.826L159.85 314.51ZM178.878 306.361C182.141 305.185 185.424 304.111 188.716 303.144L187.87 300.266C184.519 301.25 181.179 302.343 177.861 303.539L178.878 306.361ZM198.73 300.535C200.416 300.152 202.101 299.798 203.784 299.473L203.216 296.527C201.5 296.858 199.783 297.219 198.065 297.609L198.73 300.535ZM203.721 299.484C205.422 299.23 207.117 298.968 208.806 298.698L208.332 295.736C206.654 296.004 204.969 296.265 203.279 296.516L203.721 299.484ZM218.927 296.965C222.314 296.347 225.674 295.694 229.004 295.008L228.399 292.07C225.091 292.751 221.753 293.399 218.388 294.014L218.927 296.965ZM239.042 292.821C242.405 292.047 245.736 291.239 249.031 290.397L248.289 287.491C245.017 288.326 241.709 289.129 238.369 289.897L239.042 292.821ZM258.956 287.733C262.279 286.796 265.563 285.825 268.806 284.82L267.918 281.954C264.7 282.951 261.441 283.915 258.142 284.845L258.956 287.733ZM278.576 281.649C281.855 280.535 285.088 279.386 288.272 278.203L287.227 275.391C284.07 276.564 280.864 277.703 277.611 278.808L278.576 281.649ZM297.855 274.478C301.063 273.175 304.216 271.836 307.31 270.462L306.093 267.72C303.029 269.081 299.905 270.407 296.726 271.699L297.855 274.478ZM316.655 266.122C319.779 264.604 322.836 263.05 325.823 261.459L324.413 258.811C321.46 260.384 318.436 261.922 315.344 263.424L316.655 266.122ZM334.818 256.436C337.826 254.675 340.751 252.874 343.59 251.037L341.96 248.518C339.16 250.331 336.273 252.108 333.302 253.848L334.818 256.436ZM352.111 245.224C354.949 243.182 357.684 241.1 360.311 238.979L358.426 236.645C355.844 238.73 353.154 240.778 350.359 242.789L352.111 245.224ZM368.156 232.239C370.747 229.864 373.207 227.446 375.531 224.989L373.35 222.928C371.079 225.331 368.669 227.698 366.129 230.027L368.156 232.239ZM382.334 217.187C384.537 214.434 386.573 211.637 388.432 208.798L385.923 207.154C384.118 209.909 382.139 212.63 379.992 215.312L382.334 217.187ZM393.655 199.81C394.448 198.25 395.189 196.679 395.876 195.098L393.124 193.902C392.462 195.427 391.747 196.943 390.981 198.45L393.655 199.81ZM395.868 195.116C396.591 193.509 397.29 191.908 397.964 190.313L395.201 189.145C394.536 190.719 393.846 192.299 393.132 193.884L395.868 195.116ZM401.789 180.629C403.006 177.312 404.118 174.023 405.129 170.76L402.264 169.872C401.268 173.085 400.172 176.326 398.972 179.595L401.789 180.629ZM407.952 160.7C408.814 157.27 409.563 153.874 410.205 150.513L407.258 149.951C406.627 153.255 405.89 156.595 405.043 159.969L407.952 160.7ZM411.853 140.211C412.305 136.7 412.64 133.23 412.862 129.804L409.868 129.61C409.65 132.972 409.322 136.379 408.877 139.828L411.853 140.211ZM413.194 119.375C413.189 115.835 413.063 112.348 412.822 108.915L409.829 109.126C410.066 112.489 410.189 115.908 410.194 119.379L413.194 119.375ZM411.724 98.5244C411.228 95.0267 410.612 91.5929 409.882 88.226L406.95 88.8612C407.665 92.1573 408.268 95.5196 408.754 98.9454L411.724 98.5244ZM407.292 78.0887C406.292 74.7075 405.178 71.4031 403.955 68.1788L401.15 69.2421C402.346 72.3966 403.437 75.6299 404.415 78.9388L407.292 78.0887ZM399.878 58.5403C398.381 55.3472 396.777 52.2452 395.075 49.2382L392.464 50.7157C394.129 53.6564 395.697 56.6901 397.161 59.8134L399.878 58.5403ZM389.572 40.3354C387.604 37.4113 385.541 34.594 383.394 31.888L381.044 33.7528C383.143 36.3976 385.159 39.1516 387.084 42.0105L389.572 40.3354ZM376.567 23.9534C374.16 21.3725 371.674 18.9171 369.121 16.592L367.101 18.81C369.594 21.08 372.022 23.478 374.373 25.9993L376.567 23.9534ZM361.087 9.86945C359.693 8.79955 358.283 7.76631 356.86 6.77041L355.14 9.22811C356.527 10.1989 357.901 11.2063 359.262 12.2498L361.087 9.86945ZM356.75 6.69998C355.138 5.76999 353.536 4.95283 351.949 4.24376L350.726 6.98283C352.215 7.64826 353.724 8.41813 355.25 9.29854L356.75 6.69998ZM341.651 1.073C337.865 0.437354 334.224 0.418918 330.785 0.936345L331.231 3.90296C334.349 3.43389 337.672 3.44686 341.154 4.03158L341.651 1.073ZM320.448 4.37082C317.222 6.10342 314.333 8.36753 311.851 11.0376L314.048 13.08C316.315 10.6411 318.944 8.58373 321.867 7.01383L320.448 4.37082ZM305.758 20.0133C304.215 23.2231 303.106 26.6962 302.492 30.3269L305.45 30.827C306.017 27.4714 307.041 24.2676 308.461 21.3131L305.758 20.0133ZM302.147 41.1283C302.503 44.6103 303.316 48.1376 304.629 51.6309L307.438 50.5751C306.215 47.3237 305.461 44.0486 305.131 40.8225L302.147 41.1283ZM309.595 61.1749C310.58 62.6289 311.665 64.0621 312.855 65.4682L315.145 63.5304C314.023 62.2047 313.003 60.8567 312.078 59.4924L309.595 61.1749ZM312.866 65.4812C313.991 66.7806 315.127 68.0632 316.274 69.3294L318.498 67.3158C317.366 66.066 316.245 64.7999 315.134 63.5173L312.866 65.4812ZM323.318 76.7751C325.732 79.2191 328.186 81.5963 330.675 83.9082L332.717 81.7101C330.259 79.4269 327.836 77.0796 325.452 74.6665L323.318 76.7751ZM338.328 90.7216C340.939 92.9504 343.582 95.1128 346.254 97.2105L348.107 94.851C345.467 92.778 342.855 90.6416 340.275 88.4398L338.328 90.7216ZM354.434 103.373C357.218 105.385 360.027 107.331 362.856 109.213L364.518 106.715C361.72 104.854 358.943 102.93 356.192 100.941L354.434 103.373ZM371.492 114.726C374.421 116.519 377.367 118.247 380.324 119.913L381.796 117.3C378.87 115.651 375.956 113.941 373.059 112.167L371.492 114.726ZM389.333 124.78C392.383 126.359 395.44 127.874 398.5 129.328L399.788 126.618C396.758 125.179 393.731 123.678 390.712 122.115L389.333 124.78ZM407.81 133.562C410.968 134.936 414.123 136.246 417.269 137.496L418.376 134.707C415.259 133.47 412.134 132.171 409.007 130.811L407.81 133.562ZM426.844 141.124C430.086 142.294 433.312 143.402 436.517 144.449L437.449 141.598C434.273 140.56 431.075 139.462 427.863 138.302L426.844 141.124ZM446.278 147.475C449.604 148.452 452.898 149.364 456.154 150.214L456.913 147.312C453.685 146.468 450.42 145.564 447.123 144.597L446.278 147.475ZM466.087 152.652C469.477 153.431 472.814 154.143 476.089 154.792L476.673 151.849C473.426 151.206 470.119 150.5 466.759 149.728L466.087 152.652ZM486.165 156.63C489.628 157.206 493.005 157.711 496.284 158.149L496.681 155.175C493.434 154.741 490.089 154.241 486.657 153.67L486.165 156.63ZM506.436 159.33C510.003 159.682 513.42 159.95 516.666 160.142L516.844 157.148C513.637 156.958 510.26 156.692 506.731 156.344L506.436 159.33ZM526.912 160.515C528.693 160.535 530.4 160.529 532.028 160.499L531.972 157.5C530.376 157.529 528.699 157.535 526.946 157.515L526.912 160.515Z" fill="#C5C5C5"/>
</svg>
