<svg width="152" height="25" viewBox="0 0 152 25" fill="none" xmlns="http://www.w3.org/2000/svg">
<path d="M10.8617 24.42C8.92501 24.42 7.12835 24 5.47168 23.16C3.83835 22.2967 2.52001 21.0017 1.51668 19.275C0.513346 17.5483 0.0116798 15.39 0.0116798 12.8C0.0116798 10.8867 0.303347 9.195 0.88668 7.725C1.49335 6.23167 2.31001 4.97167 3.33668 3.945C4.38668 2.91833 5.56501 2.14833 6.87168 1.635C8.20168 1.09833 9.57835 0.829998 11.0017 0.829998C12.5183 0.829998 13.8717 1.13333 15.0617 1.74C16.275 2.32333 17.2783 3.02333 18.0717 3.84L14.9217 7.69C14.3617 7.2 13.7783 6.80333 13.1717 6.5C12.5883 6.17333 11.9117 6.01 11.1417 6.01C10.255 6.01 9.42668 6.27833 8.65668 6.815C7.91001 7.32833 7.30335 8.075 6.83668 9.055C6.39335 10.035 6.17168 11.2133 6.17168 12.59C6.17168 14.0133 6.37001 15.2267 6.76668 16.23C7.18668 17.21 7.75835 17.9567 8.48168 18.47C9.22835 18.9833 10.0917 19.24 11.0717 19.24C11.9583 19.24 12.74 19.0417 13.4167 18.645C14.1167 18.2483 14.7117 17.7933 15.2017 17.28L18.3517 21.06C17.395 22.18 16.275 23.02 14.9917 23.58C13.7083 24.14 12.3317 24.42 10.8617 24.42ZM29.6881 24.42C27.5881 24.42 25.7448 23.9533 24.1581 23.02C22.5715 22.0633 21.3348 20.6983 20.4481 18.925C19.5615 17.1517 19.1181 15.0167 19.1181 12.52C19.1181 10.0233 19.5615 7.91167 20.4481 6.185C21.3348 4.435 22.5715 3.105 24.1581 2.195C25.7448 1.285 27.5881 0.829998 29.6881 0.829998C31.7881 0.829998 33.6315 1.285 35.2181 2.195C36.8048 3.105 38.0415 4.435 38.9281 6.185C39.8148 7.91167 40.2581 10.0233 40.2581 12.52C40.2581 15.0167 39.8148 17.1517 38.9281 18.925C38.0415 20.6983 36.8048 22.0633 35.2181 23.02C33.6315 23.9533 31.7881 24.42 29.6881 24.42ZM29.6881 19.24C30.5981 19.24 31.3798 18.9717 32.0331 18.435C32.7098 17.875 33.2231 17.0933 33.5731 16.09C33.9231 15.0867 34.0981 13.8967 34.0981 12.52C34.0981 11.1433 33.9231 9.97667 33.5731 9.02C33.2231 8.04 32.7098 7.29333 32.0331 6.78C31.3798 6.26667 30.5981 6.01 29.6881 6.01C28.7781 6.01 27.9848 6.26667 27.3081 6.78C26.6548 7.29333 26.1531 8.04 25.8031 9.02C25.4531 9.97667 25.2781 11.1433 25.2781 12.52C25.2781 13.8967 25.4531 15.0867 25.8031 16.09C26.1531 17.0933 26.6548 17.875 27.3081 18.435C27.9848 18.9717 28.7781 19.24 29.6881 19.24ZM44.3315 24V1.25H50.7715L54.2015 10.56C54.4115 11.19 54.6099 11.8433 54.7965 12.52C54.9832 13.1967 55.1815 13.8733 55.3915 14.55H55.5315C55.7415 13.8733 55.9399 13.1967 56.1265 12.52C56.3132 11.8433 56.5115 11.19 56.7215 10.56L60.0115 1.25H66.4515V24H60.9915V17.28C60.9915 16.51 61.0382 15.6467 61.1315 14.69C61.2249 13.71 61.3299 12.73 61.4465 11.75C61.5632 10.77 61.6682 9.90667 61.7615 9.16H61.6215L59.7315 14.62L56.9315 22.145H53.7115L50.9115 14.62L49.0915 9.16H48.9515C49.0449 9.90667 49.1499 10.77 49.2665 11.75C49.3832 12.73 49.4882 13.71 49.5815 14.69C49.6749 15.6467 49.7215 16.51 49.7215 17.28V24H44.3315ZM71.5044 24V1.25H79.8344C81.491 1.25 83.0194 1.48333 84.4194 1.95C85.8194 2.41667 86.9394 3.19833 87.7794 4.295C88.6427 5.39167 89.0744 6.89667 89.0744 8.81C89.0744 10.6533 88.6427 12.17 87.7794 13.36C86.9394 14.5267 85.8194 15.39 84.4194 15.95C83.0427 16.51 81.561 16.79 79.9744 16.79H77.5244V24H71.5044ZM77.5244 12.03H79.6944C80.8844 12.03 81.7594 11.75 82.3194 11.19C82.9027 10.6067 83.1944 9.81333 83.1944 8.81C83.1944 7.78333 82.8794 7.06 82.2494 6.64C81.6194 6.22 80.721 6.01 79.5544 6.01H77.5244V12.03ZM88.1852 24L95.1152 1.25H102.395L109.325 24H102.955L100.365 12.94C100.085 11.8433 99.8052 10.6533 99.5252 9.37C99.2452 8.08667 98.9652 6.87333 98.6852 5.73H98.5452C98.3118 6.87333 98.0552 8.08667 97.7752 9.37C97.4952 10.6533 97.2152 11.8433 96.9352 12.94L94.3452 24H88.1852ZM93.1552 19.17V14.515H104.285V19.17H93.1552ZM111.495 24V1.25H117.655L122.695 11.4L124.865 16.51H125.005C124.865 15.2733 124.701 13.8733 124.515 12.31C124.328 10.7233 124.235 9.23 124.235 7.83V1.25H129.975V24H123.815L118.775 13.815L116.605 8.74H116.465C116.605 10.0233 116.768 11.4467 116.955 13.01C117.141 14.55 117.235 16.02 117.235 17.42V24H111.495ZM139 24V16.16L132.14 1.25H138.58L140.26 6.01C140.54 6.87333 140.82 7.71333 141.1 8.53C141.38 9.34667 141.672 10.1983 141.975 11.085H142.115C142.419 10.1983 142.71 9.34667 142.99 8.53C143.294 7.71333 143.597 6.87333 143.9 6.01L145.58 1.25H151.88L145.02 16.16V24H139Z" fill="#FF4917"/>
</svg>
