<svg width="64" height="70" viewBox="0 0 64 70" fill="none" xmlns="http://www.w3.org/2000/svg">
<path d="M9.42761 69.9981C8.2305 69.7041 7.0754 69.3121 6.12331 68.472C5.15023 67.6179 4.49217 66.5748 4.14914 65.3427C3.68709 63.6766 3.28106 61.9964 2.84002 60.3233C2.70701 59.8052 2.80501 59.3642 3.27406 59.0702C3.89011 58.6781 4.59018 59.0142 4.8212 59.8402C5.23423 61.3314 5.61927 62.8295 6.0043 64.3276C6.73937 67.1419 8.79055 68.381 11.6258 67.7299C13.53 67.2889 15.4412 66.8689 17.3523 66.4348C19.9776 65.8328 21.5807 63.0115 20.6566 60.5123C18.5984 54.9468 16.4982 49.3953 14.4191 43.8368C14.3771 43.7318 14.3351 43.6338 14.265 43.4658C12.7249 43.8998 11.2058 44.3338 9.67963 44.7679C8.45452 45.1179 7.22941 45.4609 6.0043 45.811C3.23905 46.616 1.99994 48.8002 2.71401 51.6005C3.01503 52.7696 3.31606 53.9317 3.61009 55.1078C3.79911 55.8709 3.52608 56.4239 2.91003 56.5709C2.33597 56.704 1.83893 56.3539 1.64991 55.6258C1.27888 54.1977 0.879842 52.7696 0.578815 51.3205C-0.0862445 48.1422 1.89493 44.8239 5.36025 43.8648C8.2305 43.0667 11.1148 42.3037 13.943 41.3796C15.2451 40.9525 16.4422 40.2035 17.6674 39.5524C17.8144 39.4754 17.8774 39.1254 17.8774 38.9013C17.8914 36.0521 17.8704 33.2028 17.8914 30.3606C17.9054 28.1414 19.0605 26.4402 21.0837 26.1182C22.6098 25.8802 24.2339 25.8802 25.7601 26.1182C27.7623 26.4332 28.9244 28.1344 28.9664 30.2976C28.9874 31.3407 28.9734 32.3908 28.9734 33.5669C29.5964 33.2378 30.1565 32.9928 30.6465 32.6568C30.8075 32.5448 30.8355 32.1737 30.8355 31.9217C30.8495 28.7994 30.8495 25.6772 30.8425 22.5549C30.8355 20.5457 31.5846 18.9706 33.4188 18.0185C35.722 16.8214 39.4393 17.4584 40.9234 19.2786C41.7285 20.2727 41.9455 21.4348 41.9455 22.6669C41.9455 29.4085 41.9455 36.1571 41.9455 42.8987C41.9455 43.1647 41.9455 43.4308 41.9455 43.6688C42.0505 43.7038 42.0716 43.7108 42.0926 43.7108C43.7937 43.5988 43.7937 43.5988 43.7937 41.9256C43.7937 32.1947 43.7937 22.4709 43.7937 12.74C43.7937 11.1088 44.2347 9.67372 45.5789 8.65162C46.0199 8.31559 46.545 7.98656 47.077 7.88155C48.9672 7.49652 50.8853 7.3005 52.6565 8.32259C53.9586 9.07166 54.7217 10.2408 54.8267 11.7529C54.9037 12.887 54.8897 14.0281 54.8757 15.1692C54.8687 15.9043 54.4767 16.2893 53.8606 16.2893C53.2516 16.2893 52.8735 15.8973 52.8525 15.1622C52.8245 14.2941 52.8525 13.4331 52.8385 12.565C52.8175 10.6818 51.8304 9.69472 49.9613 9.68772C49.3942 9.68772 48.8202 9.66672 48.2531 9.70172C47.063 9.76472 46.1039 10.6258 45.9009 11.8089C45.8589 12.0539 45.8379 12.306 45.8309 12.558C45.8309 22.4009 45.8309 32.2437 45.8309 42.0866C45.8309 42.1986 45.8449 42.3107 45.8589 42.5487C46.1949 42.3807 46.5099 42.2757 46.776 42.0936C48.6941 40.7495 50.6193 39.4054 52.5095 38.0193C52.7195 37.8653 52.8245 37.4382 52.8315 37.1372C52.8525 31.4877 52.8455 25.8382 52.8455 20.1887C52.8455 19.8946 52.8525 19.5936 52.9015 19.3066C52.9855 18.7745 53.3706 18.5085 53.8606 18.5085C54.3857 18.5085 54.7707 18.7885 54.8477 19.3556C54.8827 19.6216 54.8897 19.9016 54.8897 20.1747C54.8897 25.2571 54.8897 30.3326 54.8897 35.415C54.8897 35.6811 54.8897 35.9471 54.8897 36.1921C55.7648 35.8561 56.5419 35.45 57.3609 35.261C59.5801 34.757 61.5823 35.7231 62.6394 37.7042C63.7315 39.7414 63.4865 41.8766 61.7993 43.4518C60.3362 44.8169 58.7471 46.049 57.1999 47.3231C54.8407 49.2623 52.4885 51.2015 50.1083 53.1126C48.5891 54.3307 46.825 55.0448 44.9488 55.4998C37.8362 57.236 30.7165 58.9792 23.6039 60.7153C23.4079 60.7643 23.2189 60.8273 23.0788 60.8693C23.0018 61.8284 23.0368 62.7735 22.8338 63.6626C22.3228 65.9588 20.8806 67.5409 18.6334 68.185C16.2742 68.857 13.859 69.3191 11.4648 69.8721C11.3318 69.9001 11.2058 69.9561 11.0798 69.9981C10.5197 69.9981 9.97366 69.9981 9.42761 69.9981ZM22.2528 58.9301C22.4208 58.8951 22.5258 58.8741 22.6378 58.8531C29.5264 57.166 36.415 55.4648 43.3107 53.7987C45.3408 53.3086 47.322 52.7556 48.9742 51.4045C52.6425 48.4082 56.3038 45.3979 59.9582 42.3877C60.2382 42.1566 60.4762 41.8696 60.6722 41.5686C61.2533 40.6865 61.3793 39.7484 60.8752 38.7893C60.3502 37.7952 59.5381 37.1092 58.383 37.1862C57.697 37.2352 56.9409 37.4732 56.3738 37.8583C53.6926 39.6644 51.0604 41.5476 48.4211 43.4098C46.601 44.6979 44.6058 45.629 42.3866 45.748C39.3623 45.902 36.331 45.839 33.3068 45.832C32.2847 45.832 31.5776 45.2579 31.2556 44.3128C30.9335 43.3678 31.1716 42.5067 31.9276 41.8346C32.4877 41.3376 33.0827 40.8755 33.6708 40.3995C35.1899 39.1744 36.058 37.5572 36.464 35.6811C36.6951 34.603 36.065 33.6299 35.0079 33.3078C34.3289 33.0978 33.7548 33.3568 33.1878 33.6579C27.6993 36.5701 22.2178 39.4824 16.7293 42.3947C16.5543 42.4857 16.3862 42.6047 16.1832 42.7237C18.2064 48.1492 20.2226 53.5257 22.2528 58.9301ZM33.0757 43.5988C33.1037 43.6548 33.1317 43.7108 33.1598 43.7668C33.4048 43.7808 33.6498 43.8088 33.8948 43.8088C35.624 43.8158 37.3531 43.7878 39.0893 43.8298C39.7193 43.8438 39.8874 43.6618 39.8874 43.0317C39.8664 36.2271 39.8734 29.4155 39.8734 22.6109C39.8734 22.3869 39.8664 22.1558 39.8384 21.9318C39.6633 20.5387 38.6902 19.6356 37.2761 19.5726C36.8211 19.5516 36.366 19.5656 35.911 19.5656C33.8738 19.5726 32.8867 20.5457 32.8797 22.5759C32.8727 25.3061 32.8797 28.0434 32.8797 30.7736C32.8797 30.9906 32.9007 31.2077 32.9147 31.4597C33.2158 31.3897 33.4398 31.3407 33.6568 31.2917C36.422 30.6896 38.9983 33.0768 38.5012 35.8561C38.3192 36.8712 37.9482 37.8723 37.5351 38.8243C36.7441 40.6445 35.2319 41.8346 33.7198 43.0247C33.4818 43.1997 33.2858 43.4028 33.0757 43.5988ZM19.9496 38.2433C20.0406 38.2503 20.0896 38.2713 20.1246 38.2573C22.2948 37.1162 24.465 35.9751 26.6212 34.813C26.7612 34.736 26.8872 34.505 26.8942 34.3369C26.9152 32.9018 26.9432 31.4737 26.8872 30.0386C26.8382 28.8344 25.9561 28.0434 24.745 28.0154C23.9749 27.9944 23.1979 28.0084 22.4278 28.0084C20.6986 28.0154 19.9286 28.7784 19.9216 30.4936C19.9146 32.8808 19.9216 35.268 19.9216 37.6552C19.9146 37.8583 19.9356 38.0543 19.9496 38.2433Z" fill="#FF4917"/>
<path d="M20.1736 17.1253C20.0196 17.3353 19.8865 17.5803 19.6975 17.7764C15.0281 22.4878 10.3517 27.1852 5.68926 31.8966C4.73017 32.8697 3.67308 33.4508 2.27295 32.9957C0.039752 32.2747 -0.716317 29.7474 0.767817 27.9343C0.91483 27.7593 1.06884 27.5912 1.22986 27.4302C6.49433 22.1237 11.7518 16.8243 17.0163 11.5178C18.5774 9.94265 19.6835 9.77463 21.6647 10.7967C22.4908 11.2238 23.3168 11.6648 24.1569 12.0638C24.3249 12.1408 24.668 12.1268 24.794 12.0078C26.6982 10.2087 28.5743 8.38151 30.4575 6.56134C30.4995 6.51934 30.5135 6.44933 30.4785 6.53334C29.6944 6.19731 28.8193 6.00129 28.1753 5.51125C27.0762 4.66417 26.9782 3.40406 27.3842 2.15094C27.7973 0.89083 28.7493 0.0927584 30.0655 0.0577552C32.9987 -0.0192517 35.946 -0.0192517 38.8792 0.0577552C40.5174 0.099759 41.6375 1.31087 41.6585 2.94901C41.7005 5.81927 41.7005 8.68953 41.6655 11.5598C41.6445 13.1559 40.4544 14.36 38.8442 14.5631C37.2901 14.7521 36.1 13.94 35.638 12.3369C35.4909 11.8258 35.4279 11.2868 35.3089 10.6987C35.1059 10.8737 34.9239 11.0347 34.7489 11.1958C32.3687 13.485 29.9884 15.7812 27.6082 18.0634C26.1661 19.4495 24.983 19.6175 23.2188 18.7074C22.2598 18.2104 21.2937 17.7063 20.1736 17.1253ZM39.6423 7.2614C39.6423 7.2614 39.6353 7.2614 39.6423 7.2614C39.6423 5.89628 39.6493 4.53116 39.6353 3.15903C39.6283 2.39597 39.3063 2.06694 38.5502 2.06694C35.862 2.05294 33.1737 2.05294 30.4855 2.06694C29.7364 2.07394 29.2604 2.52898 29.2604 3.16604C29.2604 3.81009 29.7294 4.24413 30.4855 4.25813C31.3046 4.27213 32.1236 4.27213 32.9427 4.25813C33.4748 4.25113 33.9438 4.34914 34.1888 4.89519C34.4339 5.45524 34.1608 5.84728 33.7758 6.21831C31.0525 8.83655 28.3223 11.4548 25.6061 14.087C25.109 14.5701 24.598 14.6261 23.9959 14.311C22.8478 13.702 21.6927 13.1139 20.5446 12.5259C19.5295 12.0078 19.3965 12.0288 18.5914 12.8409C13.3129 18.1614 8.03447 23.4749 2.756 28.7953C2.60898 28.9424 2.46197 29.0824 2.33596 29.2434C1.92992 29.7754 1.96492 30.3635 2.40596 30.7835C2.826 31.1826 3.45606 31.1686 3.9391 30.7275C4.10712 30.5735 4.26113 30.4055 4.42215 30.2445C9.30159 25.33 14.174 20.4156 19.0535 15.5011C19.7605 14.7871 20.0336 14.7451 20.9156 15.1931C21.9867 15.7392 23.0578 16.2992 24.1289 16.8523C25.172 17.3913 25.375 17.3633 26.2221 16.5442C29.2954 13.59 32.3617 10.6427 35.4279 7.68844C35.82 7.31041 36.226 6.98138 36.8141 7.2474C37.3881 7.50643 37.4511 8.01747 37.4441 8.56352C37.4301 9.4316 37.4371 10.2927 37.4441 11.1608C37.4511 12.0148 37.8642 12.5259 38.5432 12.5189C39.2223 12.5189 39.6283 12.0148 39.6353 11.1538C39.6423 9.85864 39.6423 8.56352 39.6423 7.2614Z" fill="#FF4917"/>
<path d="M12.7319 65.382C10.4987 65.368 8.7135 63.5548 8.7345 61.3216C8.7555 59.1374 10.5617 57.3312 12.7529 57.3242C14.9441 57.3172 16.8062 59.1794 16.7992 61.3776C16.7852 63.5898 14.9511 65.396 12.7319 65.382ZM12.7669 63.3308C13.866 63.3238 14.762 62.4207 14.741 61.3286C14.72 60.2715 13.831 59.3824 12.7739 59.3684C11.6888 59.3544 10.7787 60.2575 10.7787 61.3496C10.7787 62.4627 11.6608 63.3378 12.7669 63.3308Z" fill="#FF4917"/>
</svg>
