<svg width="59" height="70" viewBox="0 0 59 70" fill="none" xmlns="http://www.w3.org/2000/svg">
<path d="M30.6941 0.0139975C31.345 0.321936 32.0588 0.538893 32.6397 0.95181C33.7805 1.77065 34.2914 2.9744 34.3124 4.37412C34.3194 4.71706 34.3124 5.05299 34.3124 5.4939C34.5993 5.4939 34.8443 5.4939 35.0822 5.4939C38.2176 5.4939 41.36 5.4939 44.4953 5.4939C46.8819 5.4939 48.2396 6.86563 48.2536 9.27314C48.2536 9.43411 48.2676 9.59508 48.2536 9.74905C48.1906 10.218 48.3726 10.4629 48.8205 10.6729C49.7443 11.0998 50.6191 11.6317 51.6689 12.2056C51.9978 11.8416 52.3618 11.3727 52.7817 10.9668C54.2374 9.53909 56.302 9.52509 57.6527 10.9108C58.9755 12.2615 58.9335 14.3261 57.5267 15.7468C53.5165 19.778 49.4993 23.8092 45.4682 27.8264C43.9775 29.3101 41.9898 29.3031 40.4991 27.8194C38.6585 25.9928 36.8249 24.1522 34.9982 22.3115C33.5565 20.8558 33.5005 18.7982 34.8583 17.4265C36.209 16.0548 38.2806 16.0898 39.7363 17.5175C40.8071 18.5673 41.8569 19.6451 42.8437 20.6319C45.1952 18.2733 47.5187 15.9498 49.8703 13.5913C48.6455 12.6605 47.1268 12.0376 45.4752 11.7716C38.8685 10.7219 33.0596 15.4109 32.6537 22.1086C32.2688 28.4773 37.8747 34.0132 44.2364 33.5583C49.9543 33.1454 54.1674 28.9182 54.5733 23.2074C54.6293 22.4025 55.0142 21.9826 55.6651 22.0106C56.302 22.0456 56.6799 22.5145 56.6169 23.3193C56.19 28.4423 53.6705 32.1656 49.0584 34.4191C48.4076 34.7341 48.2466 35.07 48.2466 35.7349C48.2676 45.7359 48.2326 55.7298 48.2816 65.7308C48.2956 67.8234 47.6167 69.3001 45.5731 70C31.289 70 17.0118 70 2.72771 70C1.41197 69.5451 0.390173 68.7892 0.0892327 67.3335C0.0262453 67.0256 0.00524895 66.7037 0.00524895 66.3887C-0.00174965 47.2965 -0.00174965 28.2114 0.00524895 9.11918C0.00524895 6.90062 1.41197 5.4939 3.63052 5.4939C5.7441 5.4869 7.85768 5.4869 9.97126 5.4939C10.7551 5.4939 11.21 5.90682 11.196 6.55769C11.175 7.15257 10.7481 7.53749 10.0412 7.53749C7.94866 7.54449 5.85608 7.53749 3.7635 7.54449C2.48975 7.54449 2.04884 7.9924 2.04884 9.28014C2.04884 28.2533 2.04884 47.2336 2.04884 66.2068C2.04884 67.5015 2.48275 67.9494 3.7565 67.9494C17.3338 67.9494 30.9041 67.9494 44.4814 67.9494C45.7341 67.9494 46.203 67.5085 46.203 66.2837C46.21 56.1918 46.203 46.0998 46.203 36.0078C46.203 35.8258 46.182 35.6509 46.168 35.4199C41.437 36.1618 37.3498 34.923 34.0674 31.4307C31.6389 28.8412 30.4912 25.6989 30.6101 22.1436C30.8761 14.1372 38.2736 8.20236 46.091 9.73505C46.462 8.34933 45.8741 7.54449 44.4883 7.54449C41.325 7.54449 38.1686 7.54449 35.0052 7.54449C34.8023 7.54449 34.6063 7.56549 34.3124 7.57948C34.3124 8.10438 34.3264 8.59428 34.3124 9.08418C34.2634 10.6309 33.3116 11.5967 31.7649 11.5967C26.6699 11.6107 21.5749 11.6107 16.487 11.5967C14.9263 11.5897 13.9395 10.5749 13.9325 9.0142C13.9255 7.55849 13.9255 6.09578 13.9325 4.64007C13.9395 2.28154 15.0452 0.80484 17.3058 0.111978C17.3688 0.0909824 17.4178 0.0419916 17.4738 0C21.8689 0.0139972 26.278 0.0139975 30.6941 0.0139975ZM24.1434 9.54609C26.5999 9.54609 29.0494 9.53209 31.5059 9.55309C32.0658 9.56009 32.2758 9.37113 32.2618 8.80424C32.2338 7.34853 32.2688 5.89282 32.2478 4.43711C32.2198 2.96041 31.31 2.07159 29.8333 2.06459C26.019 2.05759 22.1978 2.05759 18.3836 2.06459C16.8929 2.06459 15.9761 3.0024 15.9621 4.5071C15.9551 5.92082 15.99 7.32753 15.9481 8.74125C15.9271 9.38512 16.165 9.56709 16.7809 9.56009C19.2374 9.53209 21.6939 9.54609 24.1434 9.54609ZM43.0186 27.0006C43.4316 26.7207 43.8585 26.5177 44.1734 26.1958C48.0926 22.2905 51.9978 18.3783 55.9031 14.4591C56.05 14.3121 56.197 14.1722 56.309 14.0042C56.6729 13.4723 56.5959 12.7515 56.141 12.3175C55.6791 11.8696 54.9863 11.8136 54.4544 12.2126C54.2584 12.3595 54.0834 12.5485 53.9085 12.7235C50.5981 16.0408 47.2878 19.3581 43.9705 22.6755C43.1866 23.4593 42.7597 23.4593 41.9619 22.6685C40.7231 21.4297 39.4913 20.184 38.2456 18.9522C37.6157 18.3293 36.8599 18.3153 36.314 18.8682C35.7611 19.4211 35.7751 20.184 36.391 20.8138C38.2456 22.6895 40.1072 24.5581 41.9898 26.4127C42.2348 26.6507 42.5987 26.7696 43.0186 27.0006Z" fill="#FF4917"/>
<path d="M12.8407 41.6486C12.8407 43.9582 10.9721 45.8128 8.67654 45.7918C6.41599 45.7708 4.58936 43.9162 4.58936 41.6346C4.58936 39.3531 6.41599 37.5054 8.68354 37.4845C10.9791 37.4705 12.8477 39.3461 12.8407 41.6486ZM6.64694 41.6626C6.65394 42.8104 7.59175 43.7552 8.73253 43.7482C9.8733 43.7412 10.7971 42.7894 10.7971 41.6416C10.7901 40.4939 9.83831 39.542 8.71153 39.556C7.57076 39.556 6.63994 40.5078 6.64694 41.6626Z" fill="#FF4917"/>
<path d="M4.59631 29.0428C4.59631 26.7613 6.41595 24.9067 8.6835 24.8927C10.986 24.8787 12.8407 26.7263 12.8477 29.0358C12.8477 31.3454 10.979 33.214 8.69749 33.193C6.42295 33.172 4.59631 31.3244 4.59631 29.0428ZM10.7971 29.0568C10.8041 27.9021 9.88026 26.9572 8.73948 26.9432C7.59871 26.9362 6.6539 27.8671 6.6469 29.0218C6.6399 30.1766 7.56372 31.1284 8.70449 31.1424C9.83127 31.1564 10.7901 30.2046 10.7971 29.0568Z" fill="#FF4917"/>
<path d="M12.8407 54.1241C12.8337 56.4337 10.9861 58.2673 8.67652 58.2533C6.40897 58.2393 4.58933 56.3917 4.59633 54.1031C4.60333 51.8216 6.41597 49.988 8.69751 49.967C10.9931 49.946 12.8477 51.8076 12.8407 54.1241ZM10.7901 54.1171C10.7901 52.9624 9.87328 52.0246 8.72551 52.0246C7.58473 52.0176 6.64692 52.9554 6.64692 54.1101C6.63992 55.2649 7.56374 56.1957 8.71151 56.2027C9.86628 56.1957 10.7901 55.2789 10.7901 54.1171Z" fill="#FF4917"/>
<path d="M23.8775 38.2535C26.558 38.2535 29.2384 38.2395 31.9119 38.2675C32.2828 38.2745 32.7377 38.4215 32.9897 38.6734C33.4726 39.1563 33.1856 39.9962 32.5278 40.2131C32.2758 40.2971 31.9889 40.3041 31.7229 40.3041C26.432 40.3111 21.141 40.3111 15.8501 40.3041C15.7171 40.3041 15.5771 40.3111 15.4442 40.2971C14.7793 40.2341 14.3454 39.7932 14.3804 39.2053C14.4154 38.6384 14.8283 38.2605 15.4932 38.2605C18.2926 38.2465 21.085 38.2535 23.8775 38.2535Z" fill="#FF4917"/>
<path d="M23.8005 55.4754C26.502 55.4754 29.2034 55.4614 31.9049 55.4964C32.2758 55.5034 32.7307 55.6504 32.9897 55.9023C33.4726 56.3782 33.1926 57.2251 32.5348 57.442C32.2618 57.533 31.9539 57.54 31.6669 57.54C26.425 57.547 21.176 57.547 15.9341 57.547C15.7731 57.547 15.6121 57.554 15.4582 57.54C14.7933 57.484 14.3594 57.0361 14.3874 56.4552C14.4154 55.8883 14.8283 55.5034 15.4932 55.4964C17.9427 55.4824 20.3992 55.4894 22.8487 55.4894C23.1636 55.4754 23.4856 55.4754 23.8005 55.4754Z" fill="#FF4917"/>
<path d="M21.6169 50.718C23.6185 50.718 25.6201 50.718 27.6147 50.718C28.4195 50.718 28.8884 51.0889 28.9024 51.7118C28.9164 52.3626 28.4265 52.7685 27.5937 52.7685C23.6185 52.7755 19.6363 52.7755 15.6611 52.7685C14.8632 52.7685 14.3943 52.3836 14.3733 51.7607C14.3524 51.1029 14.8283 50.725 15.6751 50.718C17.6627 50.711 19.6363 50.718 21.6169 50.718Z" fill="#FF4917"/>
<path d="M21.6169 32.5936C19.6433 32.5936 17.6627 32.6006 15.6891 32.5936C14.8352 32.5936 14.3663 32.2087 14.3873 31.5508C14.4083 30.9279 14.8702 30.55 15.6751 30.55C19.6713 30.543 23.6745 30.55 27.6707 30.55C28.2516 30.55 28.7835 30.7389 28.8464 31.3408C28.8814 31.6908 28.6365 32.1387 28.3845 32.4256C28.2376 32.5936 27.8386 32.5866 27.5517 32.5866C25.5711 32.6006 23.5905 32.5936 21.6169 32.5936Z" fill="#FF4917"/>
<path d="M21.6169 27.8436C19.7063 27.8436 17.8027 27.8436 15.892 27.8436C15.6401 27.8436 15.3881 27.8436 15.1502 27.7876C14.6393 27.6686 14.3803 27.2977 14.3943 26.7938C14.4083 26.2899 14.6743 25.9329 15.1992 25.835C15.4441 25.793 15.6961 25.793 15.948 25.793C19.7413 25.793 23.5345 25.793 27.3278 25.793C27.4397 25.793 27.5517 25.793 27.6707 25.793C28.4615 25.821 28.9304 26.2129 28.9094 26.8428C28.8954 27.4516 28.4475 27.8226 27.6847 27.8436C27.0478 27.8576 26.4109 27.8436 25.7741 27.8436C24.3883 27.8436 23.0026 27.8436 21.6169 27.8436Z" fill="#FF4917"/>
<path d="M19.5593 45.0648C18.2646 45.0648 16.9698 45.0718 15.6751 45.0648C14.8632 45.0578 14.4013 44.6869 14.3873 44.064C14.3663 43.4131 14.8422 43.0072 15.6891 43.0072C18.2995 43.0002 20.917 43.0002 23.5275 43.0072C24.3393 43.0072 24.8012 43.3851 24.8152 44.008C24.8362 44.6589 24.3533 45.0578 23.5135 45.0648C22.1908 45.0718 20.875 45.0648 19.5593 45.0648Z" fill="#FF4917"/>
<path d="M9.99926 15.1867C11.07 15.1867 12.1338 15.1797 13.2046 15.1867C13.9955 15.1937 14.4574 15.5786 14.4574 16.2155C14.4574 16.8454 13.9885 17.2373 13.1976 17.2373C11.0631 17.2443 8.92848 17.2443 6.78691 17.2373C5.98907 17.2373 5.53416 16.8454 5.54116 16.2085C5.54116 15.5716 6.00306 15.1937 6.80091 15.1867C7.86469 15.1797 8.92848 15.1867 9.99926 15.1867Z" fill="#FF4917"/>
</svg>
