<svg width="70" height="70" viewBox="0 0 70 70" fill="none" xmlns="http://www.w3.org/2000/svg">
<path d="M5.59332 45.9945C5.59332 44.6014 5.59332 43.2433 5.59332 41.8083C3.71721 41.8083 1.87611 41.8083 0 41.8083C0 41.0382 0 40.3382 0 39.5681C0.69304 39.5681 1.40708 39.5681 2.21213 39.5681C2.21213 39.2181 2.20513 38.9451 2.21213 38.6721C2.24713 36.2079 2.11412 33.7228 2.36614 31.2796C2.82816 26.7434 6.31436 22.9142 10.7246 21.7731C10.8366 21.7451 10.9696 21.7451 11.0606 21.6821C11.2216 21.5771 11.4457 21.4581 11.4737 21.3111C11.4947 21.1711 11.3337 20.9401 11.1936 20.849C9.79356 19.967 9.07252 18.6999 8.94652 16.9638C8.58949 16.9638 8.22547 16.9708 7.86145 16.9638C5.41831 16.9148 3.86422 14.6047 4.71827 12.3156C4.82328 12.0355 4.84428 11.6715 4.76728 11.3845C3.27619 5.59517 7.51143 0.0648465 13.4968 0.0438453C15.3239 0.0368449 17.172 -0.0891633 18.9781 0.120849C23.3953 0.624878 26.5035 3.92207 26.9586 8.36732C26.9726 8.48633 26.9796 8.59834 26.9936 8.77335C32.2299 4.61511 37.4452 4.60111 42.6885 8.74535C42.7865 8.16431 42.8635 7.56928 42.9965 6.99525C43.9555 2.91401 47.5187 0.0578463 51.712 0.0508459C53.6791 0.0438455 55.6742 -0.0681618 57.6133 0.190853C62.9196 0.897894 66.2868 6.09919 64.9847 11.3075C64.9077 11.6225 64.9007 12.0075 65.0127 12.3086C65.8668 14.5977 64.3267 16.9148 61.8906 16.9708C61.5405 16.9778 61.1905 16.9708 60.8055 16.9708C60.6655 18.7069 59.9305 20.044 58.4324 20.919C58.3274 20.9821 58.2084 21.2341 58.2504 21.2971C58.3624 21.4651 58.5444 21.6191 58.7264 21.7031C59.9585 22.2561 61.3095 22.6271 62.4156 23.3622C65.7478 25.5883 67.4419 28.7945 67.5119 32.8127C67.5539 35.0179 67.5189 37.23 67.5189 39.5121C68.2609 39.5121 68.975 39.5121 69.731 39.5121C69.731 40.3032 69.731 41.0172 69.731 41.7803C67.8829 41.7803 66.0628 41.7803 64.1727 41.7803C64.1727 43.2083 64.1727 44.5804 64.1727 45.9945C63.3256 46.2605 62.5276 46.5195 61.7226 46.7575C61.3305 46.8695 61.1205 47.0586 61.0085 47.4926C60.3995 49.9217 59.4544 52.2179 58.1594 54.36C57.9283 54.738 57.9493 55.025 58.1594 55.389C58.5654 56.1031 58.9224 56.8381 59.3774 57.7202C56.8643 60.1703 54.3301 62.6415 51.754 65.1546C51.0259 64.7766 50.2699 64.3426 49.4859 63.9925C49.2408 63.8805 48.8348 63.8665 48.6108 63.9925C46.3847 65.2806 44.0395 66.2607 41.5544 66.9187C41.3374 66.9747 41.0994 67.2337 41.0154 67.4507C40.7073 68.2838 40.4623 69.1378 40.1893 69.9989C36.7241 69.9989 33.3009 70.0059 29.8777 69.9849C29.7167 69.9849 29.4787 69.7679 29.4227 69.5999C29.1637 68.8928 28.9957 68.1578 28.7227 67.4647C28.6317 67.2337 28.3656 66.9677 28.1276 66.9047C25.6705 66.2327 23.3393 65.2806 21.1342 63.9995C20.9102 63.8665 20.5042 63.8735 20.2592 63.9855C19.4681 64.3356 18.7191 64.7696 17.914 65.1896C15.8069 63.0685 13.7208 60.9684 11.6347 58.8752C10.3956 57.6292 10.3396 57.6012 11.2286 56.0891C11.7397 55.221 11.7537 54.563 11.2146 53.6809C10.0456 51.7768 9.27553 49.6697 8.7295 47.4996C8.6245 47.0726 8.42149 46.8695 8.02246 46.7505C7.21742 46.5195 6.41937 46.2535 5.59332 45.9945ZM4.34025 39.4841C10.1436 39.4841 15.7369 39.4841 21.3442 39.4841C21.4912 35.7529 23.0243 32.7637 25.8455 30.5026C25.3625 29.7746 24.8304 29.1305 24.4804 28.3955C24.1304 27.6674 23.9694 26.8484 23.7174 26.0713C23.6684 25.9243 23.5984 25.7493 23.4864 25.6583C22.5343 24.8883 21.4842 24.3142 20.2872 24.0132C19.4681 26.7994 18.18 28.1505 16.0729 28.2205C13.2238 28.3115 11.7187 26.6804 11.1726 24.0272C7.92446 24.9443 5.2783 27.4574 4.78828 30.7336C4.36125 33.5828 4.47326 36.523 4.34025 39.4841ZM14.7078 41.8153C15.1139 51.9448 23.8714 61.5144 35.8561 60.9334C47.9248 60.3453 54.9182 50.1037 55.0092 41.8153C53.5601 41.8153 52.118 41.8153 50.6059 41.8153C50.2209 45.9385 48.5828 49.4667 45.5376 52.2739C42.4714 55.102 38.8172 56.4951 34.645 56.4461C31.1798 56.4041 28.0576 55.312 25.3205 53.1909C21.6242 50.3207 19.6151 46.4915 19.1531 41.8223C17.655 41.8153 16.2059 41.8153 14.7078 41.8153ZM18.4321 62.3754C19.0061 62.0744 19.6431 61.7734 20.2452 61.4164C20.6512 61.1784 20.9592 61.1784 21.3792 61.4514C23.5214 62.8725 25.8175 64.0695 28.3376 64.5456C30.0037 64.8606 30.8298 65.6236 31.0328 67.2127C31.0888 67.6537 31.3408 67.7588 31.7608 67.7518C33.3079 67.7308 34.855 67.7448 36.4091 67.7378C37.1091 67.7378 37.9912 67.9618 38.4602 67.6187C38.9222 67.2827 39.0132 66.3797 39.1883 65.7006C39.3073 65.2176 39.5593 65.0216 40.0283 64.9306C42.4574 64.4406 44.7536 63.5725 46.9097 62.3544C47.5817 61.9764 48.2328 61.2624 48.9048 61.2484C49.6049 61.2344 50.3189 61.8924 51.0399 62.2144C51.201 62.2844 51.516 62.2704 51.628 62.1584C53.2871 60.5343 54.9252 58.8822 56.5913 57.2091C56.2272 56.5021 55.8492 55.8301 55.5342 55.13C55.4432 54.92 55.4292 54.57 55.5482 54.388C57.2773 51.6928 58.5024 48.7947 59.1744 45.6585C59.2234 45.4135 59.5314 45.1404 59.7764 45.0354C60.4625 44.7554 61.1905 44.5594 61.8696 44.3424C61.8696 43.4673 61.8696 42.6483 61.8696 41.8083C60.3575 41.8083 58.8874 41.8083 57.3613 41.8083C56.9693 47.5766 54.8132 52.5679 50.7179 56.6421C46.6017 60.7443 41.6034 62.9355 35.8141 63.1945C30.7528 63.4185 26.0975 62.0674 21.9743 59.1133C16.0729 54.878 12.9437 49.0397 12.3837 41.8223C10.8436 41.8223 9.37354 41.8223 7.85445 41.8223C7.85445 42.5643 7.82645 43.2643 7.87545 43.9574C7.88945 44.1394 8.11347 44.3774 8.29548 44.4544C8.86251 44.6784 9.46455 44.7974 10.0246 45.0424C10.2696 45.1544 10.5566 45.4345 10.6126 45.6865C11.2707 48.8017 12.4887 51.6788 14.2038 54.353C14.3298 54.549 14.3158 54.927 14.2178 55.151C13.9098 55.8511 13.5318 56.5231 13.2238 57.1321C14.9809 58.9102 16.682 60.6253 18.4321 62.3754ZM28.1346 16.9008C30.4168 17.3068 31.9918 16.2218 33.3429 14.6467C33.8119 14.1007 34.295 13.5686 34.806 12.9876C35.7931 13.9957 36.6121 14.8357 37.4382 15.6687C38.2292 16.4668 39.1953 16.9008 40.3223 16.9568C40.7353 16.9778 41.1554 16.9568 41.6384 16.9568C41.6384 19.1899 41.6314 21.3461 41.6384 23.5022C41.6454 25.2663 40.9384 26.6244 39.4543 27.5904C39.2933 27.6954 39.1043 27.9615 39.1393 28.1015C39.1813 28.2625 39.4333 28.4165 39.6293 28.4865C40.1963 28.6965 40.7984 28.8365 41.3514 29.0745C41.7224 29.2355 41.9464 29.1585 42.2054 28.8925C42.9755 28.1015 43.5075 27.1774 43.7525 26.0923C43.8015 25.8893 43.8645 25.6793 43.8645 25.4693C43.8365 22.1581 44.0395 18.8259 43.7175 15.5427C43.2765 10.9995 38.9712 7.70229 34.309 7.9543C29.8147 8.19932 26.0065 12.0565 25.9015 16.5508C25.8385 19.393 25.8665 22.2421 25.9015 25.0843C25.9155 26.4984 26.4965 27.7164 27.4486 28.7665C27.7986 29.1515 28.0996 29.2495 28.5896 28.9975C29.0377 28.7665 29.5697 28.6895 30.0527 28.5005C30.2837 28.4095 30.4728 28.2135 30.6758 28.0665C30.5288 27.8844 30.4098 27.6604 30.2277 27.5344C29.0307 26.7224 28.2326 25.6093 28.1766 24.1672C28.0716 21.7941 28.1346 19.421 28.1346 16.9008ZM65.2578 39.4981C65.2648 39.3581 65.2858 39.2461 65.2858 39.1341C65.2858 36.922 65.2998 34.7168 65.2718 32.5047C65.2578 31.1746 64.9077 29.9076 64.3057 28.7175C63.4517 27.0444 62.2196 25.7423 60.4695 24.7623C60.1125 28.2695 59.7694 31.6717 59.4054 35.2979C57.5083 33.3938 55.7792 31.6577 53.9311 29.8026C52.167 31.5737 50.4309 33.3168 48.6318 35.1229C48.2818 31.6647 47.9388 28.2695 47.6027 24.8743C47.5327 24.8393 47.4627 24.8113 47.3927 24.7763C46.9447 25.1893 46.2027 25.5393 46.0977 26.0363C45.7266 27.7164 45.0266 29.1725 43.8365 30.4536C46.7697 32.7847 48.2748 35.8159 48.4218 39.4981C54.0641 39.4981 59.6434 39.4981 65.2578 39.4981ZM39.4333 30.7896C38.5512 33.6318 37.2771 34.9409 35.156 34.9899C32.3349 35.0459 30.8508 33.4288 30.3187 30.7966C25.9855 31.9307 23.4444 36.2219 23.6964 39.4841C31.1658 39.4841 38.6282 39.4841 46.0977 39.4841C46.2517 35.6689 43.3605 31.8957 39.4333 30.7896ZM45.1666 10.1874C46.3987 10.1874 47.5677 10.1664 48.7368 10.1944C50.4589 10.2364 52.083 9.88641 53.6371 9.14437C53.8611 9.03936 54.2251 9.05337 54.4561 9.16537C55.9262 9.85141 57.4523 10.2154 59.0764 10.1944C60.3295 10.1804 61.5895 10.1944 62.8986 10.1944C62.9266 10.0754 62.9826 9.87241 63.0036 9.6694C63.3817 6.31621 60.9035 2.90001 57.5783 2.46598C55.6392 2.21397 53.6511 2.24897 51.691 2.33298C50.6689 2.37498 49.5909 2.648 48.6668 3.08202C45.9997 4.33509 44.4456 7.66028 45.1666 10.1874ZM24.5994 10.1874C24.6274 10.0684 24.6904 9.86541 24.7114 9.6624C25.0824 6.30221 22.6113 2.88601 19.2721 2.45898C17.312 2.20697 15.2959 2.29097 13.3078 2.30498C10.4586 2.32598 7.92446 4.23009 7.05641 6.93924C6.70639 8.03831 6.55938 9.16537 6.8744 10.2714C7.61644 10.2294 8.28848 10.1874 8.94652 10.1454C9.35954 6.81323 13.0348 5.73517 15.2749 8.06631C16.717 9.5644 18.6281 10.1734 20.7002 10.1874C21.9603 10.1944 23.2273 10.1874 24.5994 10.1874ZM20.2172 12.4486C17.529 12.2666 15.2819 11.2865 13.4058 9.46639C12.9998 9.07437 12.5307 8.93436 11.9917 9.17937C11.4667 9.41739 11.2286 9.84441 11.2286 10.4114C11.2286 12.6166 11.2076 14.8217 11.2356 17.0338C11.2496 18.2309 12.1947 19.183 13.3918 19.204C14.9599 19.239 16.535 19.239 18.103 19.204C19.2021 19.176 20.1682 18.3009 20.2102 17.2158C20.2662 15.6477 20.2172 14.0797 20.2172 12.4486ZM30.3747 19.1199C30.3747 20.751 30.3467 22.2981 30.3818 23.8452C30.4098 25.0073 31.3408 25.9523 32.4959 25.9803C34.085 26.0223 35.6811 26.0153 37.2701 25.9803C38.2852 25.9523 39.2443 25.1753 39.3073 24.1672C39.4053 22.4941 39.3353 20.807 39.3353 19.1059C37.4382 18.8049 36.1011 17.6569 34.869 16.2778C33.6089 17.7059 32.2579 18.7979 30.3747 19.1199ZM49.5279 12.6446C49.5279 14.0797 49.4859 15.6267 49.5419 17.1738C49.5839 18.2939 50.5499 19.183 51.691 19.204C53.2381 19.239 54.7852 19.232 56.3322 19.204C57.4173 19.183 58.4114 18.3919 58.4744 17.3348C58.5654 15.7248 58.5024 14.1077 58.5024 12.6516C57.0253 12.2596 55.6322 11.8885 54.2391 11.5315C54.0781 11.4895 53.8821 11.5315 53.7071 11.5735C52.349 11.9165 50.9979 12.2666 49.5279 12.6446ZM29.3177 41.8223C26.6785 41.8223 24.0814 41.8223 21.4282 41.8223C21.6873 44.6784 22.7163 47.1566 24.5504 49.3617C24.7534 49.1727 24.9284 49.0187 25.0894 48.8577C26.6015 47.3456 28.0926 45.8195 29.6257 44.3284C30.0457 43.9224 30.1577 43.6074 29.8147 43.0893C29.5837 42.7253 29.4927 42.2633 29.3177 41.8223ZM48.3168 41.8153C45.6356 41.8153 43.0385 41.8153 40.4413 41.8153C40.2453 42.3053 40.0983 42.8093 39.8463 43.2433C39.6153 43.6424 39.6573 43.8804 39.9863 44.2024C41.2814 45.4625 42.5555 46.7435 43.8225 48.0386C44.2565 48.4866 44.6346 48.9977 45.0756 49.5157C47.0217 47.1496 48.0508 44.6854 48.3168 41.8153ZM36.0241 54.136C38.9012 53.849 41.3794 52.8409 43.5775 50.9718C41.7644 49.1587 40.0143 47.3946 38.2432 45.6515C38.1312 45.5395 37.8582 45.4835 37.7112 45.5325C37.1441 45.7425 36.5981 46.0085 36.0241 46.2605C36.0241 48.8367 36.0241 51.4408 36.0241 54.136ZM26.0485 50.8878C28.4076 52.8269 30.8718 53.8699 33.7139 54.115C33.7139 51.4268 33.7139 48.8087 33.7139 46.2395C33.1679 46.0085 32.6499 45.8405 32.1809 45.5745C31.8308 45.3785 31.6488 45.4695 31.4038 45.7215C30.0877 47.0586 28.7647 48.3956 27.4206 49.7117C27.0076 50.1247 26.5385 50.4748 26.0485 50.8878ZM13.6788 21.4931C13.6088 22.3121 13.4758 23.0962 13.4968 23.8802C13.5248 25.0353 14.5118 25.9453 15.6529 25.9873C16.787 26.0223 17.872 25.1753 17.942 24.0342C17.998 23.1942 17.844 22.3401 17.781 21.4931C16.3529 21.4931 15.1139 21.4931 13.6788 21.4931ZM32.8319 28.2695C32.7619 29.0675 32.6219 29.8516 32.6429 30.6286C32.6639 31.8117 33.6789 32.7427 34.848 32.7497C36.0171 32.7637 37.0601 31.8537 37.1021 30.6776C37.1301 29.8796 36.9831 29.0745 36.9201 28.2695C35.499 28.2695 34.232 28.2695 32.8319 28.2695ZM52.104 21.5001C51.838 22.3891 51.831 22.3891 52.307 23.1802C52.86 24.1112 53.4201 25.0353 54.0221 26.0503C54.6661 24.9723 55.2052 24.0132 55.8142 23.0962C56.1642 22.5641 56.2272 22.0811 55.9122 21.5071C54.6662 21.5001 53.4061 21.5001 52.104 21.5001ZM23.5564 22.8232C23.5564 20.898 23.5564 18.9379 23.5564 16.9988C23.1783 16.9988 22.8563 16.9988 22.5133 16.9988C22.3873 18.6999 21.6452 20.009 20.1892 20.891C20.0702 20.9681 19.9652 21.1781 19.9722 21.3251C19.9722 21.4371 20.1402 21.5981 20.2592 21.6401C21.3512 22.0461 22.4503 22.4241 23.5564 22.8232ZM46.1677 22.8302C47.2947 22.4311 48.4218 22.0531 49.5209 21.6261C49.9059 21.4791 49.9829 21.1361 49.5839 20.898C48.0998 20.016 47.3577 18.6859 47.2247 17.0058C46.8397 17.0058 46.5037 17.0058 46.1607 17.0058C46.1677 19.0009 46.1677 20.9331 46.1677 22.8302ZM31.8098 41.8223C32.2019 43.2013 33.6229 44.1394 35.114 44.0344C36.4651 43.9364 37.7462 42.9143 37.9002 41.8223C35.8771 41.8223 33.847 41.8223 31.8098 41.8223ZM50.0529 23.8242C49.9549 23.8662 49.8639 23.9082 49.7659 23.9502C49.9689 26.0083 50.1789 28.0595 50.3819 30.1106C51.1169 29.3825 51.81 28.6965 52.545 27.9755C51.74 26.6244 50.8999 25.2243 50.0529 23.8242ZM57.6483 30.2156C57.8583 28.0315 58.0613 25.9663 58.2574 23.9082C58.1664 23.8802 58.0683 23.8592 57.9773 23.8312C57.1303 25.2383 56.2902 26.6454 55.4712 28.0035C56.2062 28.7455 56.8783 29.4245 57.6483 30.2156ZM8.93251 14.6817C8.93251 13.9256 8.93251 13.2116 8.93251 12.4626C8.19747 12.4836 7.38542 12.1895 6.9444 12.9666C6.76939 13.2816 6.76939 13.8696 6.9514 14.1847C7.39943 14.9547 8.20447 14.6677 8.93251 14.6817ZM60.7775 14.7097C61.5405 14.6467 62.3596 14.9687 62.8006 14.1847C62.9756 13.8696 62.9826 13.2816 62.8006 12.9666C62.3596 12.1895 61.5475 12.4836 60.7775 12.4626C60.7775 12.7286 60.7775 12.9596 60.7775 13.1836C60.7775 13.6736 60.7775 14.1567 60.7775 14.7097ZM23.8154 14.6747C23.8854 14.4297 23.9414 14.2477 23.9974 14.0727C24.4524 12.4626 24.3614 12.3506 22.6323 12.4696C22.5973 12.4696 22.5623 12.5186 22.4853 12.5746C22.4853 12.8966 22.4853 13.2466 22.4853 13.5896C22.4853 13.9536 22.4853 14.3177 22.4853 14.6747C22.9893 14.6747 23.3813 14.6747 23.8154 14.6747ZM47.2317 12.4696C46.7697 12.4696 46.3427 12.4206 45.9436 12.4906C45.7476 12.5256 45.4116 12.8056 45.4326 12.9176C45.5446 13.4916 45.6426 14.1077 45.9647 14.5697C46.1117 14.7797 46.7417 14.6607 47.1547 14.6817C47.1687 14.6817 47.1897 14.6537 47.2387 14.6117C47.2317 13.9396 47.2317 13.2466 47.2317 12.4696Z" fill="#FF4917"/>
</svg>
