<svg width="63" height="70" viewBox="0 0 63 70" fill="none" xmlns="http://www.w3.org/2000/svg">
<path d="M50.8691 0.00699949C52.1851 0.517999 52.7451 1.484 52.6471 2.884C52.5981 3.542 52.6401 4.207 52.6401 4.865C52.6401 6.762 52.0801 7.455 50.2181 7.819C50.2181 8.19 50.2181 8.568 50.2181 9.051C50.4631 9.051 50.7011 9.051 50.9391 9.051C53.5501 9.051 56.1681 9.044 58.7791 9.051C60.8791 9.058 62.3561 10.318 62.3981 12.418C62.5941 21.028 60.1301 28.588 53.4381 34.377C50.5331 36.89 47.1171 38.451 43.4491 39.494C43.1551 39.578 42.8471 39.711 42.6021 39.893C41.0131 41.062 39.3051 41.979 37.4571 42.658C37.2051 42.749 36.9531 42.966 36.8061 43.19C34.8881 46.207 34.5521 49.42 35.6581 52.801C35.8681 53.445 35.9451 54.32 36.4001 54.656C36.8551 54.985 37.7091 54.789 38.3811 54.796C41.2931 54.817 43.1061 56.609 43.1271 59.514C43.1341 60.102 43.1271 60.69 43.1271 61.376C44.2261 61.376 45.2621 61.376 46.2981 61.376C48.1461 61.376 48.7761 62.013 48.7831 63.889C48.7831 65.093 48.7481 66.304 48.7971 67.508C48.8461 68.684 48.4471 69.545 47.3271 70C36.5961 70 25.8581 70 15.1271 70C14.0071 69.538 13.6151 68.677 13.6571 67.508C13.7061 66.255 13.6641 65.002 13.6711 63.749C13.6781 62.062 14.3571 61.376 16.0161 61.369C17.0801 61.369 18.1511 61.369 19.3201 61.369C19.3201 60.76 19.3481 60.2 19.3131 59.64C19.1241 56.756 21.4061 54.586 24.1291 54.789C24.1501 54.789 24.1711 54.789 24.1991 54.789C24.8291 54.768 25.6271 54.964 26.0471 54.656C26.4741 54.341 26.5301 53.529 26.7331 52.927C27.8741 49.56 27.5871 46.333 25.6971 43.302C25.5011 42.987 25.1301 42.749 24.7941 42.567C23.2261 41.706 21.6441 40.873 20.0621 40.047C19.6071 39.809 19.1521 39.536 18.6621 39.389C12.9571 37.73 8.19711 34.699 4.77411 29.757C1.94611 25.676 0.504109 21.091 0.112109 16.17C0.00710934 14.854 -0.0488906 13.524 0.0561094 12.215C0.217109 10.262 1.62411 9.065 3.58411 9.058C6.19511 9.044 8.81311 9.058 11.4241 9.058C11.6691 9.058 11.9141 9.058 12.2081 9.058C12.2081 8.631 12.2081 8.253 12.2081 7.833C12.0331 7.791 11.8441 7.756 11.6481 7.707C10.5421 7.455 9.82811 6.615 9.80011 5.481C9.77911 4.613 9.84211 3.745 9.78611 2.884C9.69511 1.477 10.2481 0.511 11.5641 0.00699949C14.3361 0.00699949 17.1151 0.00699949 19.8871 0.00699949C20.3841 0.321999 20.7411 0.728 20.5241 1.358C20.3071 1.981 19.7821 2.065 19.1941 2.065C17.0101 2.051 14.8261 2.086 12.6491 2.044C11.9701 2.03 11.7741 2.254 11.8301 2.898C11.8791 3.535 11.8441 4.172 11.8441 4.809C11.8441 5.726 11.8441 5.726 12.7891 5.726C25.0601 5.726 37.3381 5.726 49.6091 5.726C49.6791 5.726 49.7491 5.719 49.8121 5.726C50.3931 5.81 50.6451 5.6 50.5961 4.977C50.5471 4.298 50.5401 3.605 50.5961 2.926C50.6521 2.247 50.4491 2.037 49.7351 2.037C41.4191 2.065 33.0961 2.051 24.7801 2.058C24.2061 2.058 23.6741 2.023 23.4221 1.393C23.1701 0.755999 23.5551 0.371 23.9751 0C32.9491 0.007 41.9091 0.00699949 50.8691 0.00699949ZM14.3011 7.805C14.3011 8.043 14.3011 8.204 14.3011 8.358C14.3011 13.825 14.2871 19.292 14.3151 24.759C14.3221 25.711 14.4201 26.67 14.5741 27.608C16.0861 37.051 25.7041 43.449 35.0071 41.209C42.7841 39.34 48.1041 32.627 48.1321 24.605C48.1531 19.208 48.1391 13.811 48.1321 8.407C48.1321 8.211 48.1111 8.015 48.0971 7.798C36.8271 7.805 25.6061 7.805 14.3011 7.805ZM50.2181 11.102C50.2181 12.054 50.2181 12.915 50.2181 13.839C50.4771 13.839 50.6941 13.839 50.9181 13.839C52.3951 13.839 53.8721 13.832 55.3491 13.839C56.8541 13.846 57.6871 14.728 57.5331 16.226C57.4351 17.22 57.2461 18.207 57.0571 19.187C56.9031 19.985 56.4341 20.342 55.8181 20.23C55.1811 20.111 54.9291 19.579 55.0761 18.732C55.2371 17.808 55.3841 16.877 55.5381 15.918C53.6901 15.918 51.9681 15.918 50.0641 15.918C50.0641 20.062 50.0641 24.171 50.0641 28.238C50.3511 27.93 50.7571 27.58 51.0511 27.153C51.8911 25.914 52.6961 24.654 53.4941 23.387C53.7601 22.967 54.1031 22.603 54.5791 22.764C54.9291 22.883 55.2721 23.247 55.4401 23.59C55.5451 23.8 55.3771 24.206 55.2441 24.479C53.8371 27.384 51.8211 29.778 49.1891 31.647C49.0071 31.773 48.8041 31.913 48.6991 32.102C47.9431 33.467 47.2081 34.846 46.4591 36.239C46.6271 36.169 46.8231 36.099 47.0191 36.008C57.1971 31.36 60.6761 21.364 60.3891 12.586C60.3541 11.585 59.8081 11.109 58.8001 11.109C56.5251 11.095 54.2501 11.109 51.9821 11.102C51.4081 11.102 50.8411 11.102 50.2181 11.102ZM46.6971 63.469C36.3441 63.469 26.0611 63.469 15.7571 63.469C15.7571 64.981 15.7571 66.444 15.7571 67.914C26.0891 67.914 36.3791 67.914 46.6971 67.914C46.6971 66.423 46.6971 64.974 46.6971 63.469ZM12.2361 11.102C11.9421 11.102 11.7181 11.102 11.4941 11.102C8.96711 11.102 6.44711 11.102 3.92011 11.102C2.53411 11.102 2.07211 11.543 2.03711 12.922C1.96711 15.442 2.23311 17.927 2.84211 20.37C4.59911 27.454 8.61011 32.739 15.2461 35.924C15.4981 36.043 15.7641 36.141 15.9951 36.239C15.2391 34.839 14.5041 33.46 13.7551 32.095C13.6711 31.948 13.5171 31.822 13.3701 31.724C8.01511 27.923 5.60011 22.512 4.90711 16.17C4.74611 14.721 5.61411 13.853 7.09111 13.846C8.56811 13.839 10.0451 13.846 11.5221 13.846C11.7601 13.846 11.9981 13.846 12.2431 13.846C12.2361 12.887 12.2361 12.047 12.2361 11.102ZM21.3851 61.334C27.9861 61.334 34.4961 61.334 41.0761 61.334C41.0761 60.704 41.0761 60.116 41.0761 59.528C41.0621 57.75 40.1661 56.854 38.3811 56.847C35.3361 56.84 32.2911 56.847 29.2461 56.847C27.4051 56.847 25.5641 56.833 23.7231 56.854C22.5051 56.868 21.5041 57.701 21.4061 58.835C21.3291 59.647 21.3851 60.473 21.3851 61.334ZM34.1601 54.768C33.4671 52.871 32.9631 51.037 32.9841 49.105C32.9981 47.159 33.4461 45.318 34.1951 43.603C32.1721 43.603 30.2121 43.603 28.2241 43.603C29.0011 45.318 29.4211 47.159 29.4491 49.091C29.4771 51.044 28.9521 52.892 28.2801 54.768C30.2751 54.768 32.1511 54.768 34.1601 54.768ZM12.3761 28.238C12.3761 24.178 12.3761 20.069 12.3761 15.932C10.4511 15.932 8.71511 15.932 6.91611 15.932C7.44811 20.692 9.01611 24.92 12.3761 28.238Z" fill="#FF4917"/>
<path d="M35.0981 32.3904C34.5801 32.1804 34.0551 31.9844 33.5511 31.7534C32.7531 31.3894 31.9621 30.7035 31.1711 30.6965C30.4011 30.6965 29.6451 31.4105 28.8611 31.7675C28.3921 31.9775 27.8951 32.2225 27.3981 32.2575C25.8231 32.3695 24.6331 31.0045 24.8781 29.4435C25.0111 28.6105 25.1441 27.7845 25.3121 26.9585C25.4031 26.5175 25.3331 26.1814 24.9761 25.8664C24.3811 25.3414 23.8351 24.7605 23.2611 24.2075C22.5051 23.4795 22.2111 22.6044 22.5331 21.6034C22.8411 20.6304 23.5481 20.0704 24.5631 19.9164C25.3961 19.7974 26.2361 19.7134 27.0481 19.5314C27.3491 19.4614 27.6921 19.2234 27.8531 18.9574C28.2521 18.2994 28.5671 17.5924 28.8961 16.8924C29.3581 15.8984 30.0721 15.2754 31.2061 15.2754C32.3681 15.2684 33.0961 15.9054 33.5651 16.9204C33.8801 17.5994 34.2441 18.2574 34.5451 18.9434C34.7271 19.3424 34.9861 19.5174 35.4201 19.5664C36.2741 19.6644 37.1281 19.8044 37.9821 19.9444C38.9481 20.0984 39.5991 20.6584 39.9071 21.5754C40.2221 22.5204 39.9981 23.3814 39.3051 24.0884C38.7031 24.7044 38.0871 25.3135 37.4501 25.8945C37.1211 26.1955 37.0441 26.5034 37.1281 26.9234C37.2961 27.7704 37.4431 28.6244 37.5691 29.4784C37.7931 30.9764 36.6521 32.2924 35.0981 32.3904ZM31.1501 28.4494C31.6401 28.6104 32.1021 28.7225 32.5291 28.9185C33.2851 29.2755 34.0131 29.7094 34.7691 30.0734C34.9511 30.1574 35.2591 30.2134 35.3781 30.1224C35.5041 30.0244 35.5181 29.7165 35.4901 29.5205C35.3711 28.7085 35.2311 27.9034 35.0841 27.0984C34.9091 26.1044 35.1401 25.2575 35.8891 24.5575C36.4841 23.9975 37.0791 23.4304 37.6391 22.8424C37.7931 22.6814 37.9681 22.3805 37.9121 22.2335C37.8491 22.0725 37.5341 21.9534 37.3101 21.9114C36.4631 21.7644 35.6091 21.6524 34.7551 21.5264C33.8521 21.3934 33.2221 20.8894 32.8301 20.0774C32.4941 19.3844 32.1651 18.6844 31.7941 18.0054C31.6541 17.7534 31.4021 17.5574 31.2061 17.3404C31.0241 17.5504 30.7931 17.7324 30.6671 17.9774C30.2891 18.6774 29.9531 19.3984 29.6031 20.1124C29.2111 20.8964 28.6021 21.3934 27.7271 21.5264C26.8521 21.6594 25.9771 21.7714 25.1021 21.9254C24.8851 21.9674 24.6191 22.1004 24.5141 22.2754C24.4581 22.3734 24.6401 22.6814 24.7801 22.8284C25.3471 23.4164 25.9351 23.9834 26.5371 24.5434C27.3071 25.2574 27.5521 26.1254 27.3631 27.1474C27.2231 27.9034 27.0831 28.6664 26.9851 29.4364C26.9501 29.6814 27.0481 29.9334 27.0831 30.1854C27.3351 30.1364 27.6081 30.1295 27.8321 30.0175C28.4691 29.7164 29.0711 29.3524 29.7081 29.0514C30.1561 28.8134 30.6461 28.6454 31.1501 28.4494Z" fill="#FF4917"/>
</svg>
