<svg width="20" height="17" viewBox="0 0 20 17" fill="none" xmlns="http://www.w3.org/2000/svg">
<path d="M8.65409 6.38256C8.65409 9.44781 7.9152 11.8476 6.43743 13.5819C4.93941 15.3161 2.84421 16.4555 0.151827 17L0.151827 13.8541C2.19642 13.2289 3.57298 12.0996 4.2815 10.4662C4.68637 9.59905 4.84832 8.76216 4.76734 7.95552L-7.90694e-07 7.95552L-1.48619e-06 1.74846e-06L8.65409 9.91891e-07L8.65409 6.38256ZM20 6.38256C20 9.40747 19.2814 11.7972 17.8441 13.5516C16.3865 15.3061 14.2711 16.4555 11.4977 17L11.4977 13.8541C13.5626 13.2088 14.9492 12.0996 15.6578 10.5267C16.0222 9.69988 16.174 8.84282 16.1132 7.95552L11.3459 7.95552L11.3459 7.56565e-07L20 0L20 6.38256Z" fill="#FF4917"/>
</svg>
