<svg width="20" height="17" viewBox="0 0 20 17" fill="none" xmlns="http://www.w3.org/2000/svg">
<path d="M11.3459 10.6174C11.3459 7.55219 12.0848 5.15243 13.5626 3.41815C15.0606 1.68387 17.1558 0.544484 19.8482 0V3.14591C17.8036 3.77106 16.427 4.90036 15.7185 6.53381C15.3136 7.40095 15.1517 8.23784 15.2327 9.04448H20V17H11.3459V10.6174ZM0 10.6174C0 7.59253 0.718644 5.20285 2.15593 3.4484C3.61346 1.69395 5.72891 0.544484 8.50226 0V3.14591C6.43743 3.79122 5.05075 4.90036 4.34223 6.47331C3.97785 7.30012 3.82602 8.15718 3.88675 9.04448H8.65409V17H0V10.6174Z" fill="#FF4917"/>
</svg>
