<svg width="88" height="80" viewBox="0 0 88 80" fill="none" xmlns="http://www.w3.org/2000/svg">
<path d="M55.4691 29.0909C57.639 29.0909 59.7201 29.9529 61.2545 31.4873C62.7889 33.0217 63.6509 35.1028 63.6509 37.2727V59.9964C63.6509 65.3017 61.5434 70.3897 57.792 74.1411C54.0406 77.8925 48.9526 80 43.6473 80C38.342 80 33.254 77.8925 29.5026 74.1411C25.7512 70.3897 23.6436 65.3017 23.6436 59.9964V37.2727C23.6436 35.1028 24.5056 33.0217 26.04 31.4873C27.5744 29.9529 29.6555 29.0909 31.8255 29.0909H55.4691ZM55.4691 34.5455H31.8255C31.1021 34.5455 30.4084 34.8328 29.897 35.3443C29.3855 35.8557 29.0982 36.5494 29.0982 37.2727V59.9964C29.0982 63.855 30.631 67.5556 33.3595 70.2841C36.088 73.0126 39.7886 74.5455 43.6473 74.5455C47.5059 74.5455 51.2066 73.0126 53.935 70.2841C56.6635 67.5556 58.1964 63.855 58.1964 59.9964V37.2727C58.1964 36.5494 57.909 35.8557 57.3976 35.3443C56.8861 34.8328 56.1924 34.5455 55.4691 34.5455V34.5455ZM8.18182 29.0909H23.2945C21.8346 30.6109 20.8087 32.4945 20.3236 34.5455H8.18182C7.4585 34.5455 6.76481 34.8328 6.25335 35.3443C5.74188 35.8557 5.45455 36.5494 5.45455 37.2727V56.36C5.45406 58.1846 5.91106 59.9801 6.78374 61.5824C7.65642 63.1848 8.91692 64.5427 10.45 65.5321C11.983 66.5214 13.7396 67.1106 15.5592 67.2457C17.3787 67.3808 19.2031 67.0575 20.8655 66.3055C21.3491 68.0873 22.0436 69.7818 22.9164 71.3673C20.425 72.455 17.7019 72.9051 14.993 72.6769C12.2841 72.4486 9.67469 71.5492 7.40046 70.0599C5.12623 68.5705 3.25877 66.5382 1.96674 64.1463C0.674702 61.7545 -0.00122289 59.0785 1.66088e-06 56.36V37.2727C1.66088e-06 35.1028 0.862012 33.0217 2.3964 31.4873C3.93079 29.9529 6.01187 29.0909 8.18182 29.0909V29.0909ZM79.0909 29.0909C81.2609 29.0909 83.3419 29.9529 84.8763 31.4873C86.4107 33.0217 87.2727 35.1028 87.2727 37.2727V56.3636C87.2738 59.0806 86.5984 61.7551 85.3074 64.1457C84.0164 66.5363 82.1504 68.5679 79.8779 70.057C77.6054 71.5462 74.9979 72.4461 72.2906 72.6754C69.5833 72.9048 66.8616 72.4565 64.3709 71.3709L64.5745 71C65.3527 69.5236 65.9818 67.9564 66.4327 66.3127C68.0942 67.0603 69.9164 67.3799 71.733 67.2423C73.5497 67.1047 75.303 66.5143 76.8329 65.525C78.3627 64.5357 79.6205 63.179 80.4913 61.5787C81.3621 59.9784 81.8183 58.1855 81.8182 56.3636V37.2727C81.8182 36.55 81.5313 35.8569 81.0207 35.3455C80.51 34.8342 79.8172 34.5464 79.0945 34.5455H66.9745C66.4886 32.494 65.4614 30.6104 64 29.0909H79.0945H79.0909ZM43.6364 0C45.3077 -3.52215e-08 46.9627 0.3292 48.5069 0.968806C50.051 1.60841 51.4541 2.5459 52.6359 3.72773C53.8177 4.90957 54.7552 6.31261 55.3948 7.85676C56.0344 9.4009 56.3636 11.0559 56.3636 12.7273C56.3636 14.3986 56.0344 16.0536 55.3948 17.5978C54.7552 19.1419 53.8177 20.545 52.6359 21.7268C51.4541 22.9087 50.051 23.8461 48.5069 24.4857C46.9627 25.1253 45.3077 25.4545 43.6364 25.4545C40.2609 25.4545 37.0237 24.1136 34.6368 21.7268C32.25 19.34 30.9091 16.1028 30.9091 12.7273C30.9091 9.35179 32.25 6.11456 34.6368 3.72773C37.0237 1.34091 40.2609 7.1133e-08 43.6364 0V0ZM72.7382 3.63636C74.1708 3.63636 75.5894 3.91854 76.9129 4.46677C78.2365 5.015 79.4391 5.81856 80.4521 6.83156C81.4651 7.84457 82.2686 9.04717 82.8169 10.3707C83.3651 11.6943 83.6473 13.1129 83.6473 14.5455C83.6473 15.9781 83.3651 17.3966 82.8169 18.7202C82.2686 20.0437 81.4651 21.2463 80.4521 22.2593C79.4391 23.2724 78.2365 24.0759 76.9129 24.6241C75.5894 25.1724 74.1708 25.4545 72.7382 25.4545C69.8449 25.4545 67.0701 24.3052 65.0243 22.2593C62.9784 20.2135 61.8291 17.4387 61.8291 14.5455C61.8291 11.6522 62.9784 8.87741 65.0243 6.83156C67.0701 4.78571 69.8449 3.63636 72.7382 3.63636V3.63636ZM14.5345 3.63636C15.9672 3.63636 17.3857 3.91854 18.7093 4.46677C20.0328 5.015 21.2354 5.81856 22.2484 6.83156C23.2614 7.84457 24.065 9.04717 24.6132 10.3707C25.1615 11.6943 25.4436 13.1129 25.4436 14.5455C25.4436 15.9781 25.1615 17.3966 24.6132 18.7202C24.065 20.0437 23.2614 21.2463 22.2484 22.2593C21.2354 23.2724 20.0328 24.0759 18.7093 24.6241C17.3857 25.1724 15.9672 25.4545 14.5345 25.4545C11.6413 25.4545 8.86651 24.3052 6.82066 22.2593C4.7748 20.2135 3.62546 17.4387 3.62546 14.5455C3.62546 11.6522 4.7748 8.87741 6.82066 6.83156C8.86651 4.78571 11.6413 3.63636 14.5345 3.63636V3.63636ZM43.6364 5.45455C41.7075 5.45455 39.8577 6.22078 38.4938 7.58468C37.1299 8.94858 36.3636 10.7984 36.3636 12.7273C36.3636 14.6561 37.1299 16.506 38.4938 17.8699C39.8577 19.2338 41.7075 20 43.6364 20C45.5652 20 47.4151 19.2338 48.779 17.8699C50.1429 16.506 50.9091 14.6561 50.9091 12.7273C50.9091 10.7984 50.1429 8.94858 48.779 7.58468C47.4151 6.22078 45.5652 5.45455 43.6364 5.45455V5.45455ZM72.7382 9.09091C72.0219 9.09091 71.3126 9.23199 70.6508 9.50611C69.989 9.78023 69.3877 10.182 68.8812 10.6885C68.3747 11.195 67.973 11.7963 67.6988 12.4581C67.4247 13.1199 67.2836 13.8292 67.2836 14.5455C67.2836 15.2618 67.4247 15.971 67.6988 16.6328C67.973 17.2946 68.3747 17.8959 68.8812 18.4024C69.3877 18.9089 69.989 19.3107 70.6508 19.5848C71.3126 19.8589 72.0219 20 72.7382 20C74.1848 20 75.5722 19.4253 76.5951 18.4024C77.6181 17.3795 78.1927 15.9921 78.1927 14.5455C78.1927 13.0988 77.6181 11.7114 76.5951 10.6885C75.5722 9.66558 74.1848 9.09091 72.7382 9.09091V9.09091ZM14.5345 9.09091C13.8182 9.09091 13.109 9.23199 12.4472 9.50611C11.7854 9.78023 11.1841 10.182 10.6776 10.6885C10.1711 11.195 9.76932 11.7963 9.4952 12.4581C9.22109 13.1199 9.08 13.8292 9.08 14.5455C9.08 15.2618 9.22109 15.971 9.4952 16.6328C9.76932 17.2946 10.1711 17.8959 10.6776 18.4024C11.1841 18.9089 11.7854 19.3107 12.4472 19.5848C13.109 19.8589 13.8182 20 14.5345 20C15.9812 20 17.3686 19.4253 18.3915 18.4024C19.4144 17.3795 19.9891 15.9921 19.9891 14.5455C19.9891 13.0988 19.4144 11.7114 18.3915 10.6885C17.3686 9.66558 15.9812 9.09091 14.5345 9.09091V9.09091Z" fill="#FF4917"/>
</svg>
