<svg width="81" height="86" viewBox="0 0 81 86" fill="none" xmlns="http://www.w3.org/2000/svg">
<path d="M78.2941 35.9412H73.5882M31.2353 83H50.0588H31.2353ZM40.6471 19.4706C45.425 19.4677 50.0635 21.0806 53.8088 24.0473C57.5541 27.014 60.1861 31.16 61.2771 35.8118C62.3681 40.4635 61.8539 45.3474 59.8181 49.67C57.7823 53.9925 54.3446 57.4995 50.0635 59.6212L50.0588 64.1765C50.0588 66.6726 49.0672 69.0665 47.3022 70.8316C45.5371 72.5966 43.1432 73.5882 40.6471 73.5882C38.1509 73.5882 35.757 72.5966 33.9919 70.8316C32.2269 69.0665 31.2353 66.6726 31.2353 64.1765V59.6212C26.9546 57.4997 23.5171 53.9931 21.4813 49.671C19.4454 45.349 18.9308 40.4655 20.0212 35.8141C21.1116 31.1626 23.7427 27.0165 27.4872 24.0495C31.2317 21.0824 35.8695 19.4687 40.6471 19.4706V19.4706ZM40.6471 7.70588V3V7.70588ZM64.1765 17.1176L68.8824 12.4118L64.1765 17.1176ZM17.1176 17.1176L12.4118 12.4118L17.1176 17.1176ZM64.1765 59.4706L68.8824 64.1765L64.1765 59.4706ZM17.1176 59.4706L12.4118 64.1765L17.1176 59.4706ZM7.70588 35.9412H3H7.70588Z" stroke="#FF4917" stroke-width="5" stroke-linecap="round" stroke-linejoin="round"/>
</svg>
