<svg width="80" height="80" viewBox="0 0 80 80" fill="none" xmlns="http://www.w3.org/2000/svg">
<path d="M79.81 16.5537C79.9996 17.0104 80.0495 17.5131 79.9533 17.9981C79.8572 18.4832 79.6194 18.9288 79.27 19.2787L69.27 29.2787C69.0374 29.5107 68.7614 29.6946 68.4577 29.8199C68.1539 29.9451 67.8285 30.0093 67.5 30.0087H53.535L46.77 36.7737C47.5326 38.3702 47.7062 40.1848 47.2602 41.897C46.8142 43.6091 45.7773 45.1084 44.3327 46.1299C42.8881 47.1514 41.129 47.6294 39.3661 47.4792C37.6032 47.3291 35.9502 46.5606 34.6991 45.3096C33.4481 44.0585 32.6796 42.4055 32.5295 40.6426C32.3793 38.8797 32.8573 37.1206 33.8788 35.676C34.9003 34.2314 36.3996 33.1945 38.1117 32.7485C39.8239 32.3025 41.6385 32.4761 43.235 33.2387L50 26.4737V12.5087C49.9994 12.1802 50.0636 11.8548 50.1888 11.551C50.3141 11.2473 50.498 10.9713 50.73 10.7387L60.73 0.738697C61.0797 0.388163 61.5255 0.149341 62.0111 0.0525073C62.4966 -0.0443266 63 0.00518883 63.4573 0.194776C63.9147 0.384364 64.3055 0.705486 64.5801 1.11743C64.8548 1.52938 65.0009 2.01359 65 2.5087V15.0087H77.5C77.9947 15.0088 78.4783 15.1556 78.8895 15.4307C79.3007 15.7057 79.621 16.0965 79.81 16.5537V16.5537ZM71.465 20.0087H62.5C61.837 20.0087 61.2011 19.7453 60.7322 19.2765C60.2634 18.8076 60 18.1717 60 17.5087V8.5437L55 13.5437V25.0087H66.465L71.465 20.0087ZM78.035 27.5837C79.31 31.4937 80 35.6737 80 40.0087C79.9982 48.4584 77.3206 56.6905 72.3512 63.5244C67.3819 70.3583 60.3761 75.4431 52.3384 78.0495C44.3007 80.6559 35.6441 80.65 27.61 78.0327C19.5759 75.4154 12.577 70.3212 7.6169 63.4805C2.65682 56.6398 -0.00959439 48.4041 2.5941e-05 39.9545C0.00964628 31.5048 2.69481 23.2752 7.67045 16.4458C12.6461 9.61644 19.6566 4.53814 27.6967 1.93916C35.7367 -0.659829 44.3933 -0.645986 52.425 1.9787L48.385 6.0187C40.963 4.18867 33.1459 4.83887 26.1281 7.86994C19.1104 10.901 13.278 16.1463 9.5221 22.8043C5.76619 29.4623 4.29331 37.1668 5.32853 44.7408C6.36374 52.3147 9.85012 59.3414 15.255 64.7473C20.6598 70.1532 27.6858 73.6409 35.2595 74.6776C42.8332 75.7143 50.5381 74.2429 57.1968 70.4883C63.8556 66.7337 69.102 60.9023 72.1344 53.8852C75.1669 46.8681 75.8186 39.0511 73.99 31.6287L78.035 27.5837V27.5837ZM64.5 35.0087C65.5738 40.274 64.9225 45.7452 62.6426 50.6113C60.3627 55.4774 56.5755 59.4793 51.8424 62.0239C47.1094 64.5685 41.6824 65.5203 36.3659 64.7383C31.0494 63.9562 26.1264 61.4819 22.3266 57.6821C18.5268 53.8823 16.0525 48.9593 15.2704 43.6428C14.4883 38.3263 15.4402 32.8993 17.9848 28.1663C20.5294 23.4332 24.5313 19.646 29.3974 17.3661C34.2635 15.0862 39.7347 14.4349 45 15.5087V20.6387C40.7524 19.5429 36.2622 19.874 32.2213 21.5811C28.1803 23.2881 24.8127 26.2763 22.6371 30.0855C20.4615 33.8947 19.5986 38.3136 20.1813 42.6614C20.764 47.0093 22.76 51.0449 25.8619 54.1468C28.9638 57.2487 32.9994 59.2447 37.3473 59.8274C41.6951 60.4101 46.114 59.5472 49.9232 57.3716C53.7324 55.196 56.7206 51.8284 58.4276 47.7874C60.1347 43.7465 60.4658 39.2563 59.37 35.0087H64.5Z" fill="#FF4917"/>
</svg>
