<svg width="498" height="761" viewBox="0 0 498 761" fill="none" xmlns="http://www.w3.org/2000/svg">
<path d="M0 81.2252L9.47831 95.7221L17.2939 80.2652L0 81.2252ZM204.5 88.7252L205.029 90.1289L204.5 88.7252ZM252 4.22517L252.704 2.90091L252 4.22517ZM180.5 185.225L179.158 185.896L179.175 185.93L179.194 185.964L180.5 185.225ZM341 468.227L341.781 469.508L341.877 469.449L341.964 469.376L341 468.227ZM379.5 475.727L380.779 474.943L380.746 474.89L380.709 474.839L379.5 475.727ZM294.831 757.384C294.089 757.754 293.788 758.655 294.158 759.396C294.527 760.137 295.428 760.439 296.169 760.069L294.831 757.384ZM3.5813 84.7165C4.32767 85.076 5.22414 84.7624 5.58362 84.016C5.9431 83.2696 5.62946 82.3732 4.88309 82.0137L3.5813 84.7165ZM13.5378 85.8456C12.7709 85.5322 11.8952 85.8998 11.5818 86.6667C11.2685 87.4336 11.6361 88.3093 12.4029 88.6227L13.5378 85.8456ZM21.4035 92.044C22.1845 92.3202 23.0416 91.911 23.3178 91.13C23.5941 90.349 23.1849 89.4919 22.4038 89.2156L21.4035 92.044ZM31.4082 92.1872C30.6164 91.9437 29.7771 92.3883 29.5336 93.1801C29.2901 93.972 29.7346 94.8112 30.5265 95.0547L31.4082 92.1872ZM39.7602 97.7C40.5608 97.9131 41.3825 97.4368 41.5956 96.6363C41.8087 95.8357 41.3324 95.014 40.5318 94.8009L39.7602 97.7ZM49.7678 97.0796C48.9601 96.8956 48.1561 97.4013 47.9722 98.2091C47.7883 99.0168 48.294 99.8207 49.1017 100.005L49.7678 97.0796ZM58.4883 101.97C59.302 102.125 60.0878 101.592 60.2434 100.778C60.399 99.9644 59.8655 99.1786 59.0519 99.023L58.4883 101.97ZM68.4203 100.648C67.6018 100.52 66.8348 101.081 66.7072 101.899C66.5796 102.718 67.1397 103.485 67.9583 103.612L68.4203 100.648ZM77.46 104.928C78.2824 105.028 79.0299 104.442 79.1296 103.62C79.2293 102.797 78.6434 102.05 77.821 101.95L77.46 104.928ZM87.2867 102.935C86.4614 102.863 85.7342 103.474 85.6625 104.299C85.5908 105.125 86.2017 105.852 87.027 105.924L87.2867 102.935ZM96.5905 106.591C97.4178 106.635 98.1238 105.999 98.1674 105.172C98.2111 104.345 97.5758 103.639 96.7485 103.595L96.5905 106.591ZM106.241 103.933C105.413 103.918 104.729 104.577 104.714 105.405C104.699 106.234 105.358 106.917 106.186 106.933L106.241 103.933ZM115.8 106.944C116.628 106.931 117.289 106.248 117.275 105.42C117.262 104.592 116.58 103.931 115.751 103.944L115.8 106.944ZM125.237 103.626C124.41 103.668 123.774 104.373 123.816 105.201C123.858 106.028 124.563 106.664 125.39 106.622L125.237 103.626ZM134.966 105.964C135.791 105.893 136.402 105.166 136.331 104.34C136.259 103.515 135.532 102.904 134.707 102.975L134.966 105.964ZM144.153 101.989C143.331 102.089 142.746 102.838 142.847 103.66C142.948 104.482 143.696 105.067 144.518 104.966L144.153 101.989ZM154.034 103.626C154.852 103.496 155.41 102.727 155.279 101.909C155.149 101.091 154.38 100.533 153.562 100.663L154.034 103.626ZM162.919 98.998C162.106 99.158 161.577 99.9466 161.737 100.759C161.897 101.572 162.686 102.102 163.498 101.942L162.919 98.998ZM172.88 99.9163C173.686 99.7266 174.186 98.9192 173.997 98.1128C173.807 97.3063 172.999 96.8063 172.193 96.9959L172.88 99.9163ZM181.389 94.6543C180.59 94.8735 180.121 95.6988 180.34 96.4977C180.559 97.2966 181.384 97.7666 182.183 97.5474L181.389 94.6543ZM191.395 94.8365C192.185 94.588 192.624 93.7458 192.376 92.9556C192.127 92.1653 191.285 91.7261 190.495 91.9747L191.395 94.8365ZM199.496 88.9598C198.716 89.2374 198.308 90.0951 198.586 90.8757C198.863 91.6562 199.721 92.0639 200.502 91.7864L199.496 88.9598ZM210.175 88.1454C210.945 87.8413 211.323 86.9701 211.019 86.1995C210.715 85.4289 209.844 85.0507 209.073 85.3548L210.175 88.1454ZM218.952 81.2597C218.192 81.591 217.845 82.4751 218.177 83.2344C218.508 83.9937 219.392 84.3407 220.151 84.0095L218.952 81.2597ZM229.954 79.482C230.698 79.1173 231.005 78.2187 230.641 77.4749C230.276 76.731 229.377 76.4235 228.634 76.7882L229.954 79.482ZM238.009 71.872C237.287 72.2785 237.031 73.1932 237.437 73.915C237.844 74.6369 238.759 74.8926 239.48 74.4861L238.009 71.872ZM248.817 68.7624C249.505 68.3006 249.688 67.3687 249.226 66.6809C248.765 65.9931 247.833 65.81 247.145 66.2718L248.817 68.7624ZM255.583 59.9443C254.951 60.4798 254.873 61.4263 255.408 62.0584C255.944 62.6904 256.89 62.7687 257.522 62.2332L255.583 59.9443ZM265.325 54.4754C265.855 53.8394 265.77 52.8935 265.134 52.3626C264.498 51.8318 263.552 51.9169 263.021 52.5529L265.325 54.4754ZM268.546 43.8967C268.21 44.6541 268.552 45.5402 269.309 45.8759C270.067 46.2116 270.953 45.8698 271.289 45.1125L268.546 43.8967ZM273.749 34.0846C273.753 33.2562 273.085 32.581 272.257 32.5766C271.428 32.5721 270.753 33.2401 270.749 34.0685L273.749 34.0846ZM268.644 24.2387C268.975 24.9983 269.859 25.3461 270.618 25.0155C271.378 24.6849 271.726 23.8011 271.395 23.0415L268.644 24.2387ZM265.397 13.6316C264.86 13.0007 263.914 12.9243 263.283 13.4612C262.652 13.998 262.575 14.9447 263.112 15.5756L265.397 13.6316ZM255.526 8.40807C256.184 8.91257 257.125 8.78886 257.63 8.13176C258.134 7.47467 258.01 6.53301 257.353 6.02851L255.526 8.40807ZM247.475 1.14431C246.663 0.983186 245.873 1.51132 245.712 2.32393C245.551 3.13654 246.079 3.9259 246.892 4.08702L247.475 1.14431ZM237.065 3.59795C237.892 3.54751 238.522 2.8363 238.471 2.00941C238.421 1.18252 237.71 0.553078 236.883 0.603509L237.065 3.59795ZM226.503 2.05813C225.692 2.23046 225.175 3.02704 225.347 3.83735C225.52 4.64765 226.316 5.16484 227.127 4.99251L226.503 2.05813ZM217.415 7.68246C218.199 7.41546 218.618 6.56328 218.351 5.77906C218.084 4.99484 217.232 4.57554 216.448 4.84254L217.415 7.68246ZM206.781 8.73847C206.03 9.08934 205.706 9.98213 206.057 10.7326C206.408 11.483 207.301 11.807 208.051 11.4561L206.781 8.73847ZM199.137 16.2254C199.846 15.7956 200.071 14.8731 199.642 14.1648C199.212 13.4566 198.289 13.2308 197.581 13.6606L199.137 16.2254ZM188.998 19.5353C188.342 20.0403 188.219 20.9821 188.724 21.6387C189.229 22.2954 190.171 22.4183 190.827 21.9132L188.998 19.5353ZM183.195 28.5081C183.79 27.9312 183.804 26.9816 183.227 26.387C182.65 25.7924 181.701 25.7781 181.106 26.355L183.195 28.5081ZM174.068 34.0388C173.546 34.6818 173.644 35.6265 174.287 36.1488C174.93 36.671 175.875 36.5731 176.397 35.93L174.068 34.0388ZM170.525 44.1245C170.966 43.4232 170.755 42.4972 170.053 42.0562C169.352 41.6152 168.426 41.8263 167.985 42.5276L170.525 44.1245ZM162.984 51.6533C162.63 52.4022 162.95 53.2964 163.699 53.6505C164.448 54.0046 165.342 53.6845 165.696 52.9356L162.984 51.6533ZM161.927 62.2877C162.192 61.5027 161.77 60.6516 160.985 60.3867C160.2 60.1217 159.349 60.5432 159.084 61.3281L161.927 62.2877ZM156.297 71.3928C156.119 72.202 156.631 73.0019 157.44 73.1796C158.249 73.3572 159.049 72.8453 159.227 72.0361L156.297 71.3928ZM157.57 81.9677C157.666 81.1449 157.077 80.4 156.254 80.3041C155.431 80.2081 154.686 80.7974 154.59 81.6203L157.57 81.9677ZM153.865 91.9637C153.844 92.7919 154.498 93.4804 155.326 93.5016C156.154 93.5228 156.843 92.8686 156.864 92.0405L153.865 91.9637ZM157.022 102.161C156.977 101.334 156.269 100.7 155.442 100.746C154.615 100.792 153.981 101.499 154.027 102.327L157.022 102.161ZM154.978 112.643C155.083 113.464 155.834 114.045 156.656 113.94C157.477 113.835 158.058 113.084 157.953 112.262L154.978 112.643ZM159.569 122.306C159.412 121.492 158.626 120.96 157.812 121.117C156.999 121.274 156.467 122.061 156.624 122.874L159.569 122.306ZM158.884 133.008C159.086 133.811 159.902 134.298 160.705 134.096C161.508 133.893 161.995 133.078 161.793 132.274L158.884 133.008ZM164.52 142.04C164.278 141.248 163.44 140.802 162.647 141.044C161.855 141.286 161.409 142.125 161.652 142.917L164.52 142.04ZM164.873 152.663C165.15 153.443 166.007 153.852 166.788 153.575C167.569 153.298 167.977 152.44 167.7 151.66L164.873 152.663ZM171.303 161.199C170.995 160.43 170.122 160.056 169.353 160.364C168.584 160.671 168.21 161.544 168.517 162.314L171.303 161.199ZM172.561 171.907C172.896 172.665 173.782 173.007 174.54 172.672C175.297 172.337 175.64 171.451 175.304 170.693L172.561 171.907ZM179.539 179.86C179.18 179.114 178.284 178.8 177.537 179.159C176.79 179.518 176.476 180.414 176.836 181.161L179.539 179.86ZM181.679 190.202C182.109 190.91 183.031 191.135 183.739 190.705C184.448 190.275 184.673 189.353 184.243 188.645L181.679 190.202ZM189.487 196.716C189.015 196.035 188.08 195.866 187.4 196.339C186.719 196.811 186.55 197.745 187.022 198.426L189.487 196.716ZM192.847 206.314C193.358 206.966 194.301 207.079 194.953 206.568C195.604 206.056 195.718 205.114 195.207 204.462L192.847 206.314ZM201.368 211.867C200.82 211.245 199.873 211.185 199.251 211.733C198.629 212.28 198.569 213.228 199.117 213.85L201.368 211.867ZM205.791 221.021C206.372 221.612 207.322 221.621 207.913 221.04C208.504 220.459 208.512 219.51 207.931 218.919L205.791 221.021ZM214.866 225.62C214.256 225.06 213.307 225.1 212.747 225.711C212.187 226.321 212.227 227.27 212.838 227.83L214.866 225.62ZM220.208 234.269C220.845 234.799 221.791 234.712 222.321 234.075C222.851 233.438 222.764 232.492 222.127 231.962L220.208 234.269ZM229.69 237.96C229.029 237.461 228.089 237.591 227.589 238.252C227.089 238.912 227.219 239.853 227.88 240.353L229.69 237.96ZM235.811 246.083C236.493 246.554 237.427 246.382 237.897 245.701C238.368 245.019 238.197 244.085 237.515 243.614L235.811 246.083ZM245.569 248.931C244.868 248.489 243.942 248.698 243.5 249.399C243.057 250.099 243.267 251.025 243.967 251.468L245.569 248.931ZM252.339 256.53C253.056 256.945 253.974 256.7 254.389 255.983C254.804 255.266 254.559 254.348 253.842 253.933L252.339 256.53ZM262.296 258.622C261.564 258.233 260.656 258.511 260.267 259.243C259.879 259.974 260.156 260.883 260.888 261.271L262.296 258.622ZM269.592 265.705C270.336 266.069 271.234 265.76 271.598 265.015C271.961 264.271 271.652 263.373 270.908 263.009L269.592 265.705ZM279.661 267.108C278.905 266.769 278.018 267.106 277.678 267.862C277.339 268.618 277.677 269.506 278.433 269.845L279.661 267.108ZM287.399 273.704C288.164 274.02 289.041 273.655 289.357 272.889C289.673 272.124 289.308 271.247 288.543 270.931L287.399 273.704ZM297.542 274.49C296.768 274.197 295.902 274.587 295.608 275.361C295.315 276.136 295.705 277.002 296.479 277.296L297.542 274.49ZM305.665 280.631C306.447 280.903 307.302 280.489 307.574 279.706C307.846 278.924 307.432 278.069 306.65 277.797L305.665 280.631ZM315.837 280.857C315.048 280.605 314.204 281.041 313.953 281.83C313.701 282.619 314.137 283.463 314.926 283.715L315.837 280.857ZM323.889 286.743C324.653 287.064 325.532 286.704 325.853 285.941C326.173 285.177 325.814 284.298 325.05 283.977L323.889 286.743ZM333.782 288.385C333.066 287.968 332.147 288.21 331.73 288.926C331.313 289.642 331.555 290.56 332.271 290.977L333.782 288.385ZM340.211 296.131C340.885 296.613 341.822 296.457 342.303 295.783C342.785 295.108 342.629 294.172 341.954 293.69L340.211 296.131ZM349.644 299.659C349.009 299.127 348.063 299.209 347.53 299.843C346.998 300.478 347.08 301.424 347.714 301.957L349.644 299.659ZM354.734 308.305C355.328 308.882 356.278 308.869 356.855 308.275C357.433 307.681 357.419 306.731 356.825 306.154L354.734 308.305ZM363.543 313.173C362.993 312.554 362.044 312.499 361.426 313.05C360.807 313.601 360.751 314.549 361.302 315.168L363.543 313.173ZM367.336 322.473C367.839 323.131 368.781 323.257 369.439 322.754C370.097 322.25 370.222 321.309 369.719 320.651L367.336 322.473ZM375.32 328.596C374.87 327.901 373.941 327.702 373.246 328.152C372.55 328.602 372.351 329.53 372.801 330.226L375.32 328.596ZM377.605 338.376C377.994 339.107 378.903 339.383 379.634 338.994C380.365 338.604 380.642 337.695 380.252 336.964L377.605 338.376ZM384.439 345.751C384.118 344.988 383.238 344.629 382.475 344.95C381.711 345.272 381.352 346.151 381.674 346.915L384.439 345.751ZM384.906 355.784C385.15 356.576 385.99 357.02 386.781 356.775C387.573 356.531 388.017 355.691 387.772 354.9L384.906 355.784ZM390.153 364.352C389.994 363.539 389.206 363.009 388.393 363.168C387.58 363.327 387.05 364.115 387.209 364.928L390.153 364.352ZM388.501 374.271C388.568 375.097 389.292 375.712 390.118 375.645C390.943 375.578 391.558 374.854 391.491 374.028L388.501 374.271ZM391.722 383.77C391.75 382.942 391.101 382.248 390.273 382.22C389.445 382.192 388.751 382.84 388.723 383.668L391.722 383.77ZM387.863 393.04C387.74 393.86 388.305 394.623 389.124 394.746C389.943 394.869 390.707 394.304 390.83 393.485L387.863 393.04ZM388.843 403.049C389.056 402.248 388.58 401.426 387.779 401.214C386.979 401.001 386.157 401.477 385.944 402.278L388.843 403.049ZM383.036 411.269C382.741 412.043 383.129 412.91 383.903 413.205C384.677 413.5 385.544 413.112 385.839 412.338L383.036 411.269ZM381.942 421.234C382.31 420.492 382.006 419.592 381.264 419.224C380.521 418.857 379.622 419.161 379.254 419.903L381.942 421.234ZM374.693 428.18C374.263 428.888 374.489 429.811 375.197 430.241C375.905 430.671 376.827 430.446 377.257 429.738L374.693 428.18ZM371.898 437.829C372.382 437.156 372.228 436.219 371.555 435.736C370.882 435.253 369.945 435.407 369.461 436.08L371.898 437.829ZM363.655 443.602C363.127 444.24 363.217 445.186 363.855 445.714C364.494 446.241 365.439 446.152 365.967 445.513L363.655 443.602ZM359.546 452.811C360.112 452.206 360.079 451.256 359.474 450.691C358.868 450.126 357.919 450.158 357.353 450.764L359.546 452.811ZM350.713 457.501C350.117 458.076 350.099 459.025 350.674 459.622C351.248 460.219 352.198 460.236 352.794 459.662L350.713 457.501ZM345.708 466.167C346.331 465.621 346.394 464.674 345.848 464.051C345.302 463.428 344.354 463.365 343.731 463.911L345.708 466.167ZM335.679 469.483C334.94 469.858 334.645 470.76 335.02 471.499C335.395 472.238 336.297 472.533 337.036 472.159L335.679 469.483ZM326.934 476.126C327.732 475.907 328.202 475.082 327.983 474.283C327.763 473.484 326.938 473.014 326.139 473.234L326.934 476.126ZM316.078 474.607C315.25 474.599 314.571 475.263 314.562 476.092C314.554 476.92 315.218 477.599 316.047 477.607L316.078 474.607ZM305.18 475.649C305.957 475.935 306.819 475.536 307.105 474.759C307.391 473.982 306.993 473.119 306.216 472.833L305.18 475.649ZM297.565 467.776C296.932 467.242 295.986 467.322 295.451 467.955C294.917 468.588 294.997 469.534 295.63 470.069L297.565 467.776ZM288.453 461.701C288.888 462.406 289.812 462.625 290.517 462.19C291.222 461.755 291.441 460.831 291.006 460.126L288.453 461.701ZM287.1 450.839C286.905 450.034 286.095 449.539 285.29 449.733C284.484 449.928 283.989 450.739 284.184 451.544L287.1 450.839ZM283.735 440.4C283.579 441.214 284.111 442 284.925 442.156C285.738 442.313 286.525 441.78 286.681 440.967L283.735 440.4ZM290.974 432.705C291.514 432.077 291.443 431.129 290.815 430.589C290.187 430.049 289.239 430.12 288.699 430.748L290.974 432.705ZM296.79 424.315C296.056 424.698 295.771 425.604 296.154 426.339C296.537 427.073 297.443 427.358 298.178 426.975L296.79 424.315ZM307.015 424.314C307.838 424.222 308.43 423.479 308.338 422.656C308.246 421.833 307.504 421.24 306.68 421.332L307.015 424.314ZM316.894 421.786C316.08 421.633 315.296 422.168 315.143 422.983C314.99 423.797 315.525 424.581 316.34 424.734L316.894 421.786ZM325.41 427.527C326.174 427.849 327.053 427.49 327.374 426.726C327.696 425.963 327.337 425.083 326.573 424.762L325.41 427.527ZM335.495 429.368C334.787 428.938 333.865 429.162 333.434 429.87C333.003 430.578 333.228 431.501 333.936 431.931L335.495 429.368ZM341.888 437.404C342.545 437.908 343.487 437.783 343.99 437.125C344.494 436.467 344.369 435.526 343.711 435.022L341.888 437.404ZM351.347 441.394C350.732 440.839 349.784 440.889 349.229 441.504C348.674 442.119 348.723 443.067 349.338 443.622L351.347 441.394ZM356.368 450.389C356.948 450.981 357.897 450.992 358.49 450.412C359.082 449.833 359.092 448.883 358.513 448.291L356.368 450.389ZM365.234 455.527C364.685 454.906 363.737 454.849 363.117 455.398C362.497 455.947 362.439 456.895 362.988 457.515L365.234 455.527ZM369.323 464.989C369.846 465.632 370.791 465.729 371.433 465.206C372.076 464.683 372.173 463.738 371.65 463.096L369.323 464.989ZM377.726 470.839C377.226 470.179 376.285 470.049 375.625 470.55C374.965 471.05 374.835 471.991 375.335 472.651L377.726 470.839ZM380.739 480.745C381.154 481.463 382.071 481.708 382.789 481.294C383.506 480.88 383.752 479.962 383.337 479.245L380.739 480.745ZM388.139 488.017C387.757 487.281 386.852 486.995 386.116 487.377C385.381 487.759 385.095 488.664 385.477 489.399L388.139 488.017ZM389.89 498.343C390.241 499.093 391.134 499.417 391.885 499.065C392.635 498.714 392.958 497.821 392.606 497.07L389.89 498.343ZM396.669 506.199C396.347 505.436 395.467 505.078 394.704 505.4C393.94 505.722 393.583 506.602 393.905 507.365L396.669 506.199ZM397.582 516.575C397.875 517.35 398.74 517.742 399.515 517.45C400.29 517.157 400.682 516.292 400.39 515.517L397.582 516.575ZM403.748 524.987C403.487 524.201 402.637 523.775 401.851 524.037C401.065 524.298 400.64 525.147 400.901 525.933L403.748 524.987ZM403.842 535.417C404.072 536.213 404.903 536.673 405.699 536.443C406.495 536.214 406.954 535.383 406.725 534.587L403.842 535.417ZM409.301 544.296C409.106 543.491 408.295 542.997 407.489 543.192C406.684 543.388 406.19 544.199 406.385 545.004L409.301 544.296ZM408.509 554.675C408.669 555.488 409.457 556.018 410.27 555.858C411.083 555.699 411.612 554.91 411.453 554.097L408.509 554.675ZM413.161 563.992C413.039 563.172 412.276 562.607 411.457 562.729C410.637 562.851 410.072 563.614 410.194 564.433L413.161 563.992ZM411.414 574.258C411.495 575.083 412.23 575.684 413.054 575.603C413.879 575.521 414.481 574.786 414.399 573.962L411.414 574.258ZM415.138 583.985C415.098 583.158 414.396 582.519 413.568 582.559C412.741 582.598 412.102 583.301 412.141 584.129L415.138 583.985ZM412.351 594.02C412.346 594.849 413.014 595.524 413.842 595.529C414.671 595.534 415.346 594.866 415.351 594.038L412.351 594.02ZM415.011 604.091C415.063 603.264 414.434 602.552 413.607 602.501C412.781 602.449 412.069 603.078 412.017 603.905L415.011 604.091ZM411.117 613.751C411.018 614.573 411.604 615.321 412.426 615.42C413.248 615.52 413.996 614.934 414.096 614.112L411.117 613.751ZM412.584 624.064C412.733 623.249 412.194 622.468 411.379 622.318C410.564 622.169 409.782 622.709 409.633 623.523L412.584 624.064ZM407.551 633.186C407.352 633.99 407.841 634.804 408.645 635.003C409.449 635.203 410.263 634.713 410.463 633.909L407.551 633.186ZM407.726 643.606C407.976 642.816 407.539 641.973 406.749 641.723C405.959 641.473 405.116 641.91 404.866 642.7L407.726 643.606ZM401.587 652.007C401.287 652.779 401.67 653.648 402.442 653.949C403.214 654.249 404.083 653.866 404.383 653.094L401.587 652.007ZM400.443 662.346C400.792 661.595 400.465 660.703 399.714 660.354C398.962 660.005 398.071 660.332 397.722 661.084L400.443 662.346ZM393.29 669.897C392.895 670.625 393.165 671.536 393.893 671.931C394.621 672.326 395.532 672.057 395.927 671.328L393.29 669.897ZM390.86 680.014C391.299 679.311 391.085 678.386 390.383 677.947C389.68 677.508 388.755 677.721 388.316 678.424L390.86 680.014ZM382.826 686.645C382.345 687.32 382.503 688.257 383.178 688.737C383.853 689.217 384.79 689.059 385.27 688.384L382.826 686.645ZM379.188 696.43C379.706 695.784 379.602 694.84 378.956 694.321C378.309 693.803 377.365 693.907 376.847 694.554L379.188 696.43ZM370.451 702.097C369.898 702.714 369.951 703.662 370.568 704.215C371.185 704.767 372.133 704.715 372.686 704.098L370.451 702.097ZM365.818 711.377C366.402 710.789 366.399 709.84 365.811 709.256C365.223 708.672 364.273 708.676 363.689 709.264L365.818 711.377ZM356.545 716.114C355.934 716.673 355.891 717.622 356.45 718.234C357.008 718.845 357.957 718.888 358.569 718.329L356.545 716.114ZM350.948 724.974C351.585 724.444 351.671 723.498 351.141 722.861C350.611 722.224 349.665 722.138 349.029 722.668L350.948 724.974ZM341.333 728.801C340.675 729.304 340.548 730.245 341.051 730.904C341.553 731.562 342.495 731.689 343.153 731.186L341.333 728.801ZM335.066 737.103C335.744 736.627 335.908 735.692 335.432 735.014C334.956 734.336 334.021 734.172 333.343 734.648L335.066 737.103ZM325.045 740.239C324.349 740.689 324.15 741.618 324.6 742.313C325.05 743.009 325.979 743.208 326.674 742.758L325.045 740.239ZM318.253 748.002C318.964 747.576 319.195 746.654 318.769 745.944C318.343 745.233 317.422 745.002 316.711 745.428L318.253 748.002ZM308.071 750.415C307.347 750.817 307.086 751.73 307.489 752.455C307.891 753.179 308.805 753.439 309.529 753.037L308.071 750.415ZM300.73 757.753C301.466 757.373 301.754 756.468 301.374 755.732C300.993 754.996 300.088 754.708 299.352 755.089L300.73 757.753ZM12.4029 88.6227C15.2068 89.7685 18.2115 90.915 21.4035 92.044L22.4038 89.2156C19.2556 88.1021 16.2959 86.9727 13.5378 85.8456L12.4029 88.6227ZM30.5265 95.0547C33.4829 95.9638 36.5635 96.8492 39.7602 97.7L40.5318 94.8009C37.372 93.9599 34.3281 93.0851 31.4082 92.1872L30.5265 95.0547ZM49.1017 100.005C52.1455 100.698 55.2763 101.355 58.4883 101.97L59.0519 99.023C55.8745 98.4154 52.7779 97.765 49.7678 97.0796L49.1017 100.005ZM67.9583 103.612C71.0622 104.096 74.2309 104.537 77.46 104.928L77.821 101.95C74.6262 101.563 71.4911 101.127 68.4203 100.648L67.9583 103.612ZM87.027 105.924C90.1665 106.196 93.3556 106.42 96.5905 106.591L96.7485 103.595C93.548 103.426 90.3929 103.205 87.2867 102.935L87.027 105.924ZM106.186 106.933C109.353 106.991 112.559 106.996 115.8 106.944L115.751 103.944C112.546 103.996 109.375 103.991 106.241 103.933L106.186 106.933ZM125.39 106.622C128.553 106.461 131.746 106.242 134.966 105.964L134.707 102.975C131.523 103.251 128.366 103.466 125.237 103.626L125.39 106.622ZM144.518 104.966C147.669 104.58 150.841 104.135 154.034 103.626L153.562 100.663C150.406 101.166 147.268 101.607 144.153 101.989L144.518 104.966ZM163.498 101.942C166.61 101.329 169.738 100.655 172.88 99.9163L172.193 96.9959C169.087 97.7261 165.995 98.3925 162.919 98.998L163.498 101.942ZM182.183 97.5474C185.243 96.7079 188.315 95.8051 191.395 94.8365L190.495 91.9747C187.45 92.9321 184.415 93.8244 181.389 94.6543L182.183 97.5474ZM200.502 91.7864C202.009 91.2502 203.518 90.6979 205.029 90.1289L203.971 87.3214C202.478 87.8839 200.987 88.4299 199.496 88.9598L200.502 91.7864ZM205.029 90.1289C206.785 89.4672 208.5 88.806 210.175 88.1454L209.073 85.3548C207.414 86.0095 205.714 86.6651 203.971 87.3214L205.029 90.1289ZM220.151 84.0095C223.622 82.4954 226.886 80.9858 229.954 79.482L228.634 76.7882C225.608 78.2711 222.384 79.7622 218.952 81.2597L220.151 84.0095ZM239.48 74.4861C242.891 72.5656 245.996 70.6567 248.817 68.7624L247.145 66.2718C244.395 68.1184 241.357 69.9864 238.009 71.872L239.48 74.4861ZM257.522 62.2332C260.615 59.6129 263.197 57.0244 265.325 54.4754L263.021 52.5529C261.018 54.9532 258.561 57.4208 255.583 59.9443L257.522 62.2332ZM271.289 45.1125C272.988 41.2791 273.73 37.5868 273.749 34.0846L270.749 34.0685C270.732 37.1457 270.083 40.4303 268.546 43.8967L271.289 45.1125ZM271.395 23.0415C269.846 19.4828 267.688 16.3244 265.397 13.6316L263.112 15.5756C265.262 18.1021 267.24 21.0129 268.644 24.2387L271.395 23.0415ZM257.353 6.02851C255.251 4.41398 253.531 3.3406 252.704 2.90091L251.296 5.54944C251.938 5.89134 253.517 6.86511 255.526 8.40807L257.353 6.02851ZM252.704 2.90091C251.235 2.11924 249.464 1.53859 247.475 1.14431L246.892 4.08702C248.677 4.44105 250.152 4.94126 251.296 5.54944L252.704 2.90091ZM236.883 0.603509C233.66 0.800073 230.167 1.27877 226.503 2.05813L227.127 4.99251C230.659 4.24132 234.004 3.78468 237.065 3.59795L236.883 0.603509ZM216.448 4.84254C213.27 5.92438 210.031 7.21909 206.781 8.73847L208.051 11.4561C211.201 9.98364 214.339 8.7296 217.415 7.68246L216.448 4.84254ZM197.581 13.6606C194.676 15.4234 191.802 17.3787 188.998 19.5353L190.827 21.9132C193.54 19.8263 196.323 17.9331 199.137 16.2254L197.581 13.6606ZM181.106 26.355C178.656 28.732 176.3 31.2909 174.068 34.0388L176.397 35.93C178.552 33.277 180.828 30.8053 183.195 28.5081L181.106 26.355ZM167.985 42.5276C166.177 45.4023 164.502 48.4425 162.984 51.6533L165.696 52.9356C167.163 49.8344 168.78 46.8992 170.525 44.1245L167.985 42.5276ZM159.084 61.3281C158 64.5386 157.065 67.8922 156.297 71.3928L159.227 72.0361C159.972 68.6416 160.878 65.3935 161.927 62.2877L159.084 61.3281ZM154.59 81.6203C154.202 84.9511 153.956 88.398 153.865 91.9637L156.864 92.0405C156.953 88.5632 157.193 85.2066 157.57 81.9677L154.59 81.6203ZM154.027 102.327C154.212 105.671 154.526 109.109 154.978 112.643L157.953 112.262C157.511 108.798 157.203 105.431 157.022 102.161L154.027 102.327ZM156.624 122.874C157.261 126.175 158.012 129.552 158.884 133.008L161.793 132.274C160.934 128.872 160.195 125.549 159.569 122.306L156.624 122.874ZM161.652 142.917C162.626 146.103 163.698 149.351 164.873 152.663L167.7 151.66C166.54 148.389 165.481 145.182 164.52 142.04L161.652 142.917ZM168.517 162.314C169.775 165.457 171.122 168.655 172.561 171.907L175.304 170.693C173.88 167.473 172.547 164.309 171.303 161.199L168.517 162.314ZM176.836 181.161C177.589 182.727 178.363 184.306 179.158 185.896L181.842 184.554C181.053 182.977 180.286 181.413 179.539 179.86L176.836 181.161ZM179.194 185.964C180.004 187.395 180.832 188.808 181.679 190.202L184.243 188.645C183.413 187.277 182.6 185.891 181.806 184.487L179.194 185.964ZM187.022 198.426C188.898 201.131 190.842 203.76 192.847 206.314L195.207 204.462C193.238 201.953 191.329 199.372 189.487 196.716L187.022 198.426ZM199.117 213.85C201.289 216.315 203.516 218.705 205.791 221.021L207.931 218.919C205.693 216.64 203.503 214.29 201.368 211.867L199.117 213.85ZM212.838 227.83C215.256 230.05 217.716 232.196 220.208 234.269L222.127 231.962C219.67 229.919 217.247 227.806 214.866 225.62L212.838 227.83ZM227.88 240.353C230.501 242.336 233.148 244.245 235.811 246.083L237.515 243.614C234.886 241.8 232.275 239.916 229.69 237.96L227.88 240.353ZM243.967 251.468C246.753 253.227 249.548 254.914 252.339 256.53L253.842 253.933C251.083 252.336 248.321 250.67 245.569 248.931L243.967 251.468ZM260.888 261.271C263.807 262.823 266.713 264.299 269.592 265.705L270.908 263.009C268.058 261.618 265.184 260.157 262.296 258.622L260.888 261.271ZM278.433 269.845C281.471 271.209 284.465 272.494 287.399 273.704L288.543 270.931C285.636 269.732 282.67 268.459 279.661 267.108L278.433 269.845ZM296.479 277.296C299.646 278.495 302.715 279.605 305.665 280.631L306.65 277.797C303.724 276.78 300.681 275.68 297.542 274.49L296.479 277.296ZM314.926 283.715C316.525 284.224 318.072 284.706 319.562 285.161L320.438 282.292C318.959 281.84 317.424 281.362 315.837 280.857L314.926 283.715ZM319.562 285.161C320.919 285.576 322.366 286.104 323.889 286.743L325.05 283.977C323.447 283.304 321.904 282.74 320.438 282.292L319.562 285.161ZM332.271 290.977C334.837 292.473 337.5 294.195 340.211 296.131L341.954 293.69C339.173 291.703 336.432 289.93 333.782 288.385L332.271 290.977ZM347.714 301.957C350.065 303.931 352.415 306.05 354.734 308.305L356.825 306.154C354.454 303.847 352.049 301.68 349.644 299.659L347.714 301.957ZM361.302 315.168C363.374 317.496 365.394 319.934 367.336 322.473L369.719 320.651C367.73 318.05 365.663 315.555 363.543 313.173L361.302 315.168ZM372.801 330.226C374.504 332.857 376.112 335.576 377.605 338.376L380.252 336.964C378.718 334.087 377.066 331.295 375.32 328.596L372.801 330.226ZM381.674 346.915C382.889 349.802 383.973 352.761 384.906 355.784L387.772 354.9C386.809 351.778 385.691 348.726 384.439 345.751L381.674 346.915ZM387.209 364.928C387.807 367.988 388.244 371.104 388.501 374.271L391.491 374.028C391.225 370.746 390.772 367.519 390.153 364.352L387.209 364.928ZM388.723 383.668C388.619 386.751 388.337 389.877 387.863 393.04L390.83 393.485C391.321 390.207 391.613 386.967 391.722 383.77L388.723 383.668ZM385.944 402.278C385.155 405.246 384.19 408.244 383.036 411.269L385.839 412.338C387.029 409.217 388.027 406.119 388.843 403.049L385.944 402.278ZM379.254 419.903C377.897 422.644 376.38 425.404 374.693 428.18L377.257 429.738C378.987 426.89 380.546 424.055 381.942 421.234L379.254 419.903ZM369.461 436.08C367.669 438.577 365.736 441.085 363.655 443.602L365.967 445.513C368.09 442.945 370.065 440.383 371.898 437.829L369.461 436.08ZM357.353 450.764C355.262 453.004 353.05 455.25 350.713 457.501L352.794 459.662C355.168 457.375 357.417 455.091 359.546 452.811L357.353 450.764ZM343.731 463.911C342.528 464.966 341.296 466.021 340.036 467.077L341.964 469.376C343.24 468.307 344.488 467.237 345.708 466.167L343.731 463.911ZM340.219 466.946C338.676 467.887 337.162 468.731 335.679 469.483L337.036 472.159C338.592 471.369 340.174 470.487 341.781 469.508L340.219 466.946ZM326.139 473.234C322.557 474.217 319.199 474.64 316.078 474.607L316.047 477.607C319.464 477.643 323.099 477.179 326.934 476.126L326.139 473.234ZM306.216 472.833C302.963 471.637 300.071 469.891 297.565 467.776L295.63 470.069C298.385 472.394 301.578 474.323 305.18 475.649L306.216 472.833ZM291.006 460.126C289.17 457.151 287.857 453.97 287.1 450.839L284.184 451.544C285.017 454.988 286.454 458.462 288.453 461.701L291.006 460.126ZM286.681 440.967C287.001 439.303 287.543 437.79 288.3 436.475L285.7 434.978C284.756 436.618 284.11 438.453 283.735 440.4L286.681 440.967ZM288.3 436.475C289.044 435.183 289.936 433.911 290.974 432.705L288.699 430.748C287.537 432.1 286.537 433.526 285.7 434.978L288.3 436.475ZM298.178 426.975C300.737 425.639 303.683 424.687 307.015 424.314L306.68 421.332C302.976 421.748 299.673 422.81 296.79 424.315L298.178 426.975ZM316.34 424.734C319.161 425.265 322.185 426.171 325.41 427.527L326.573 424.762C323.171 423.331 319.943 422.36 316.894 421.786L316.34 424.734ZM333.936 431.931C336.486 433.483 339.137 435.298 341.888 437.404L343.711 435.022C340.883 432.857 338.144 430.98 335.495 429.368L333.936 431.931ZM349.338 443.622C351.623 445.682 353.966 447.934 356.368 450.389L358.513 448.291C356.07 445.794 353.681 443.499 351.347 441.394L349.338 443.622ZM362.988 457.515C365.06 459.857 367.172 462.346 369.323 464.989L371.65 463.096C369.474 460.422 367.336 457.901 365.234 455.527L362.988 457.515ZM375.335 472.651C376.313 473.941 377.298 475.262 378.291 476.614L380.709 474.839C379.708 473.475 378.714 472.141 377.726 470.839L375.335 472.651ZM378.221 476.511C379.035 477.838 379.876 479.251 380.739 480.745L383.337 479.245C382.461 477.728 381.606 476.293 380.779 474.943L378.221 476.511ZM385.477 489.399C386.931 492.2 388.411 495.186 389.89 498.343L392.606 497.07C391.11 493.876 389.612 490.853 388.139 488.017L385.477 489.399ZM393.905 507.365C395.153 510.324 396.385 513.398 397.582 516.575L400.39 515.517C399.178 512.302 397.932 509.193 396.669 506.199L393.905 507.365ZM400.901 525.933C401.927 529.018 402.911 532.181 403.842 535.417L406.725 534.587C405.782 531.311 404.786 528.108 403.748 524.987L400.901 525.933ZM406.385 545.004C407.154 548.173 407.866 551.399 408.509 554.675L411.453 554.097C410.801 550.776 410.08 547.507 409.301 544.296L406.385 545.004ZM410.194 564.433C410.675 567.669 411.085 570.946 411.414 574.258L414.399 573.962C414.065 570.599 413.649 567.274 413.161 563.992L410.194 564.433ZM412.141 584.129C412.298 587.399 412.371 590.698 412.351 594.02L415.351 594.038C415.371 590.661 415.297 587.308 415.138 583.985L412.141 584.129ZM412.017 603.905C411.814 607.171 411.517 610.455 411.117 613.751L414.096 614.112C414.502 610.756 414.805 607.414 415.011 604.091L412.017 603.905ZM409.633 623.523C409.044 626.738 408.352 629.96 407.551 633.186L410.463 633.909C411.279 630.622 411.984 627.339 412.584 624.064L409.633 623.523ZM404.866 642.7C403.883 645.804 402.792 648.908 401.587 652.007L404.383 653.094C405.611 649.934 406.723 646.77 407.726 643.606L404.866 642.7ZM397.722 661.084C396.355 664.029 394.88 666.968 393.29 669.897L395.927 671.328C397.547 668.344 399.05 665.349 400.443 662.346L397.722 661.084ZM388.316 678.424C386.595 681.176 384.766 683.918 382.826 686.645L385.27 688.384C387.245 685.609 389.107 682.818 390.86 680.014L388.316 678.424ZM376.847 694.554C374.819 697.083 372.688 699.599 370.451 702.097L372.686 704.098C374.959 701.56 377.125 699.003 379.188 696.43L376.847 694.554ZM363.689 709.264C361.405 711.565 359.025 713.849 356.545 716.114L358.569 718.329C361.084 716.031 363.499 713.713 365.818 711.377L363.689 709.264ZM349.029 722.668C346.552 724.731 343.988 726.775 341.333 728.801L343.153 731.186C345.841 729.135 348.438 727.064 350.948 724.974L349.029 722.668ZM333.343 734.648C330.66 736.53 327.895 738.395 325.045 740.239L326.674 742.758C329.556 740.893 332.352 739.008 335.066 737.103L333.343 734.648ZM316.711 745.428C313.907 747.109 311.028 748.771 308.071 750.415L309.529 753.037C312.513 751.378 315.421 749.699 318.253 748.002L316.711 745.428ZM299.352 755.089C297.863 755.858 296.356 756.624 294.831 757.384L296.169 760.069C297.708 759.302 299.228 758.53 300.73 757.753L299.352 755.089Z" fill="#C5C5C5"/>
<mask id="path-2-inside-1_13_1492" fill="white">
<path fill-rule="evenodd" clip-rule="evenodd" d="M375 58C370.029 58 366 62.0294 366 67V69H364C359.029 69 355 73.0294 355 78C355 82.9706 359.029 87 364 87H366V89C366 93.9706 370.029 98 375 98C379.971 98 384 93.9706 384 89V87H386C390.971 87 395 82.9706 395 78C395 73.0294 390.971 69 386 69H384V67C384 62.0294 379.971 58 375 58Z"/>
</mask>
<path d="M366 69V72H369V69H366ZM364 69L364 72H364V69ZM366 87H369V84H366V87ZM384 87V84H381V87H384ZM384 69H381V72H384V69ZM369 67C369 63.6863 371.686 61 375 61V55C368.373 55 363 60.3726 363 67H369ZM369 69V67H363V69H369ZM364 72H366V66H364V72ZM358 78C358 74.6863 360.686 72 364 72L364 66C357.373 66 352 71.3726 352 78H358ZM364 84C360.686 84 358 81.3137 358 78H352C352 84.6274 357.373 90 364 90V84ZM366 84H364V90H366V84ZM369 89V87H363V89H369ZM375 95C371.686 95 369 92.3137 369 89H363C363 95.6274 368.373 101 375 101V95ZM381 89C381 92.3137 378.314 95 375 95V101C381.627 101 387 95.6274 387 89H381ZM381 87V89H387V87H381ZM386 84H384V90H386V84ZM392 78C392 81.3137 389.314 84 386 84V90C392.627 90 398 84.6274 398 78H392ZM386 72C389.314 72 392 74.6863 392 78H398C398 71.3726 392.627 66 386 66V72ZM384 72H386V66H384V72ZM381 67V69H387V67H381ZM375 61C378.314 61 381 63.6863 381 67H387C387 60.3726 381.627 55 375 55V61Z" fill="#FF4917" mask="url(#path-2-inside-1_13_1492)"/>
<mask id="path-4-inside-2_13_1492" fill="white">
<path fill-rule="evenodd" clip-rule="evenodd" d="M490.823 420.105C489.179 418.588 486.617 418.69 485.1 420.333L484.489 420.995L483.827 420.385C482.184 418.868 479.622 418.97 478.104 420.613C476.587 422.257 476.69 424.819 478.333 426.336L478.994 426.947L478.384 427.608C476.867 429.251 476.969 431.813 478.613 433.331C480.256 434.848 482.819 434.746 484.336 433.102L484.946 432.441L485.607 433.052C487.251 434.569 489.813 434.467 491.33 432.823C492.847 431.18 492.745 428.617 491.102 427.1L490.44 426.49L491.051 425.828C492.568 424.184 492.466 421.622 490.823 420.105Z"/>
</mask>
<path d="M485.1 420.333L486.569 421.69L485.1 420.333ZM484.489 420.995L483.132 422.465L484.602 423.821L485.958 422.352L484.489 420.995ZM478.994 426.947L480.464 428.303L481.82 426.834L480.351 425.477L478.994 426.947ZM478.384 427.608L476.915 426.251L478.384 427.608ZM484.336 433.102L482.866 431.745L484.336 433.102ZM484.946 432.441L486.303 430.972L484.833 429.615L483.476 431.085L484.946 432.441ZM490.44 426.49L488.971 425.133L487.614 426.603L489.084 427.959L490.44 426.49ZM491.051 425.828L492.521 427.185L491.051 425.828ZM486.569 421.69C487.337 420.858 488.634 420.806 489.466 421.574L492.179 418.635C489.724 416.369 485.897 416.522 483.63 418.977L486.569 421.69ZM485.958 422.352L486.569 421.69L483.63 418.977L483.019 419.639L485.958 422.352ZM482.471 421.854L483.132 422.465L485.845 419.526L485.184 418.915L482.471 421.854ZM479.574 421.97C480.342 421.138 481.639 421.086 482.471 421.854L485.184 418.915C482.729 416.649 478.901 416.802 476.635 419.257L479.574 421.97ZM479.69 424.867C478.858 424.099 478.806 422.802 479.574 421.97L476.635 419.257C474.368 421.712 474.521 425.539 476.976 427.806L479.69 424.867ZM480.351 425.477L479.69 424.867L476.976 427.806L477.638 428.416L480.351 425.477ZM479.854 428.964L480.464 428.303L477.525 425.59L476.915 426.251L479.854 428.964ZM479.969 431.861C479.138 431.093 479.086 429.796 479.854 428.964L476.915 426.251C474.648 428.706 474.801 432.534 477.256 434.8L479.969 431.861ZM482.866 431.745C482.098 432.577 480.801 432.629 479.969 431.861L477.256 434.8C479.711 437.067 483.539 436.914 485.805 434.459L482.866 431.745ZM483.476 431.085L482.866 431.745L485.805 434.459L486.415 433.798L483.476 431.085ZM486.964 431.582L486.303 430.972L483.589 433.911L484.25 434.521L486.964 431.582ZM489.861 431.467C489.093 432.298 487.796 432.35 486.964 431.582L484.25 434.521C486.706 436.788 490.533 436.635 492.8 434.18L489.861 431.467ZM489.745 428.57C490.577 429.338 490.629 430.635 489.861 431.467L492.8 434.18C495.066 431.725 494.913 427.897 492.458 425.631L489.745 428.57ZM489.084 427.959L489.745 428.57L492.458 425.631L491.797 425.02L489.084 427.959ZM489.582 424.471L488.971 425.133L491.91 427.846L492.521 427.185L489.582 424.471ZM489.466 421.574C490.298 422.342 490.35 423.639 489.582 424.471L492.521 427.185C494.787 424.73 494.634 420.902 492.179 418.635L489.466 421.574Z" fill="#FF4917" mask="url(#path-4-inside-2_13_1492)"/>
</svg>
