<svg width="419" height="421" viewBox="0 0 419 421" fill="none" xmlns="http://www.w3.org/2000/svg">
<path d="M22.5553 227.946H7.93262V273.725H22.5553V227.946Z" fill="#354147"/>
<path d="M44.4414 238.451H29.8187V273.718H44.4414V238.451Z" fill="#354147"/>
<path d="M64.7029 252.787H50.0802V273.718H64.7029V252.787Z" fill="#354147"/>
<path d="M381.624 357.167C381.624 343.213 370.347 331.936 356.393 331.936C342.439 331.936 331.162 343.213 331.162 357.167C331.162 367.202 337.087 375.899 345.593 380.009C345.593 382.972 345.593 386.412 345.593 386.412H367.671C367.671 386.412 367.766 382.876 367.862 379.627C376.081 375.326 381.624 366.915 381.624 357.167Z" fill="#F5F5F5"/>
<path d="M366.046 390.409H347.027C346.262 390.409 345.593 389.74 345.593 388.976C345.593 388.211 346.262 387.542 347.027 387.542H366.046C366.811 387.542 367.48 388.211 367.48 388.976C367.48 389.74 366.811 390.409 366.046 390.409Z" fill="#FF4917"/>
<path d="M366.046 391.661H347.027C346.262 391.661 345.593 392.33 345.593 393.094C345.593 393.859 346.262 394.528 347.027 394.528H349.129L351.901 399.784C352.188 400.358 352.857 400.74 353.526 400.74H360.312C360.981 400.74 361.65 400.358 361.936 399.784L364.612 394.528H366.046C366.811 394.528 367.48 393.859 367.48 393.094C367.48 392.33 366.811 391.661 366.046 391.661Z" fill="#FF4917"/>
<path d="M361.554 400.185C361.554 400.185 361.076 399.994 360.216 399.803C359.451 399.612 358.304 399.325 356.966 399.42C355.724 399.42 354.577 399.707 353.812 399.994C353.048 400.281 352.57 400.472 352.57 400.472C352.57 400.472 352.952 400.09 353.812 399.803C354.577 399.42 355.724 399.134 357.062 399.134C358.4 399.134 359.547 399.325 360.407 399.612C361.172 399.898 361.649 400.185 361.554 400.185Z" fill="#FAFAFA"/>
<path d="M364.612 394.536C364.612 394.631 361.172 394.727 356.966 394.727C352.761 394.727 349.32 394.631 349.32 394.536C349.32 394.44 352.761 394.345 356.966 394.345C361.172 394.345 364.612 394.44 364.612 394.536Z" fill="#FAFAFA"/>
<path d="M363.466 396.809C363.466 396.809 362.797 396.905 361.554 397.001C360.407 397.096 358.783 397.096 357.062 397.192C355.246 397.192 353.717 397.192 352.57 397.192C351.423 397.192 350.659 397.096 350.659 397.096C350.659 397.096 351.423 397.001 352.57 397.001C353.813 397.001 355.342 397.001 357.062 396.905C358.783 396.905 360.312 396.809 361.554 396.809C362.797 396.714 363.466 396.714 363.466 396.809Z" fill="#FAFAFA"/>
<path d="M377.706 349.507C377.706 349.507 377.897 349.985 378.183 350.749C378.47 351.609 378.757 352.852 378.948 354.381C379.33 357.535 379.044 362.027 377.037 366.519C375.03 371.011 371.78 374.165 369.104 375.885C367.766 376.745 366.619 377.319 365.854 377.701C364.994 378.083 364.612 378.179 364.516 378.179C364.516 378.083 366.332 377.414 368.817 375.503C371.302 373.687 374.456 370.533 376.463 366.232C378.47 361.931 378.757 357.439 378.47 354.381C378.279 351.418 377.61 349.602 377.706 349.507Z" fill="white"/>
<path d="M361.363 337.277C360.885 335.557 358.878 334.41 356.393 334.41C352.379 334.792 348.365 335.939 344.924 337.946C340.145 340.718 336.705 345.496 335.462 350.944C335.271 351.9 335.08 352.951 335.367 354.002C335.653 355.053 336.322 356.009 337.374 356.296C338.33 356.583 339.476 356.2 340.241 355.531C341.006 354.862 341.579 354.002 342.057 353.142C343.204 351.135 344.159 348.937 345.497 347.025C347.027 344.827 348.843 343.394 351.041 342.916C352.57 342.533 353.908 342.533 355.437 342.247C357.349 341.864 358.495 341.864 359.833 341.1C360.789 340.335 361.649 338.424 361.363 337.277Z" fill="white"/>
<path d="M340.528 361.945C340.528 363.57 339.19 364.812 337.661 364.812C336.036 364.812 334.793 363.474 334.793 361.945C334.793 360.32 336.131 359.078 337.661 359.078C339.19 358.982 340.528 360.32 340.528 361.945Z" fill="white"/>
<path d="M364.229 386.414C364.229 386.414 364.134 386.032 364.038 385.459C363.942 384.694 363.847 383.738 363.656 382.591C363.369 380.011 362.891 376.475 362.413 372.078C362.222 369.88 361.84 367.491 361.649 364.815C361.649 364.146 361.84 363.381 362.413 362.903C362.891 362.33 363.847 362.139 364.516 362.712C365.185 363.19 365.472 363.859 365.567 364.624C365.663 365.388 365.567 366.153 365.281 366.917C364.707 368.351 363.56 369.593 362.127 370.262C360.693 370.931 358.877 370.932 357.348 370.071C355.914 369.307 354.672 367.969 354.098 366.344C353.812 365.484 353.716 364.624 353.812 363.764C353.907 363.286 354.003 362.903 354.29 362.521C354.576 362.139 355.054 361.852 355.532 361.852C356.01 361.852 356.488 362.043 356.87 362.425C357.252 362.712 357.444 363.094 357.635 363.572C358.017 364.433 358.113 365.293 358.113 366.057C358.113 367.778 357.635 369.498 356.392 370.645C355.245 371.792 353.334 372.365 351.805 371.792C350.276 371.218 349.224 369.976 348.46 368.638C348.077 367.969 347.791 367.3 347.599 366.631C347.408 365.962 347.217 365.197 347.408 364.433C347.504 364.05 347.599 363.668 347.886 363.381C348.173 363.095 348.746 363.095 349.033 363.286C349.702 363.764 349.893 364.528 349.989 365.102C350.753 367.586 351.136 370.071 351.327 372.27C351.709 376.761 351.231 380.393 350.753 382.878C350.276 385.363 349.798 386.606 349.798 386.606C349.798 386.606 349.893 386.223 349.989 385.65C350.18 384.981 350.371 384.025 350.562 382.878C350.945 380.393 351.422 376.761 350.945 372.365C350.753 370.167 350.276 367.778 349.607 365.197C349.415 364.624 349.224 363.859 348.746 363.572C348.555 363.477 348.173 363.477 347.982 363.668C347.791 363.859 347.599 364.146 347.599 364.528C347.504 365.197 347.599 365.866 347.791 366.535C347.982 367.204 348.268 367.873 348.651 368.447C349.415 369.689 350.371 370.836 351.805 371.409C353.238 371.983 354.863 371.409 355.914 370.358C357.061 369.307 357.539 367.682 357.539 366.057C357.539 365.293 357.444 364.433 357.061 363.668C356.775 362.999 356.105 362.234 355.436 362.234C354.672 362.234 354.194 363.095 354.098 363.859C354.003 364.624 354.098 365.484 354.385 366.248C354.863 367.778 356.01 369.116 357.348 369.785C358.686 370.549 360.406 370.549 361.744 369.976C363.369 370.358 364.229 368.542 364.707 366.917C364.994 366.248 365.089 365.579 364.994 364.91C364.898 364.241 364.612 363.572 364.038 363.19C363.56 362.808 362.796 362.903 362.413 363.381C361.935 363.859 361.84 364.433 361.84 365.102C362.031 367.682 362.318 370.167 362.604 372.365C363.082 376.761 363.465 380.298 363.751 382.878C363.847 384.025 363.942 384.981 364.038 385.745C364.229 386.032 364.229 386.414 364.229 386.414Z" fill="#FF4917"/>
<path d="M367.957 36.6967L379.139 37.748C379.139 37.748 380.094 28.3818 389.747 29.1464C394.813 29.5287 397.106 33.1605 397.967 35.741C398.922 38.7993 398.253 42.1444 396.246 44.7249C394.048 47.6876 389.556 50.3637 382.197 48.3566L379.808 73.2057L390.799 74.257L392.232 59.5387C392.232 59.5387 408.097 57.0538 409.722 40.0418C411.347 23.6987 396.437 18.4422 388.887 17.7732C384.204 17.2953 369.677 17.0086 367.957 36.6967Z" fill="#313C43"/>
<path d="M379.272 78.4162L378.253 88.8799L389.478 89.9727L390.496 79.509L379.272 78.4162Z" fill="#313C43"/>
<path d="M363.56 36.3246L374.742 37.3759C374.742 37.3759 375.698 28.0097 385.351 28.7743C390.416 29.1566 392.71 32.7884 393.57 35.3688C394.526 38.4272 393.857 41.7722 391.85 44.3527C389.652 47.3155 385.255 49.7048 377.896 47.6978L375.411 72.8335L386.402 73.8848L387.836 59.1666C387.836 59.1666 403.701 56.6817 405.326 39.6696C406.951 23.3266 392.71 18.1657 386.402 17.4966C381.624 17.0188 365.185 16.6365 363.56 36.3246Z" fill="#FF4917"/>
<path d="M374.867 78.0149L373.849 88.4785L385.073 89.5713L386.092 79.1077L374.867 78.0149Z" fill="#FF4917"/>
<path d="M200.799 9.83898C202.233 9.0744 203.762 8.50096 205.291 8.11867L206.343 3.81787L213.702 4.00902L214.562 8.30981C216.091 8.78768 217.525 9.45669 218.958 10.2213L222.781 7.92752L227.847 13.2796L225.362 16.9114C226.126 18.345 226.7 19.8742 227.082 21.4033L231.383 22.5502L231.192 29.9094L226.891 30.7695C226.413 32.2987 225.84 33.7323 224.979 35.1659L227.273 38.9888L221.921 44.0542L218.194 41.5693C216.76 42.3339 215.231 42.9073 213.702 43.2896L212.651 47.5904L205.291 47.3993L204.431 43.0029C202.902 42.525 201.468 41.856 200.035 41.0914L196.212 43.3852L191.147 38.0331L193.631 34.4013C192.867 32.9677 192.293 31.4385 191.911 29.9094L187.61 28.7625L187.802 21.4033L192.198 20.5432C192.676 19.014 193.249 17.5804 194.109 16.1468L191.816 12.3239L197.168 7.25851L200.799 9.83898ZM204.24 19.7786C201.086 22.7414 200.991 27.7112 203.953 30.8651C206.916 34.019 211.886 34.1146 215.04 31.1518C218.194 28.189 218.385 23.2192 215.327 20.0653C212.364 17.007 207.394 16.8158 204.24 19.7786Z" fill="#2A3438"/>
<path d="M157.505 4.49194C158.46 3.9185 159.512 3.44063 160.659 3.15392L161.328 0.0955736L166.584 0L167.349 3.05834C168.4 3.34506 169.547 3.72736 170.503 4.30079L173.179 2.58048L176.906 6.21226L175.281 8.88831C175.855 9.84404 176.333 10.8953 176.619 12.0422L179.678 12.7112L179.773 17.9678L176.715 18.7323C176.428 19.7837 176.046 20.9305 175.472 21.8863L177.193 24.5623L173.561 28.2897L170.885 26.6649C169.929 27.2384 168.878 27.7162 167.731 28.003L167.062 31.0613L161.805 31.1569L161.041 28.0985C159.99 27.8118 158.843 27.4295 157.887 26.8561L155.211 28.5764L151.484 24.9446L153.108 22.2686C152.535 21.3128 152.057 20.2615 151.77 19.1146L148.712 18.4456L148.616 13.1891L151.675 12.4245C151.961 11.3732 152.344 10.2263 152.917 9.2706L151.197 6.59455L154.829 2.8672L157.505 4.49194ZM160.276 11.4688C158.174 13.667 158.174 17.2032 160.372 19.4014C162.57 21.504 166.106 21.504 168.304 19.2102C170.407 17.012 170.407 13.4758 168.209 11.2776C166.011 9.07945 162.474 9.17503 160.276 11.4688Z" fill="#DE4A22"/>
<path d="M244.668 155.599C245.623 155.026 246.675 154.548 247.821 154.261L248.49 151.203L253.747 151.107L254.512 154.166C255.563 154.452 256.71 154.835 257.665 155.408L260.342 153.688L264.069 157.32L262.444 159.996C263.018 160.951 263.495 162.003 263.782 163.15L266.84 163.819L266.936 169.075L263.878 169.84C263.591 170.891 263.209 172.038 262.635 172.994L264.356 175.67L260.724 179.397L258.048 177.772C257.092 178.346 256.041 178.824 254.894 179.11L254.225 182.169L248.968 182.264L248.204 179.206C247.152 178.919 246.006 178.537 245.05 177.963L242.374 179.684L238.646 176.052L240.271 173.376C239.698 172.42 239.22 171.369 238.933 170.222L235.875 169.553L235.779 164.297L238.838 163.532C239.124 162.481 239.507 161.334 240.08 160.378L238.36 157.702L241.991 153.975L244.668 155.599ZM247.439 162.576C245.337 164.774 245.337 168.311 247.535 170.509C249.733 172.707 253.269 172.611 255.467 170.413C257.57 168.215 257.57 164.679 255.372 162.481C253.078 160.282 249.542 160.378 247.439 162.576Z" fill="#F5F5F5"/>
<path d="M405.039 420.709C405.039 420.804 314.436 420.995 202.615 420.995C90.7947 420.995 0.191284 420.9 0.191284 420.709C0.191284 420.517 90.7947 420.422 202.615 420.422C314.436 420.422 405.039 420.517 405.039 420.709Z" fill="#354147"/>
<path d="M7.64578 383.631L14.9093 420.523H52.8519L60.8801 384.205L7.64578 383.631Z" fill="#FF4917"/>
<path d="M3.24951 377.992V383.153C3.24951 384.873 4.68311 386.307 6.40343 386.307H61.358C63.0783 386.307 64.5119 384.873 64.5119 383.153V377.992C64.5119 376.463 63.2695 375.125 61.6447 375.125H6.11671C4.49196 375.125 3.24951 376.367 3.24951 377.992Z" fill="#FF886C"/>
<g opacity="0.4">
<g opacity="0.4">
<g opacity="0.4">
<g opacity="0.4">
<path opacity="0.4" d="M8.02807 386.312L8.41036 388.797L59.1597 392.429L60.4022 386.312H8.02807Z" fill="black"/>
</g>
</g>
</g>
</g>
<path d="M55.8149 403.897C55.8149 403.992 45.9708 404.183 33.833 404.183C21.6952 404.183 11.8512 404.088 11.8512 403.897C11.8512 403.705 21.6952 403.61 33.833 403.61C45.9708 403.61 55.8149 403.705 55.8149 403.897Z" fill="white"/>
<path d="M56.1015 406.951C56.1015 407.047 46.2575 407.238 34.2153 407.238C22.0775 407.238 12.2334 407.142 12.2334 406.951C12.2334 406.76 22.0775 406.665 34.2153 406.665C46.2575 406.665 56.1015 406.76 56.1015 406.951Z" fill="white"/>
<path d="M8.50604 338.241C8.69719 338.145 12.4245 346.269 17.0121 356.304C21.5996 366.34 25.0402 374.559 24.9446 374.654C24.7535 374.75 21.0261 366.626 16.4386 356.591C11.9467 346.46 8.41047 338.337 8.50604 338.241Z" fill="#4A5761"/>
<path d="M25.8049 342.729C25.996 342.729 26.5695 349.897 27.2385 358.69C27.8119 367.482 28.1942 374.65 28.0987 374.65C27.9075 374.65 27.3341 367.482 26.6651 358.69C25.996 349.897 25.6137 342.729 25.8049 342.729Z" fill="#4A5761"/>
<path d="M49.6024 319.977C49.6024 319.977 49.6024 320.168 49.5069 320.55C49.4113 321.028 49.2202 321.506 49.029 322.175C48.5511 323.608 47.9777 325.615 47.2131 328.1C45.6839 333.07 43.6769 340.047 41.6699 347.693C39.5673 355.339 37.9425 362.411 36.7001 367.476C36.1266 369.961 35.6488 371.968 35.2665 373.498C35.0753 374.167 34.9797 374.644 34.8842 375.122C34.7886 375.505 34.693 375.696 34.693 375.696C34.693 375.696 34.693 375.505 34.7886 375.122C34.8842 374.644 34.9797 374.167 35.0753 373.498C35.362 372.064 35.7443 369.961 36.3178 367.476C37.3691 362.316 39.0894 355.339 41.0964 347.597C43.199 339.856 45.2061 332.975 46.8308 328.005C47.5954 325.52 48.36 323.513 48.8379 322.175C49.029 321.506 49.2201 321.028 49.4113 320.55C49.5069 320.168 49.6024 319.977 49.6024 319.977Z" fill="#4A5761"/>
<path d="M59.924 346.173C60.0196 346.269 55.9099 352.481 50.6534 360.031C45.3969 367.581 41.0005 373.602 40.9049 373.507C40.8094 373.411 44.919 367.199 50.2711 359.649C55.3365 352.194 59.7329 346.077 59.924 346.173Z" fill="#4A5761"/>
<path d="M18.7321 374.65C18.7321 374.746 17.9675 374.172 16.8206 373.312C15.6737 372.452 14.2401 371.114 12.8065 369.585C11.2774 368.055 10.0349 366.526 9.17474 365.475C8.31458 364.328 7.83672 363.659 7.93229 363.564C8.02786 363.468 10.3216 366.144 13.2844 369.202C16.2472 372.261 18.8276 374.554 18.7321 374.65Z" fill="#4A5761"/>
<path d="M31.7303 364.903C31.9214 364.903 32.2081 367.197 32.4948 369.969C32.7816 372.74 32.7816 375.034 32.686 375.13C32.4948 375.13 32.2081 372.836 31.9214 370.064C31.6347 367.197 31.5391 364.903 31.7303 364.903Z" fill="#4A5761"/>
<path d="M7.2643 41.0008C7.2643 41.0008 7.2643 41.192 7.16873 41.6699C7.07315 42.1477 6.97758 42.7212 6.88201 43.4857C6.69086 45.1105 6.49972 47.4998 6.59529 50.6537C6.78644 53.8077 7.35987 57.535 8.88905 61.7402C10.4182 65.8499 12.8075 70.4374 16.5349 74.6426C17.4906 75.6939 18.4464 76.7452 19.5932 77.701C20.6446 78.7523 21.887 79.6124 23.0339 80.5682C23.6073 81.046 24.2763 81.4283 24.9453 81.8106L25.9011 82.4796C26.1878 82.6708 26.5701 82.8619 26.9524 83.0531C27.6214 83.4354 28.386 83.8176 29.055 84.1999C29.8196 84.5822 30.4886 84.869 31.2532 85.1557C37.3699 87.3539 44.6334 88.0229 51.897 86.7804C55.5288 86.1114 59.1606 85.0601 62.6968 83.5309C64.4171 82.7663 66.233 81.9062 67.8577 80.8549C68.7179 80.377 69.578 79.8036 70.3426 79.2301C71.2028 78.6567 71.8718 77.9877 72.6364 77.3187C78.4663 71.871 82.8627 64.3207 84.3919 56.0058C85.252 51.8006 85.252 47.5954 84.6786 43.4857C84.4875 41.3831 83.914 39.4717 83.4362 37.4646C83.1494 36.5089 82.7671 35.5532 82.3848 34.5974C82.1937 34.1196 82.0026 33.6417 81.8114 33.1638L81.1424 31.8258C79.4221 28.194 77.2239 24.849 74.6434 22.0773L73.6877 21.026L72.6364 20.0703C71.9674 19.4013 71.2984 18.7323 70.5338 18.1588C69.0046 17.012 67.571 15.8651 65.9463 15.0049C59.6384 11.0864 52.566 9.46169 46.067 9.46169C44.4423 9.36611 42.8175 9.65283 41.2884 9.74841C40.5238 9.74841 39.7592 9.93955 38.9946 10.1307C38.23 10.3218 37.4654 10.4174 36.7009 10.6086C35.2673 11.0864 33.8337 11.3731 32.4001 11.9466C31.731 12.2333 31.062 12.52 30.393 12.8067C29.724 13.0935 29.055 13.2846 28.4816 13.6669C23.5118 16.1518 19.4977 19.4013 16.5349 22.6508C15.1013 24.3711 13.7633 25.9003 12.8075 27.6206C12.5208 28.0029 12.3297 28.3852 12.043 28.7675C11.7562 29.1498 11.5651 29.5321 11.374 29.9144C10.9917 30.6789 10.6094 31.4435 10.2271 32.1125C10.0359 32.4948 9.84478 32.7815 9.74921 33.1638C9.65363 33.5461 9.46248 33.8329 9.36691 34.1196C9.08019 34.7886 8.88904 35.362 8.6979 35.9355C8.22003 37.0823 8.02889 38.0381 7.83774 38.8027C7.64659 39.5672 7.45545 40.1407 7.35988 40.6186C7.2643 40.8097 7.2643 41.0008 7.2643 41.0008C7.2643 41.0008 7.2643 40.8097 7.35988 40.3318C7.45545 39.9495 7.64659 39.2805 7.83774 38.5159C8.02889 37.7514 8.22003 36.7 8.6979 35.5532C8.88904 34.9797 9.17576 34.4063 9.36691 33.7373C9.46248 33.4506 9.65363 33.0683 9.74921 32.686C9.94035 32.3993 10.0359 32.017 10.2271 31.6347C10.6094 30.9657 10.9917 30.2011 11.374 29.4365C11.5651 29.0542 11.7562 28.6719 12.043 28.2896C12.3297 27.9073 12.5208 27.525 12.8075 27.1427C13.7633 25.518 15.1013 23.8932 16.5349 22.1729C19.4977 18.8279 23.5117 15.5784 28.5771 12.9979C29.1506 12.6156 29.8196 12.4245 30.4886 12.1377C31.1576 11.851 31.8266 11.5643 32.4956 11.2776C33.8337 10.7997 35.3628 10.4174 36.7964 9.93955C37.561 9.74841 38.3256 9.65283 39.0902 9.46169C39.8548 9.36611 40.6194 9.07939 41.3839 9.07939C43.0087 8.98382 44.6334 8.6971 46.2582 8.79267C52.8527 8.79267 60.0207 10.4174 66.4241 14.4315C68.0489 15.2916 69.4825 16.5341 71.0116 17.681C71.7762 18.2544 72.4452 18.9234 73.1142 19.5924L74.1656 20.5482L75.1213 21.5995C77.7973 24.4667 79.9955 27.8117 81.7158 31.4435L82.3848 32.8771C82.576 33.355 82.8627 33.8329 82.9583 34.3107C83.3406 35.2665 83.6273 36.2222 84.0096 37.1779C84.4875 39.185 85.0609 41.192 85.3476 43.2946C85.9211 47.4043 85.9211 51.705 85.0609 56.0058C83.5317 64.5119 79.1354 72.1577 73.2098 77.6054C72.4452 78.2744 71.6806 78.9434 70.8205 79.5168C69.9603 80.0903 69.1002 80.6637 68.24 81.1416C66.5197 82.1929 64.7994 83.0531 62.9835 83.8176C59.4473 85.3468 55.7199 86.4937 52.0881 87.0671C44.729 88.214 37.4654 87.6406 31.2532 85.3468C30.4886 85.0601 29.724 84.7734 28.9594 84.3911C28.1948 84.0088 27.5258 83.6265 26.8568 83.2442C26.4745 83.0531 26.1878 82.8619 25.8055 82.6708L24.8498 82.0018C24.1808 81.5239 23.5117 81.1416 22.9383 80.7593C21.6959 79.8036 20.549 78.9434 19.4021 77.8921C18.2552 76.9364 17.2995 75.8851 16.3438 74.8338C12.6164 70.6285 10.2271 66.041 8.6979 61.8358C7.16873 57.6306 6.59529 53.8077 6.49971 50.6537C6.40414 47.4998 6.59529 45.1105 6.88201 43.4857C6.97758 42.7212 7.07315 42.0521 7.16873 41.6699C7.16873 41.192 7.2643 41.0008 7.2643 41.0008Z" fill="#354147"/>
<path d="M76.0762 87.1673C76.1718 87.1673 76.0762 86.5939 76.363 85.5426C76.6497 84.4913 77.3187 83.0577 78.8479 81.9108C80.2815 80.7639 82.7664 80.1905 85.0601 81.0506C86.207 81.4329 87.2583 82.1975 88.0229 83.3444C88.7875 84.3957 89.2653 85.7337 89.2653 87.1673C89.2653 88.6009 88.7875 89.9389 88.0229 90.9902C87.2583 92.0415 86.207 92.8061 84.9646 93.284C82.6708 94.1442 80.2815 93.4751 78.7523 92.4238C77.2231 91.277 76.5541 89.8434 76.2674 88.7921C76.1718 87.7407 76.1718 87.0717 76.0762 87.1673C76.0762 87.1673 76.0762 87.3585 76.0762 87.5496C76.0762 87.8363 76.0762 88.2186 76.2674 88.7921C76.4585 89.8434 77.1275 91.3725 78.7523 92.615C80.2815 93.8574 82.8619 94.622 85.3468 93.6663C86.5893 93.284 87.7362 92.4238 88.5963 91.277C89.4565 90.1301 89.9344 88.6009 89.9344 87.1673C89.9344 85.6381 89.4565 84.109 88.5963 83.0577C87.7362 81.9108 86.5893 81.0506 85.3468 80.6683C82.8619 79.8082 80.2815 80.4772 78.7523 81.7196C77.2231 82.9621 76.5541 84.4913 76.2674 85.5426C76.1718 86.116 76.0762 86.4983 76.0762 86.785C76.0762 86.9762 76.0762 87.1673 76.0762 87.1673Z" fill="#354147"/>
<path d="M37.7513 48.2636C37.7513 50.2707 36.1266 51.8954 34.1196 51.8954C32.1125 51.8954 30.4878 50.2707 30.4878 48.2636C30.4878 46.2566 32.1125 44.6318 34.1196 44.6318C36.1266 44.7274 37.7513 46.3522 37.7513 48.2636Z" fill="#354147"/>
<path d="M49.6025 48.2636C49.6025 50.2707 47.9778 51.8954 45.9707 51.8954C43.9637 51.8954 42.3389 50.2707 42.3389 48.2636C42.3389 46.2566 43.9637 44.6318 45.9707 44.6318C47.9778 44.7274 49.6025 46.3522 49.6025 48.2636Z" fill="#354147"/>
<path d="M61.4537 48.2636C61.4537 50.2707 59.8289 51.8954 57.8219 51.8954C55.8148 51.8954 54.1901 50.2707 54.1901 48.2636C54.1901 46.2566 55.8148 44.6318 57.8219 44.6318C59.8289 44.7274 61.4537 46.3522 61.4537 48.2636Z" fill="#354147"/>
<path d="M403.988 308.597C403.988 308.501 405.04 308.692 406.855 308.119C407.811 307.832 408.862 307.259 409.914 306.399C410.965 305.443 412.016 304.201 412.685 302.48C413.068 301.62 413.163 300.664 413.259 299.613C413.259 298.562 413.259 297.51 413.259 296.364C413.259 294.07 413.259 291.68 413.259 289.1C413.259 286.519 413.259 283.652 413.259 280.69C413.259 279.256 413.259 277.727 413.259 276.102C413.259 274.573 413.354 272.948 413.068 271.323C412.494 268.169 409.914 265.207 406.473 264.251C404.753 263.773 402.937 263.964 401.025 263.869C399.114 263.869 397.203 263.869 395.291 263.869C387.55 263.869 379.235 263.869 370.538 263.869C353.143 263.869 333.933 263.869 313.767 263.869C311.282 263.869 308.893 264.824 307.173 266.64C305.452 268.361 304.497 270.75 304.497 273.139C304.497 278.013 304.497 282.888 304.497 287.571C304.497 289.96 304.497 292.254 304.497 294.643C304.497 295.79 304.497 296.937 304.497 298.084C304.497 299.231 304.497 300.378 304.879 301.429C305.452 303.531 306.886 305.443 308.702 306.685C309.562 307.259 310.613 307.737 311.665 307.928C312.716 308.215 313.767 308.215 314.914 308.215C332.308 308.215 348.078 308.215 361.267 308.31C374.456 308.31 385.16 308.406 392.519 308.406C396.247 308.406 399.018 308.406 401.025 308.406C401.981 308.406 402.746 308.406 403.224 308.406C403.797 308.597 403.988 308.597 403.988 308.597C403.988 308.597 403.701 308.597 403.224 308.597C402.746 308.597 401.981 308.597 401.025 308.597C399.114 308.597 396.247 308.597 392.519 308.597C385.16 308.597 374.456 308.597 361.267 308.692C348.078 308.692 332.404 308.692 314.914 308.788C313.863 308.788 312.716 308.788 311.569 308.501C310.518 308.215 309.371 307.832 308.415 307.163C306.504 305.921 305.07 303.914 304.401 301.62C304.114 300.473 304.019 299.326 304.019 298.179C304.019 297.033 304.019 295.886 304.019 294.739C304.019 292.445 304.019 290.056 304.019 287.666C304.019 282.888 304.019 278.109 304.019 273.235C304.019 270.75 304.974 268.169 306.79 266.354C308.606 264.538 311.091 263.486 313.672 263.486C333.837 263.486 352.952 263.486 370.442 263.486C379.139 263.486 387.454 263.486 395.195 263.486C397.107 263.486 399.018 263.486 400.93 263.486C401.886 263.486 402.841 263.486 403.701 263.486C404.657 263.486 405.613 263.582 406.473 263.869C410.009 264.824 412.685 267.883 413.259 271.228C413.354 272.088 413.45 272.852 413.45 273.713C413.45 274.477 413.45 275.337 413.45 276.102C413.45 277.631 413.45 279.16 413.45 280.69C413.45 283.652 413.45 286.424 413.45 289.1C413.45 291.68 413.45 294.165 413.45 296.364C413.45 297.51 413.45 298.562 413.45 299.613C413.45 300.664 413.163 301.62 412.877 302.48C412.208 304.201 411.061 305.539 410.009 306.494C408.862 307.45 407.811 307.928 406.855 308.215C405.9 308.501 405.135 308.597 404.657 308.597C404.275 308.597 403.988 308.597 403.988 308.597Z" fill="#354147"/>
<path d="M394.622 289.108H344.733C342.917 289.108 341.388 287.579 341.388 285.763C341.388 283.947 342.917 282.418 344.733 282.418H394.622C396.438 282.418 397.967 283.947 397.967 285.763C397.967 287.579 396.438 289.108 394.622 289.108Z" fill="#E0E0E0"/>
<path d="M330.301 293.974H324.567C321.891 293.974 319.693 291.775 319.693 289.099V283.365C319.693 280.689 321.891 278.491 324.567 278.491H330.301C332.977 278.491 335.175 280.689 335.175 283.365V289.099C335.175 291.775 332.977 293.974 330.301 293.974Z" fill="#FF4917"/>
<path d="M322.082 286.434L323.611 284.81L326.67 287.486L331.735 282.42L333.169 284.045L326.479 290.544L322.082 286.434Z" fill="white"/>
<path d="M410.965 219.441C410.965 219.441 411.061 219.441 411.252 219.441C411.443 219.441 411.73 219.441 412.016 219.345C412.685 219.25 413.737 219.059 414.788 218.39C415.935 217.721 417.177 216.574 417.846 214.758C418.611 212.942 418.324 210.648 418.324 208.163C418.324 198.128 418.324 183.505 418.229 165.538C418.229 161.046 418.229 156.363 418.229 151.393C418.229 150.15 418.229 148.908 418.229 147.666C418.229 146.423 418.324 145.181 418.038 143.938C417.56 141.549 415.744 139.351 413.259 138.491C412.016 138.013 410.774 138.108 409.34 138.108C407.907 138.108 406.664 138.108 405.326 138.108C402.555 138.108 399.783 138.108 397.011 138.108C391.373 138.108 385.543 138.108 379.617 138.108C355.819 138.108 329.728 138.108 302.298 138.108C300.674 138.108 298.953 138.682 297.711 139.733C296.468 140.784 295.513 142.218 295.226 143.843C295.035 144.607 295.035 145.467 295.035 146.328V148.812C295.035 150.533 295.035 152.157 295.035 153.878C295.035 160.568 295.035 167.162 295.035 173.566C295.035 186.468 295.035 198.988 295.035 210.839C295.035 212.369 295.13 213.802 295.799 215.045C296.468 216.287 297.424 217.434 298.667 218.103C299.909 218.868 301.247 219.154 302.681 219.059C304.114 219.059 305.548 219.059 306.981 219.059C312.62 219.059 318.068 219.059 323.324 219.059C333.933 219.059 343.777 219.059 352.761 219.059C370.729 219.059 385.256 219.154 395.291 219.154C400.261 219.154 404.179 219.154 406.855 219.154C408.194 219.154 409.149 219.154 409.818 219.154C410.678 219.441 410.965 219.441 410.965 219.441C410.965 219.441 410.583 219.441 409.914 219.441C409.245 219.441 408.194 219.441 406.951 219.441C404.275 219.441 400.357 219.441 395.387 219.441C385.352 219.441 370.729 219.441 352.857 219.537C343.873 219.537 334.029 219.537 323.42 219.537C318.164 219.537 312.716 219.537 307.077 219.537C305.643 219.537 304.21 219.537 302.776 219.537C301.343 219.537 299.813 219.25 298.571 218.485C297.233 217.721 296.182 216.574 295.513 215.236C294.748 213.898 294.653 212.273 294.653 210.839C294.653 198.988 294.653 186.468 294.653 173.566C294.653 167.067 294.653 160.568 294.653 153.878C294.653 152.157 294.653 150.533 294.653 148.812V146.328C294.653 145.467 294.653 144.607 294.844 143.747C295.226 142.027 296.182 140.498 297.52 139.351C298.858 138.204 300.674 137.63 302.394 137.63C329.823 137.63 355.915 137.63 379.713 137.63C385.638 137.63 391.468 137.63 397.107 137.63C399.974 137.63 402.746 137.63 405.422 137.63C406.76 137.63 408.194 137.63 409.436 137.63C410.774 137.63 412.208 137.535 413.45 138.013C416.031 138.873 417.942 141.167 418.515 143.747C418.802 145.085 418.611 146.328 418.707 147.57C418.707 148.812 418.707 150.055 418.707 151.297C418.707 156.172 418.707 160.95 418.707 165.442C418.707 183.41 418.611 197.937 418.611 208.068C418.611 209.31 418.611 210.553 418.611 211.604C418.611 212.751 418.42 213.802 418.038 214.662C417.273 216.478 416.031 217.625 414.884 218.294C413.737 218.963 412.685 219.154 412.016 219.25C411.347 219.441 410.965 219.441 410.965 219.441Z" fill="#354147"/>
<path d="M370.442 185.218C368.53 185.218 367.097 186.747 367.097 188.563V200.701C367.097 202.517 368.626 204.046 370.442 204.046C372.353 204.046 373.787 202.517 373.787 200.701V188.563C373.883 186.747 372.353 185.218 370.442 185.218Z" fill="#FF4917"/>
<path d="M314.054 182.564C312.142 182.564 310.709 184.093 310.709 185.909V200.818C310.709 202.634 312.238 204.164 314.054 204.164C315.965 204.164 317.399 202.634 317.399 200.818V185.909C317.399 184.093 315.87 182.564 314.054 182.564Z" fill="#FF4917"/>
<path d="M328.198 178.05C326.287 178.05 324.853 179.579 324.853 181.395V200.796C324.853 202.612 326.382 204.141 328.198 204.141C330.11 204.141 331.543 202.612 331.543 200.796V181.395C331.543 179.579 330.014 178.05 328.198 178.05Z" fill="#FF4917"/>
<path d="M342.248 179.483C340.336 179.483 338.903 181.013 338.903 182.828V200.796C338.903 202.612 340.432 204.141 342.248 204.141C344.159 204.141 345.593 202.612 345.593 200.796V182.924C345.593 181.013 344.159 179.483 342.248 179.483Z" fill="#FF4917"/>
<path d="M356.393 171.093C354.481 171.093 353.047 172.622 353.047 174.438V200.721C353.047 202.537 354.577 204.066 356.393 204.066C358.304 204.066 359.738 202.537 359.738 200.721V174.438C359.738 172.622 358.208 171.093 356.393 171.093Z" fill="#FF4917"/>
<path d="M384.587 171.277C382.675 171.277 381.242 172.806 381.242 174.622V200.713C381.242 202.529 382.771 204.058 384.587 204.058C386.498 204.058 387.932 202.529 387.932 200.713V174.622C387.932 172.806 386.403 171.277 384.587 171.277Z" fill="#FF4917"/>
<path d="M398.636 182.076C396.725 182.076 395.291 183.605 395.291 185.421V200.712C395.291 202.528 396.82 204.058 398.636 204.058C400.548 204.058 401.981 202.528 401.981 200.712V185.421C402.077 183.605 400.548 182.076 398.636 182.076Z" fill="#FF4917"/>
<path d="M337.851 157.314H311.76C310.231 157.314 308.988 156.072 308.988 154.543V153.969C308.988 152.44 310.231 151.198 311.76 151.198H337.851C339.38 151.198 340.623 152.44 340.623 153.969V154.543C340.623 156.072 339.38 157.314 337.851 157.314Z" fill="#E0E0E0"/>
<path d="M84.1043 149.282H0.0954571V137.335C0.0954571 134.468 2.38922 132.174 5.25641 132.174H78.9434C81.8106 132.174 84.1043 134.468 84.1043 137.335V149.282Z" fill="#354147"/>
<path d="M13.858 141.639C13.858 143.359 12.5199 144.793 10.7996 144.793C9.07931 144.793 7.74128 143.359 7.74128 141.639C7.74128 139.918 9.07931 138.485 10.7996 138.485C12.5199 138.58 13.858 139.918 13.858 141.639Z" fill="white"/>
<path d="M23.3199 141.639C23.3199 143.359 21.9819 144.793 20.2616 144.793C18.5413 144.793 17.2033 143.359 17.2033 141.639C17.2033 139.918 18.5413 138.485 20.2616 138.485C21.8863 138.58 23.3199 139.918 23.3199 141.639Z" fill="white"/>
<path d="M32.6858 141.639C32.6858 143.359 31.3478 144.793 29.6275 144.793C27.9072 144.793 26.5691 143.359 26.5691 141.639C26.5691 139.918 27.9072 138.485 29.6275 138.485C31.3478 138.58 32.6858 139.918 32.6858 141.639Z" fill="white"/>
<path d="M63.3649 198.508H20.9304C18.0632 198.508 15.6739 196.214 15.6739 193.251V162.859C15.6739 159.992 18.0632 157.603 20.9304 157.603H63.3649C66.2321 157.603 68.6214 159.896 68.6214 162.859V193.251C68.6214 196.119 66.2321 198.508 63.3649 198.508Z" fill="#FF4917"/>
<path d="M36.2222 177.669V171.361C36.2222 169.832 37.9425 168.876 39.2805 169.641L44.7282 172.795L50.1759 175.949C51.5139 176.713 51.5139 178.625 50.1759 179.389L44.7282 182.543L39.2805 185.697C37.9425 186.462 36.2222 185.506 36.2222 183.977V177.669Z" fill="white"/>
<path d="M79.8036 207.203C79.8036 207.203 80.0904 207.203 80.5682 207.108C81.0461 207.012 81.8107 206.725 82.6708 206.056C83.4354 205.387 84.1044 204.241 84.1044 202.711C84.1044 201.182 84.1044 199.462 84.1044 197.55C84.1044 189.713 84.0089 178.34 84.0089 164.386C84.0089 157.41 84.0089 149.668 84.0089 141.449C84.0089 140.398 84.0089 139.346 84.0089 138.295C84.0089 137.722 84.0089 137.244 83.9133 136.766C83.8177 136.288 83.7221 135.81 83.531 135.332C83.1487 134.377 82.3841 133.612 81.4284 133.134C80.9505 132.847 80.4726 132.752 79.9948 132.561C79.5169 132.465 78.9435 132.465 78.37 132.465C73.9737 132.465 69.4817 132.465 64.7986 132.465C55.528 132.465 45.7796 132.465 35.7444 132.465C30.679 132.465 25.6136 132.465 20.3571 132.465C17.7766 132.465 15.1006 132.465 12.5201 132.465C11.1821 132.465 9.84404 132.465 8.50602 132.465H6.49898C5.82997 132.465 5.16095 132.465 4.58751 132.561C3.34506 132.752 2.19818 133.421 1.4336 134.472C1.05131 134.95 0.764586 135.523 0.669013 136.192C0.477867 136.766 0.477866 137.435 0.477866 138.104C0.477866 140.78 0.477866 143.36 0.477866 145.941C0.477866 151.102 0.477866 156.263 0.477866 161.328C0.477866 171.459 0.477866 181.112 0.477866 190.382C0.477866 192.676 0.477866 194.97 0.477866 197.264C0.477866 198.411 0.477866 199.557 0.477866 200.609C0.477866 201.182 0.477866 201.756 0.477866 202.233C0.477866 202.807 0.477865 203.285 0.573438 203.858C0.860157 204.91 1.4336 205.77 2.29376 206.343C2.77162 206.63 3.24949 206.821 3.72736 206.917C4.20522 207.012 4.77866 207.012 5.25653 207.012C7.35914 207.012 9.46175 207.012 11.5644 207.012C19.7837 207.012 27.5251 207.012 34.5019 207.012C48.5512 207.012 59.8288 207.108 67.6658 207.108C71.5843 207.108 74.6427 207.108 76.6497 207.203C77.701 207.203 78.4656 207.203 79.039 207.203C79.5169 207.203 79.8036 207.203 79.8036 207.203C79.8036 207.203 79.5169 207.203 79.039 207.203C78.4656 207.203 77.701 207.203 76.6497 207.203C74.5471 207.203 71.5843 207.203 67.6658 207.299C59.8288 207.299 48.4556 207.394 34.5019 207.394C27.5251 207.394 19.7837 207.394 11.5644 207.394C9.46175 207.394 7.45471 207.394 5.25653 207.394C4.77866 207.394 4.20522 207.394 3.63178 207.299C3.05834 207.203 2.58048 206.917 2.10261 206.63C1.14688 206.056 0.382294 205.005 0.191147 203.858C7.26317e-07 203.285 0 202.711 0 202.138C0 201.564 0 200.991 0 200.513C0 199.366 0 198.315 0 197.168C0 194.874 0 192.581 0 190.287C0 181.016 0 171.268 0 161.233C0 156.167 0 151.102 0 145.845C0 143.265 0 140.589 0 138.008C0 137.339 7.26317e-07 136.67 0.191147 136.001C0.382294 135.332 0.669011 134.663 1.0513 134.09C1.91146 132.943 3.15392 132.178 4.58751 131.987C5.25653 131.892 5.92554 131.892 6.59455 131.892H8.60159C9.93961 131.892 11.2776 131.892 12.6157 131.892C15.2917 131.892 17.8722 131.892 20.4527 131.892C25.7092 131.892 30.7746 131.892 35.84 131.892C45.9707 131.892 55.6236 131.892 64.8942 131.892C69.4817 131.892 74.0692 131.892 78.4656 131.892C79.039 131.892 79.6125 131.892 80.1859 131.987C80.7594 132.083 81.2372 132.274 81.8107 132.561C82.7664 133.134 83.6266 133.994 84.0089 134.95C84.2 135.428 84.3911 136.001 84.4867 136.575C84.5823 137.148 84.5823 137.626 84.5823 138.199C84.5823 139.251 84.5823 140.302 84.5823 141.353C84.5823 149.573 84.5823 157.314 84.5823 164.291C84.5823 178.34 84.4867 189.618 84.4867 197.455C84.4867 199.462 84.4867 201.182 84.4867 202.616C84.4867 204.145 83.7221 205.387 82.9575 206.056C82.193 206.725 81.3328 207.012 80.8549 207.108C80.5682 207.108 80.3771 207.203 80.2815 207.203C79.8992 207.203 79.8036 207.203 79.8036 207.203Z" fill="#354147"/>
<path d="M347.408 62.2205H242.469V50.3694C242.469 47.5022 244.763 45.2085 247.63 45.2085H342.247C345.115 45.2085 347.408 47.5022 347.408 50.3694V62.2205Z" fill="#354147"/>
<path d="M256.518 54.5745C256.518 56.2948 255.085 57.6328 253.46 57.6328C251.74 57.6328 250.402 56.2948 250.402 54.5745C250.402 52.8541 251.835 51.5161 253.46 51.5161C255.085 51.5161 256.518 52.8541 256.518 54.5745Z" fill="white"/>
<path d="M265.98 54.5745C265.98 56.2948 264.546 57.6328 262.922 57.6328C261.201 57.6328 259.863 56.2948 259.863 54.5745C259.863 52.8541 261.297 51.5161 262.922 51.5161C264.546 51.5161 265.98 52.8541 265.98 54.5745Z" fill="white"/>
<path d="M275.537 54.5745C275.537 56.2948 274.104 57.6328 272.479 57.6328C270.759 57.6328 269.421 56.2948 269.421 54.5745C269.421 52.8541 270.854 51.5161 272.479 51.5161C274.104 51.5161 275.537 52.8541 275.537 54.5745Z" fill="white"/>
<path d="M285.955 109.721H255.658C253.556 109.721 251.835 108.001 251.835 105.898V75.6012C251.835 73.4986 253.556 71.7783 255.658 71.7783H285.955C288.058 71.7783 289.778 73.4986 289.778 75.6012V105.898C289.778 108.001 288.058 109.721 285.955 109.721Z" fill="#FF886C"/>
<path d="M336.418 79.6127H301.342C300.291 79.6127 299.431 78.7525 299.431 77.6057C299.431 76.5544 300.291 75.5986 301.342 75.5986H336.418C337.469 75.5986 338.329 76.4588 338.329 77.6057C338.329 78.7525 337.469 79.6127 336.418 79.6127Z" fill="#E0E0E0"/>
<path d="M336.418 88.599H301.342C300.291 88.599 299.431 87.7389 299.431 86.592C299.431 85.5407 300.291 84.585 301.342 84.585H336.418C337.469 84.585 338.329 85.4451 338.329 86.592C338.329 87.6433 337.469 88.599 336.418 88.599Z" fill="#E0E0E0"/>
<path d="M336.418 97.4848H301.342C300.291 97.4848 299.431 96.6246 299.431 95.4777C299.431 94.4264 300.291 93.4707 301.342 93.4707H336.418C337.469 93.4707 338.329 94.3309 338.329 95.4777C338.329 96.6246 337.469 97.4848 336.418 97.4848Z" fill="#E0E0E0"/>
<path d="M319.214 106.471H301.342C300.291 106.471 299.431 105.611 299.431 104.464C299.431 103.413 300.291 102.457 301.342 102.457H319.214C320.266 102.457 321.126 103.317 321.126 104.464C321.126 105.611 320.266 106.471 319.214 106.471Z" fill="#E0E0E0"/>
<path d="M343.108 119.664C343.108 119.664 343.394 119.664 343.968 119.568C344.541 119.473 345.401 119.091 346.262 118.23C346.644 117.848 347.026 117.275 347.217 116.606C347.409 115.937 347.409 115.172 347.409 114.312C347.409 112.592 347.409 110.585 347.409 108.386C347.409 99.4981 347.409 86.6913 347.313 70.8261C347.313 66.812 347.313 62.7024 347.313 58.4016C347.313 56.2034 347.313 54.0052 347.313 51.807C347.313 50.6602 347.409 49.5133 346.931 48.5576C346.453 47.5063 345.688 46.6461 344.732 46.1682C344.255 45.8815 343.681 45.6904 343.108 45.5948C342.534 45.4992 341.961 45.4992 341.387 45.4992C340.241 45.4992 338.998 45.4992 337.756 45.4992C335.366 45.4992 332.881 45.4992 330.397 45.4992C325.427 45.4992 320.361 45.4992 315.105 45.4992C304.592 45.4992 293.601 45.4992 282.228 45.4992C276.493 45.4992 270.759 45.4992 264.833 45.4992C261.871 45.4992 258.908 45.4992 255.945 45.4992C254.416 45.4992 252.982 45.4992 251.453 45.4992H249.159C248.395 45.4992 247.63 45.4992 246.961 45.5948C245.527 45.7859 244.189 46.6461 243.52 47.8885C243.138 48.462 242.947 49.2266 242.851 49.8956C242.851 50.5646 242.851 51.4248 242.851 52.0938C242.851 55.0565 242.851 58.0193 242.851 60.9821C242.851 66.9076 242.851 72.642 242.851 78.3764C242.851 89.7496 242.851 100.836 242.851 111.254C243.043 113.834 242.182 116.797 244.285 118.422C244.763 118.804 245.241 119.091 245.91 119.282C246.483 119.473 247.057 119.473 247.726 119.473C248.968 119.473 250.211 119.473 251.453 119.473C256.423 119.473 261.201 119.473 265.885 119.473C275.251 119.473 283.852 119.473 291.785 119.473C307.65 119.473 320.457 119.568 329.345 119.568C333.742 119.568 337.182 119.568 339.572 119.664C340.718 119.664 341.579 119.664 342.248 119.664C342.725 119.664 343.108 119.664 343.108 119.664C343.108 119.664 342.821 119.664 342.152 119.664C341.579 119.664 340.623 119.664 339.476 119.664C337.087 119.664 333.742 119.664 329.25 119.76C320.361 119.76 307.555 119.855 291.689 119.855C283.757 119.855 275.06 119.855 265.789 119.855C261.106 119.855 256.327 119.855 251.357 119.855C250.115 119.855 248.873 119.855 247.63 119.855C247.057 119.855 246.292 119.855 245.719 119.664C245.05 119.473 244.476 119.186 243.998 118.708C242.947 117.848 242.374 116.51 242.374 115.172C242.374 113.834 242.374 112.592 242.374 111.254C242.374 100.741 242.374 89.7496 242.374 78.3764C242.374 72.642 242.374 66.812 242.374 60.9821C242.374 58.0193 242.374 55.0565 242.374 52.0938C242.374 51.3292 242.374 50.6602 242.374 49.8C242.469 49.0354 242.756 48.2708 243.138 47.6018C243.903 46.2638 245.336 45.3081 246.961 45.0214C247.726 44.9258 248.49 44.9258 249.255 44.9258H251.549C253.078 44.9258 254.511 44.9258 256.041 44.9258C259.003 44.9258 261.966 44.9258 264.929 44.9258C270.854 44.9258 276.589 44.9258 282.323 44.9258C293.696 44.9258 304.783 44.9258 315.2 44.9258C320.457 44.9258 325.522 44.9258 330.492 44.9258C332.977 44.9258 335.462 44.9258 337.851 44.9258C339.094 44.9258 340.241 44.9258 341.483 44.9258C342.056 44.9258 342.63 44.9258 343.299 45.0214C343.872 45.1169 344.446 45.3081 345.019 45.5948C346.07 46.1682 346.931 47.124 347.409 48.2708C347.6 48.8443 347.791 49.4177 347.791 49.9912C347.791 50.5646 347.791 51.138 347.791 51.7115C347.791 53.9097 347.791 56.2034 347.791 58.306C347.791 62.6068 347.791 66.812 347.791 70.7305C347.791 86.5957 347.695 99.4025 347.695 108.291C347.695 110.489 347.695 112.496 347.695 114.216C347.695 115.077 347.695 115.841 347.504 116.606C347.313 117.275 346.931 117.848 346.548 118.326C345.688 119.186 344.828 119.473 344.255 119.568C343.394 119.664 343.108 119.664 343.108 119.664Z" fill="#354147"/>
<path d="M251.931 98.9255V105.998C251.931 108.005 253.556 109.63 255.563 109.63H286.051C288.153 109.63 289.778 107.909 289.778 105.902V94.5291L280.985 86.3098C280.03 85.3541 278.405 85.4497 277.545 86.501L270.663 94.4336L263.782 91.2796C262.54 90.7062 261.106 90.8973 260.055 91.8531L251.931 98.9255Z" fill="#FF4917"/>
<path d="M269.038 85.2499C270.939 85.2499 272.479 83.7095 272.479 81.8093C272.479 79.9091 270.939 78.3687 269.038 78.3687C267.138 78.3687 265.598 79.9091 265.598 81.8093C265.598 83.7095 267.138 85.2499 269.038 85.2499Z" fill="#FF4917"/>
<path d="M123.958 168.114C126.539 165.916 130.171 165.342 132.751 163.144C135.332 161.042 136.574 157.505 136.765 154.16C136.956 150.815 136.192 147.47 135.332 144.221L163.144 179.105C160.945 182.928 158.556 186.846 155.115 189.618C151.675 192.39 146.896 193.919 142.691 192.39C138.486 190.86 135.714 185.699 137.625 181.781C133.898 185.222 127.399 185.317 123.767 181.781C120.04 178.245 120.04 171.459 123.958 168.114Z" fill="#354147"/>
<path d="M204.24 66.2285C211.026 71.1983 212.077 76.0726 212.364 78.653C212.46 79.4176 212.364 80.3733 211.599 80.6601C211.217 80.7556 210.835 80.6601 210.453 80.5645C202.902 78.2707 195.448 75.977 187.897 73.6832" fill="#263238"/>
<path d="M141.927 154.175C136.861 145.096 131.796 135.921 128.355 126.077C124.915 116.233 123.194 105.624 124.819 95.3023C125.106 93.7731 127.782 83.0689 129.311 82.9734C130.458 82.8778 129.406 92.5307 130.171 93.3908C137.244 101.515 140.875 112.219 142.118 122.923C143.36 133.627 143.073 143.471 141.927 154.175Z" fill="#263238"/>
<path d="M152.63 209.511L133.229 115.371C127.399 89.9489 137.243 65.2911 162.856 60.1301L165.341 59.7478C189.426 56.3072 212.172 71.9812 217.524 95.6833C222.494 117.761 227.655 142.227 229.28 154.27C232.529 179.119 208.253 186.478 208.253 186.478C208.158 186.478 212.841 211.614 214.179 218.782L176.619 223.56L167.635 224.42L152.63 209.511Z" fill="#FFBF9D"/>
<path d="M208.159 186.551C208.159 186.551 192.676 189.705 174.518 181.582C174.518 181.582 184.935 199.167 209.402 193.433L208.159 186.551Z" fill="#FF9A6C"/>
<path d="M212.938 119.968C213.32 121.784 211.982 123.696 210.071 123.983C208.159 124.365 206.343 123.122 205.961 121.306C205.579 119.491 206.917 117.579 208.828 117.292C210.74 116.91 212.556 118.153 212.938 119.968Z" fill="#354147"/>
<path d="M213.701 107.414C213.319 107.987 210.356 106.362 206.533 106.84C202.71 107.318 200.225 109.708 199.747 109.325C199.556 109.134 199.843 108.274 200.894 107.223C201.946 106.171 203.857 105.024 206.246 104.738C208.636 104.451 210.738 105.024 211.981 105.789C213.414 106.458 213.892 107.223 213.701 107.414Z" fill="#354147"/>
<path d="M180.059 124.617C180.441 126.433 179.103 128.344 177.096 128.631C175.185 129.013 173.369 127.771 172.987 125.955C172.604 124.139 173.942 122.228 175.854 121.941C177.861 121.559 179.677 122.705 180.059 124.617Z" fill="#354147"/>
<path d="M176.428 113.651C176.045 114.225 173.083 112.6 169.26 113.078C165.437 113.556 162.952 115.945 162.474 115.563C162.283 115.371 162.57 114.511 163.621 113.46C164.672 112.409 166.584 111.262 168.973 110.975C171.362 110.688 173.465 111.262 174.803 112.026C176.141 112.695 176.619 113.46 176.428 113.651Z" fill="#354147"/>
<path d="M194.301 141.081C194.206 140.89 196.595 140.126 200.322 139.074C201.278 138.883 202.138 138.501 202.234 137.832C202.329 137.067 201.851 136.111 201.182 135.06C199.94 132.862 198.602 130.473 197.264 128.083C191.721 118.048 187.611 109.829 188.089 109.638C188.567 109.447 193.25 117.379 198.793 127.319C200.131 129.804 201.374 132.097 202.616 134.391C203.189 135.442 203.954 136.589 203.667 138.118C203.476 138.883 202.903 139.552 202.234 139.743C201.66 140.03 201.087 140.126 200.609 140.221C196.786 140.89 194.397 141.272 194.301 141.081Z" fill="#354147"/>
<path d="M176.047 101.622C175.664 102.673 171.841 102.195 167.349 102.673C162.857 103.151 159.13 104.489 158.557 103.533C158.27 103.055 158.939 102.099 160.373 101.048C161.806 99.9968 164.195 99.0411 166.872 98.7544C169.548 98.4677 172.032 98.8499 173.753 99.6145C175.378 100.284 176.142 101.048 176.047 101.622Z" fill="#354147"/>
<path d="M213.32 101.234C212.651 102.189 209.402 101.807 205.674 102.381C201.947 102.763 198.889 104.005 198.028 103.241C197.646 102.858 198.028 101.903 199.271 100.851C200.513 99.8001 202.711 98.8444 205.196 98.4621C207.681 98.0798 210.071 98.5577 211.504 99.2267C213.033 99.9913 213.607 100.756 213.32 101.234Z" fill="#354147"/>
<path d="M137.912 133.523C137.435 133.427 120.136 130.847 123.099 147.763C126.061 164.679 142.404 158.18 142.309 157.703C142.309 157.225 137.912 133.523 137.912 133.523Z" fill="#FFBF9D"/>
<path d="M136.096 152.262C136 152.262 135.809 152.548 135.331 152.835C134.854 153.122 134.089 153.409 133.133 153.217C131.222 152.835 129.215 150.255 128.641 147.292C128.355 145.763 128.355 144.234 128.737 142.896C129.024 141.557 129.693 140.602 130.553 140.219C131.413 139.837 132.178 140.315 132.464 140.697C132.751 141.08 132.751 141.462 132.847 141.462C132.942 141.462 133.133 141.08 132.942 140.411C132.847 140.124 132.56 139.742 132.082 139.455C131.604 139.168 131.031 139.168 130.362 139.359C129.024 139.646 128.068 141.08 127.781 142.513C127.303 143.947 127.208 145.667 127.59 147.387C128.259 150.733 130.553 153.695 133.133 153.982C134.376 154.078 135.331 153.6 135.714 153.026C136.096 152.644 136.096 152.262 136.096 152.262Z" fill="#FF9A6C"/>
<path d="M201.373 69.8837C203.858 67.8766 194.014 60.5175 186.75 58.7016C175.76 55.93 159.799 56.0255 150.91 60.3263C140.206 65.5829 131.891 72.942 128.164 84.2196C124.437 95.4973 124.437 107.826 126.922 119.486C127.686 123.022 128.738 126.654 131.222 129.33C134.281 132.58 138.008 133.822 139.92 139.365C140.589 141.181 141.066 143.093 142.596 144.24C146.323 146.916 149.477 143.188 150.624 139.748C153.109 132.484 152.057 124.456 151.006 116.906C150.241 111.458 149.477 105.915 146.992 101.041C145.654 98.3645 143.838 95.9751 142.596 93.2035C141.353 90.4319 140.875 87.1824 142.213 84.6019C142.404 84.2196 142.787 83.6462 143.36 82.9772C147.374 77.9118 153.778 75.4269 160.181 76.4782C170.312 78.1029 187.419 80.11 191.051 76.0959C196.308 70.3615 197.168 67.0165 197.168 67.0165L201.373 69.8837Z" fill="#354147"/>
<path d="M182.832 145.562C183.405 145.467 184.17 149.29 187.993 151.392C191.816 153.495 195.83 152.348 196.021 152.826C196.117 153.017 195.256 153.782 193.536 154.164C191.816 154.546 189.235 154.451 186.942 153.208C184.648 151.87 183.31 149.863 182.927 148.238C182.354 146.614 182.545 145.562 182.832 145.562Z" fill="#354147"/>
<path d="M126.061 134.947C125.679 134.756 125.201 134.756 124.819 134.565C101.403 119.273 113.923 98.0557 113.159 92.4168C112.108 84.5798 104.653 96.1442 101.499 86.109C97.3893 72.8243 110.865 64.3183 127.59 55.2389C134.663 51.4159 152.822 47.3063 169.547 47.7841C184.456 48.1664 195.925 56.5769 202.711 63.4582C202.711 63.4582 206.343 64.5095 207.394 65.8475C210.739 70.0527 209.975 72.1553 209.975 72.1553C209.975 72.1553 175.281 61.4511 152.631 88.0205C129.98 114.59 138.295 132.366 131.318 133.8L126.061 134.947Z" fill="#FF4917"/>
<path d="M135.619 65.6531C135.619 65.6531 135.141 65.9398 134.281 66.5132C133.898 66.8 133.325 67.0867 132.751 67.469C132.178 67.8513 131.509 68.3291 130.744 68.807C129.311 69.8583 127.686 71.1963 125.966 72.8211C124.245 74.4458 122.525 76.3573 120.9 78.4599C119.276 80.5625 117.938 82.7607 116.791 84.8633C115.739 86.9659 114.784 88.8774 114.21 90.5021C113.828 91.2667 113.637 92.1269 113.446 92.7003C113.255 93.3693 113.063 93.9428 112.872 94.4206C112.586 95.3764 112.394 95.8542 112.394 95.8542C112.394 95.8542 112.49 95.2808 112.681 94.325C112.777 93.8472 112.872 93.2737 113.159 92.6047C113.35 91.9357 113.541 91.1711 113.924 90.311C114.497 88.5907 115.357 86.6792 116.408 84.5766C117.555 82.474 118.893 80.2758 120.518 78.0776C122.143 75.8794 123.959 74.0635 125.679 72.4388C127.399 70.814 129.12 69.476 130.553 68.5203C131.318 67.9468 131.987 67.5645 132.56 67.1823C133.134 66.8 133.707 66.5132 134.089 66.3221C135.045 65.8442 135.619 65.5575 135.619 65.6531Z" fill="white"/>
<path d="M203.667 63.5576C203.667 63.5576 203.571 63.5576 203.38 63.462C203.189 63.3665 202.807 63.3665 202.424 63.2709C201.66 63.0797 200.417 62.8886 198.888 62.5063C197.359 62.2196 195.447 61.9329 193.249 61.7417C191.051 61.5506 188.566 61.3594 185.794 61.455C180.251 61.5506 173.657 62.6019 166.775 65.1824C163.335 66.4248 159.894 68.1451 156.454 70.1522C153.013 72.2548 149.763 74.7397 146.609 77.6069C143.551 80.5696 140.78 83.628 138.581 86.9731C136.288 90.3181 134.472 93.6632 133.038 97.1038C130.075 103.89 128.642 110.388 127.59 115.836C126.635 121.284 126.252 125.776 125.966 128.93C125.87 130.459 125.775 131.701 125.679 132.466C125.679 132.848 125.583 133.135 125.583 133.422C125.583 133.613 125.583 133.708 125.488 133.708C125.488 133.708 125.488 133.613 125.488 133.422C125.488 133.23 125.488 132.848 125.488 132.466C125.488 131.606 125.583 130.459 125.679 128.834C125.87 125.776 126.252 121.188 127.208 115.741C128.164 110.293 129.597 103.698 132.56 96.9127C133.994 93.472 135.81 90.0314 138.103 86.6863C140.397 83.3413 143.073 80.1874 146.227 77.2246C149.381 74.3574 152.726 71.7769 156.167 69.6743C159.607 67.5717 163.144 65.9469 166.584 64.7045C173.561 62.124 180.251 61.1683 185.794 61.0727C188.566 60.9771 191.147 61.1683 193.345 61.455C195.543 61.6462 197.454 62.0284 198.984 62.3152C200.513 62.6019 201.66 62.8886 202.52 63.0797C202.902 63.1753 203.189 63.2709 203.38 63.2709C203.571 63.5576 203.667 63.5576 203.667 63.5576Z" fill="white"/>
<path d="M135.332 124.622C135.427 124.718 133.325 125.387 130.649 124.909C128.068 124.431 126.348 122.998 126.443 122.902C126.539 122.807 128.259 123.953 130.744 124.431C133.325 124.909 135.332 124.431 135.332 124.622Z" fill="white"/>
<path d="M141.544 108.001C141.544 108.097 140.875 108.097 139.728 107.906C138.581 107.714 137.148 107.332 135.619 106.472C134.09 105.612 132.943 104.656 132.178 103.796C131.414 102.936 131.127 102.362 131.127 102.362C131.222 102.267 132.943 104.465 135.905 106.09C138.773 107.714 141.544 107.906 141.544 108.001Z" fill="white"/>
<path d="M153.395 86.7814C153.3 86.8769 151.866 84.6787 149.381 82.6717C146.896 80.6647 144.507 79.7089 144.602 79.6134C144.602 79.5178 147.183 80.2824 149.763 82.2894C152.248 84.392 153.491 86.7814 153.395 86.7814Z" fill="white"/>
<path d="M167.349 76.3569C167.253 76.4524 166.489 74.1587 164.864 71.7693C163.239 69.38 161.423 67.8509 161.519 67.7553C161.614 67.6597 163.621 68.9977 165.246 71.4826C166.966 73.872 167.444 76.2613 167.349 76.3569Z" fill="white"/>
<path d="M190 70.6337C189.809 70.6337 190.191 68.1488 188.853 65.5683C187.61 62.8923 185.508 61.6498 185.603 61.5542C185.603 61.4587 186.177 61.7454 186.941 62.3188C187.706 62.8923 188.662 63.9436 189.235 65.3772C189.904 66.7152 190.095 68.0532 190.095 69.1045C190.286 70.0603 190.095 70.6337 190 70.6337Z" fill="white"/>
<path d="M204.527 71.3979C204.336 71.3979 204.718 69.582 204.24 67.3838C203.858 65.1856 202.807 63.6565 202.998 63.5609C203.093 63.4653 204.336 64.9945 204.814 67.2882C205.196 69.582 204.623 71.3979 204.527 71.3979Z" fill="#263238"/>
<path d="M182.832 223.735C182.736 223.735 182.832 222.971 182.736 221.633C182.641 220.295 182.545 218.288 181.971 215.994C181.398 213.604 180.538 210.928 179.391 207.966C178.149 205.003 176.619 201.849 175.09 198.504C173.657 195.254 172.414 192.1 171.554 189.138L171.458 188.947L171.65 188.851C173.848 187.704 175.664 186.175 176.906 184.55L177.002 184.455L177.097 184.55C178.818 185.506 180.538 185.793 181.971 185.793H182.067V185.888C182.832 187.226 183.501 188.086 184.074 188.66C184.648 189.233 184.934 189.52 184.934 189.616C184.934 189.616 184.839 189.52 184.648 189.424C184.456 189.329 184.265 189.042 183.979 188.755C183.405 188.182 182.641 187.226 181.876 185.984L181.971 186.079C180.538 186.079 178.722 185.888 176.906 184.932L177.097 184.837C175.855 186.462 174.039 188.086 171.745 189.329L171.841 189.042C172.701 192.005 173.943 195.063 175.377 198.313C176.906 201.658 178.435 204.907 179.582 207.87C180.825 210.833 181.589 213.604 182.163 215.994C182.641 218.383 182.736 220.39 182.736 221.728C182.736 222.397 182.736 222.971 182.641 223.257C182.927 223.64 182.832 223.831 182.832 223.735Z" fill="#FF9A6C"/>
<path d="M106.755 226.221L145.749 202.805C145.749 202.805 175.95 222.685 195.638 215.421C208.923 210.451 208.923 192.483 208.923 192.483L247.152 192.579L281.081 296.276L289.778 420.426H120.231L113.35 274.772L106.755 226.221Z" fill="#FF4917"/>
<g opacity="0.3">
<g opacity="0.3">
<g opacity="0.3">
<path opacity="0.3" d="M118.607 390.039C130.458 400.074 145.94 404.948 161.328 406.573C176.715 408.198 192.293 406.669 207.776 405.14C234.441 402.559 261.68 403.228 288.345 400.648C287.58 393.958 286.911 377.328 286.146 370.638L118.702 382.776L118.607 390.039Z" fill="black"/>
</g>
</g>
</g>
<path d="M104.749 339.86C104.749 339.86 101.117 338.14 99.3009 339.956C97.485 341.772 96.147 344.543 96.147 344.543C96.147 344.543 90.2214 342.727 87.8321 347.697C87.8321 347.697 83.4357 350.469 86.0162 355.916C86.0162 355.916 81.3331 362.511 85.0605 368.15C85.9206 369.488 86.5896 369.966 86.5896 369.966C86.5896 369.966 88.4055 376.847 90.6993 377.994C93.0886 379.141 101.499 381.721 101.786 377.898C102.072 374.075 100.543 374.362 100.543 374.362C100.543 374.362 110.483 379.81 114.975 383.728C119.467 387.647 131.031 393.572 138.104 393.572C145.272 393.572 142.213 378.185 142.213 378.185L104.749 339.86Z" fill="#FFBF9D"/>
<path d="M264.547 266.938C264.069 269.328 263.687 281.943 263.687 281.943L271.906 334.222C255.563 337.567 175.377 353.91 175.377 353.91L167.922 393.382C167.922 393.382 294.079 391.088 308.128 377.995C322.177 364.901 315.009 311.858 315.009 306.697C315.009 301.536 311.569 267.416 311.569 267.416L264.547 266.938Z" fill="#FFBF9D"/>
<path d="M89.1701 356.785C89.1701 356.785 89.648 356.976 90.4125 357.263C91.2727 357.645 92.4196 358.219 93.8532 358.792C95.2868 359.461 97.0071 360.226 98.9185 361.182C99.3964 361.373 99.8743 361.659 100.352 361.851C100.639 361.946 100.83 362.042 101.117 362.233C101.403 362.328 101.69 362.52 101.881 362.902C101.977 363.093 101.977 363.284 101.881 363.475C101.786 363.666 101.69 363.762 101.499 363.858C101.212 364.049 100.83 364.144 100.543 364.144C99.9698 364.24 99.3008 364.24 98.7274 364.24C96.2425 364.049 94.0443 363.284 92.0373 362.997C90.986 362.806 90.0302 362.711 89.1701 362.997C88.3099 363.189 87.6409 363.858 87.2586 364.431C86.494 365.769 86.494 367.107 86.494 367.967C86.494 368.827 86.5896 369.305 86.494 369.305C86.494 369.305 86.3985 368.827 86.3029 367.967C86.2073 367.107 86.1117 365.673 86.9719 364.24C87.3542 363.475 88.1188 362.806 89.0745 362.52C90.0302 362.233 91.0815 362.328 92.1328 362.52C94.2355 362.806 96.4336 363.571 98.823 363.762C99.3964 363.762 99.9698 363.762 100.543 363.666C101.117 363.666 101.595 363.284 101.499 362.997C101.308 362.711 100.734 362.52 100.257 362.233C99.7787 362.042 99.3008 361.755 98.823 361.564C97.0071 360.608 95.2868 359.844 93.8532 359.079C92.5151 358.41 91.3683 357.836 90.5081 357.359C89.5524 356.976 89.1701 356.785 89.1701 356.785Z" fill="#FF9A6C"/>
<path d="M104.939 353.815C104.844 353.91 103.984 353.337 102.55 352.477C101.117 351.617 99.0139 350.661 96.6246 349.801C94.2352 348.94 91.9415 348.463 90.3167 348.176C88.692 347.889 87.6407 347.794 87.6407 347.698C87.6407 347.602 88.692 347.602 90.4123 347.794C92.1326 347.985 94.4264 348.463 96.8157 349.323C99.3006 350.183 101.308 351.234 102.741 352.19C104.175 353.146 105.035 353.815 104.939 353.815Z" fill="#FF9A6C"/>
<path d="M103.984 347.033C103.888 347.129 102.168 346.364 100.065 345.599C99.0141 345.217 98.0584 344.93 97.2938 344.739C96.5292 344.548 96.1469 344.548 96.1469 344.453C96.1469 344.357 96.6248 344.261 97.3893 344.357C98.1539 344.453 99.2052 344.644 100.257 345.122C102.455 345.982 104.079 346.937 103.984 347.033Z" fill="#FF9A6C"/>
<path d="M101.403 374.748C101.403 374.844 100.734 374.844 99.6829 374.653C98.6316 374.461 97.198 374.079 95.6688 373.506C94.1396 372.932 92.8972 372.263 91.9415 371.69C90.9857 371.212 90.4123 370.83 90.5079 370.734C90.6034 370.639 92.8972 371.785 95.86 372.932C97.3891 373.506 98.7271 373.984 99.7785 374.175C100.734 374.557 101.403 374.653 101.403 374.748Z" fill="#FF9A6C"/>
<path d="M94.8089 372.744C94.9045 372.744 94.7134 373.7 93.8532 374.56C92.993 375.324 92.0373 375.516 92.0373 375.42C91.9417 375.324 92.8019 374.942 93.5665 374.178C94.3311 373.413 94.7134 372.648 94.8089 372.744Z" fill="#FF9A6C"/>
<path d="M246.197 192.578C246.197 192.578 276.016 191.336 291.212 212.267C305.93 232.528 317.495 274.676 317.495 274.676L260.628 282.226L252.218 227.367L246.197 192.578Z" fill="#FF4917"/>
<path d="M294.079 358.115C293.983 358.115 293.601 356.299 292.454 353.432C292.167 352.763 291.785 351.998 291.403 351.138C291.02 350.278 290.543 349.514 289.969 348.653C288.918 346.933 287.58 345.117 285.955 343.397C284.33 341.677 282.61 340.243 280.985 339.096C280.125 338.523 279.361 337.949 278.596 337.567C277.831 337.089 277.067 336.707 276.398 336.324C273.626 334.986 271.81 334.413 271.81 334.317C271.81 334.317 272.288 334.413 273.148 334.7C273.531 334.795 274.104 334.986 274.677 335.178C275.251 335.369 275.92 335.655 276.589 336.038C277.258 336.324 278.023 336.707 278.883 337.185C279.743 337.662 280.507 338.14 281.368 338.714C283.088 339.861 284.808 341.39 286.433 343.11C288.058 344.83 289.396 346.646 290.447 348.462C290.925 349.322 291.498 350.183 291.881 351.043C292.263 351.903 292.645 352.667 292.932 353.336C293.219 354.101 293.41 354.77 293.601 355.343C293.792 355.917 293.888 356.395 293.983 356.873C294.079 357.637 294.174 358.115 294.079 358.115Z" fill="#FF9A6C"/>
<path d="M252.122 227.466C252.122 227.466 252.218 227.657 252.409 228.23C252.6 228.708 252.887 229.473 253.269 230.333C253.938 232.149 254.894 234.825 255.85 238.266C257.761 245.051 259.768 254.513 261.488 265.122C263.209 275.73 264.451 285.288 265.311 292.264C265.694 295.705 266.076 298.477 266.267 300.484C266.363 301.439 266.458 302.204 266.554 302.778C266.554 303.255 266.649 303.542 266.649 303.542C266.649 303.542 266.554 303.255 266.458 302.778C266.363 302.204 266.267 301.439 266.076 300.579C265.789 298.572 265.407 295.801 264.929 292.36C263.973 285.383 262.731 275.826 261.011 265.217C259.29 254.704 257.379 245.147 255.563 238.361C254.607 235.016 253.747 232.244 253.174 230.429C252.887 229.568 252.6 228.804 252.409 228.326C252.218 227.753 252.122 227.466 252.122 227.466Z" fill="#263238"/>
<path d="M150.91 236.361L145.08 297.91L136.192 282.236L90.4123 287.683C90.8902 290.073 107.233 347.321 114.21 363.186C121.282 379.051 140.875 407.341 162.857 397.21C184.839 387.08 183.501 307.085 183.501 297.91C183.501 288.83 179.104 234.354 179.104 234.354" fill="#FFBF9D"/>
<path d="M179.104 234.354C179.104 234.354 179.2 234.737 179.2 235.501C179.295 236.266 179.391 237.413 179.486 238.846C179.678 241.809 180.06 246.014 180.538 251.558C180.92 257.101 181.493 263.887 182.067 271.724C182.354 275.642 182.64 279.847 182.927 284.339C183.214 288.831 183.596 293.514 183.596 298.484C183.692 308.424 183.596 319.319 182.927 330.979C182.258 342.639 181.111 355.063 178.435 367.966C177.002 374.369 175.281 380.964 172.223 387.176C170.694 390.234 168.687 393.293 166.011 395.586C165.342 396.16 164.577 396.638 163.812 397.116C163.048 397.594 162.188 397.88 161.328 398.167C160.467 398.549 159.607 398.74 158.747 399.027C157.887 399.218 157.027 399.409 156.071 399.505C154.255 399.792 152.439 399.696 150.623 399.505C148.807 399.218 146.992 398.836 145.271 398.167C141.831 396.925 138.581 395.013 135.714 392.719C129.884 388.132 125.01 382.302 120.804 375.898C118.511 372.362 116.408 368.73 114.688 365.003C112.967 361.276 111.534 357.357 110.196 353.534C107.52 345.888 105.035 338.243 102.741 330.788C100.447 323.333 98.2492 315.974 96.1466 308.806C94.044 301.638 92.037 294.661 90.2211 287.78L90.1255 287.589H90.4122C106.946 285.677 122.334 283.766 136.192 282.141H136.287L136.383 282.237C139.537 287.78 142.5 293.036 145.271 297.911L144.985 298.006C146.8 278.892 148.33 263.504 149.285 252.896C149.763 247.639 150.241 243.529 150.432 240.662C150.528 239.229 150.719 238.273 150.719 237.508C150.814 236.744 150.814 236.457 150.814 236.457C150.814 236.457 150.814 236.839 150.719 237.508C150.623 238.273 150.528 239.324 150.432 240.662C150.145 243.434 149.859 247.544 149.285 252.896C148.33 263.504 146.896 278.892 145.08 298.006L144.985 298.58L144.698 298.102C141.926 293.228 138.963 287.971 135.81 282.428L136.001 282.523C122.143 284.148 106.755 286.06 90.2211 287.971L90.4122 287.684C92.2281 294.47 94.3307 301.542 96.3378 308.71C98.4404 315.878 100.639 323.238 103.028 330.692C105.322 338.147 107.807 345.793 110.483 353.439C111.821 357.262 113.254 361.085 114.975 364.812C116.79 368.539 118.797 372.171 121.091 375.612C125.201 381.92 130.075 387.749 135.81 392.241C138.677 394.535 141.831 396.351 145.271 397.594C146.992 398.167 148.712 398.645 150.432 398.836C152.248 399.027 153.968 399.123 155.784 398.836C156.644 398.74 157.505 398.549 158.365 398.358C159.225 398.071 160.085 397.88 160.85 397.594C161.614 397.211 162.474 396.925 163.239 396.542C164.004 396.16 164.673 395.586 165.342 395.109C168.018 392.91 169.929 389.948 171.458 386.889C174.517 380.773 176.237 374.178 177.671 367.775C180.347 354.968 181.494 342.448 182.163 330.883C182.832 319.224 183.023 308.328 182.927 298.389C182.832 293.419 182.545 288.736 182.258 284.244C181.971 279.752 181.685 275.547 181.398 271.628C180.824 263.791 180.347 257.005 179.964 251.462C179.582 245.919 179.2 241.618 179.009 238.655C178.913 237.222 178.817 236.075 178.817 235.31C179.104 234.737 179.104 234.354 179.104 234.354Z" fill="#FF9A6C"/>
<path d="M144.985 296.281C144.985 296.281 144.985 296.568 144.889 297.046C144.794 297.524 144.793 298.193 144.602 299.148C144.316 300.964 143.742 303.545 142.691 306.603C141.64 309.661 140.015 313.293 138.008 317.021C136.001 320.748 133.611 324.858 131.031 329.158C128.546 333.459 126.252 337.569 124.532 341.487C122.812 345.406 121.569 349.133 120.996 352.287C120.327 355.441 120.136 358.117 120.136 359.933C120.136 360.889 120.231 361.558 120.231 362.036C120.231 362.513 120.231 362.8 120.231 362.8C120.231 362.8 120.136 362.513 120.136 362.036C120.136 361.558 120.04 360.889 120.04 359.933C119.944 358.117 120.136 355.441 120.709 352.287C121.282 349.038 122.525 345.31 124.15 341.392C125.87 337.473 128.068 333.268 130.649 328.967C133.134 324.667 135.618 320.652 137.626 316.829C139.633 313.007 141.257 309.566 142.309 306.508C143.36 303.449 144.029 300.869 144.316 299.148C144.507 298.288 144.602 297.524 144.698 297.141C144.889 296.568 144.985 296.281 144.985 296.281Z" fill="#FF9A6C"/>
<path d="M106.755 226.221C105.513 226.507 84.0088 236.351 84.2 269.515C84.2955 294.269 90.9857 317.875 90.9857 317.875L142.786 293.504L106.755 226.221Z" fill="#FF4917"/>
<path d="M179.104 234.349C179.104 234.349 185.221 228.041 185.221 219.822C185.221 211.603 182.067 203.384 182.067 203.384C182.067 203.384 181.016 194.686 180.347 191.341L183.118 186.085C183.118 186.085 190.669 189.43 192.007 184.46L187.515 178.343C186.463 177.005 185.125 175.954 183.501 175.572L176.81 173.66C174.421 172.991 171.936 173.374 169.834 174.807L161.997 180.064L166.871 169.933L175.09 168.213C175.09 168.213 186.75 173.278 189.044 166.588L179.2 160.853L160.563 161.14C160.563 161.14 156.262 166.397 155.307 167.926C154.351 169.551 151.292 174.998 151.292 174.998L146.609 162.956C146.609 162.956 146.705 155.215 146.609 148.811C146.418 141.739 142.213 139.349 138.008 141.739C137.625 141.93 135.714 160.949 136.67 165.441C137.625 169.837 145.749 202.81 145.749 202.81C145.749 202.81 148.616 210.265 149.668 212.463C152.057 217.242 151.866 221.256 151.961 222.976C152.153 226.512 150.815 237.312 150.815 237.312" fill="#FFBF9D"/>
<path d="M150.815 237.408C150.815 237.408 150.815 237.216 150.91 236.834C151.006 236.452 151.006 235.783 151.101 235.018C151.292 233.394 151.484 231.1 151.77 227.946C151.866 226.417 151.961 224.696 151.961 222.785C151.866 220.873 151.77 218.866 151.197 216.764C150.91 215.712 150.528 214.661 150.05 213.514C149.572 212.463 148.999 211.316 148.521 210.169C147.565 207.875 146.609 205.391 145.558 202.715C144.22 197.267 142.786 191.246 141.162 184.747C140.397 181.497 139.537 178.152 138.677 174.616C138.294 172.896 137.817 171.08 137.339 169.264C137.148 168.404 136.861 167.448 136.67 166.588C136.574 166.11 136.479 165.728 136.383 165.25C136.287 164.772 136.287 164.294 136.192 163.816C136.001 159.993 136.287 156.075 136.574 152.061C136.765 150.054 136.956 148.047 137.148 145.944C137.243 144.893 137.339 143.937 137.53 142.886C137.53 142.599 137.625 142.408 137.625 142.121C137.625 142.026 137.625 142.026 137.721 141.93V141.834V141.739L137.817 141.643C137.912 141.548 137.912 141.548 137.912 141.548L138.008 141.452L138.199 141.357C138.677 141.07 139.155 140.879 139.728 140.783C140.779 140.496 141.926 140.496 142.978 140.974C144.029 141.357 144.889 142.217 145.462 143.172C146.609 145.084 146.896 147.378 146.896 149.576C146.896 153.972 146.896 158.464 146.992 162.956V162.86C148.521 166.683 150.05 170.793 151.675 174.903H151.197C152.535 172.609 153.873 170.22 155.307 167.83C156.931 165.441 158.747 163.338 160.467 161.045L160.563 160.949H160.659C161.71 160.949 162.952 160.949 164.099 160.853C169.26 160.758 174.23 160.662 179.295 160.567H179.391H179.487C182.832 162.478 186.081 164.39 189.331 166.301L189.522 166.397L189.235 166.779C188.853 168.117 187.801 169.264 186.559 169.742C185.317 170.315 183.883 170.411 182.64 170.315C179.964 170.124 177.48 169.455 175.09 168.499H175.186C172.414 169.073 169.643 169.646 166.966 170.22L167.158 170.124C165.437 173.565 163.813 176.91 162.283 180.255L161.901 179.968C164.673 178.152 167.349 176.336 169.929 174.616C171.267 173.756 172.892 173.278 174.517 173.278C175.281 173.278 176.141 173.374 176.81 173.565C177.575 173.756 178.244 173.947 179.009 174.138C180.442 174.52 181.876 174.998 183.309 175.381C184.743 175.763 186.081 176.527 187.132 177.674C188.948 179.968 190.573 182.262 192.198 184.46L192.293 184.556V184.651C192.007 185.511 191.529 186.371 190.669 186.849C189.904 187.327 188.948 187.518 188.088 187.423C186.368 187.423 184.648 186.945 183.118 186.276L183.309 186.18C182.354 188.092 181.398 189.717 180.538 191.437V191.341C181.302 195.642 181.685 199.656 182.163 203.384C183.883 208.353 184.839 212.941 185.221 216.955C185.412 218.962 185.412 220.873 185.125 222.594C184.839 224.314 184.361 225.843 183.787 227.086C182.736 229.666 181.398 231.482 180.538 232.629C180.06 233.202 179.773 233.585 179.487 233.871C179.2 234.158 179.104 234.254 179.104 234.254C179.104 234.254 179.2 234.158 179.487 233.776C179.678 233.489 180.06 233.011 180.538 232.438C181.398 231.291 182.64 229.475 183.692 226.895C184.17 225.557 184.647 224.123 184.934 222.403C185.221 220.682 185.221 218.771 185.03 216.764C184.648 212.75 183.692 208.162 181.971 203.288C181.494 199.561 181.016 195.547 180.251 191.341V191.246V191.15C181.111 189.525 182.067 187.805 183.023 185.894L183.118 185.798L183.309 185.894C184.839 186.467 186.463 186.945 188.088 186.945C188.948 186.945 189.808 186.849 190.477 186.371C191.242 185.989 191.624 185.225 191.911 184.364V184.556C190.286 182.357 188.662 180.064 186.941 177.77C185.986 176.719 184.743 175.954 183.309 175.667C181.876 175.285 180.442 174.903 179.009 174.425C177.575 174.043 176.046 173.469 174.612 173.565C173.083 173.565 171.554 174.043 170.312 174.807C167.635 176.623 164.959 178.343 162.283 180.159L161.614 180.637L161.997 179.873C163.621 176.527 165.246 173.182 166.871 169.742L166.966 169.646H167.062C169.738 169.073 172.51 168.499 175.281 167.926H175.377H175.472C177.766 168.882 180.347 169.551 182.832 169.742C184.074 169.837 185.412 169.646 186.559 169.168C187.706 168.69 188.566 167.639 189.044 166.492L189.139 166.779C185.89 164.868 182.64 163.052 179.295 161.045H179.391C174.421 161.14 169.356 161.236 164.195 161.331C163.048 161.331 161.805 161.331 160.754 161.427L160.945 161.331C159.129 163.53 157.314 165.728 155.784 168.021C154.446 170.411 153.013 172.8 151.675 175.094L151.388 175.572L151.197 175.094C149.572 170.889 148.043 166.875 146.514 163.052V162.956C146.514 158.464 146.514 153.972 146.514 149.576C146.514 147.378 146.227 145.179 145.176 143.459C144.602 142.599 143.838 141.834 142.978 141.452C142.022 141.07 140.971 141.07 140.015 141.261C139.537 141.357 139.059 141.548 138.581 141.834L138.39 141.93H138.294C138.39 142.121 138.103 141.739 138.199 141.834L138.294 141.93V142.026C138.294 142.121 138.294 142.121 138.294 142.217C138.199 142.503 138.199 142.695 138.199 142.981C138.008 144.033 137.912 144.988 137.817 146.04C137.625 148.047 137.434 150.149 137.243 152.156C136.956 156.17 136.67 160.089 136.861 163.816C136.861 164.294 136.956 164.772 137.052 165.154C137.148 165.632 137.243 166.11 137.339 166.492C137.53 167.448 137.817 168.308 138.008 169.168C138.486 170.984 138.868 172.705 139.346 174.52C140.206 177.961 140.971 181.402 141.831 184.651C143.36 191.15 144.889 197.171 146.227 202.619C147.183 205.199 148.234 207.684 149.19 210.074C149.668 211.221 150.241 212.367 150.719 213.419C151.197 214.47 151.579 215.617 151.866 216.668C152.439 218.771 152.535 220.873 152.535 222.785C152.63 224.696 152.439 226.417 152.344 227.946C152.057 231.004 151.77 233.394 151.579 234.923C151.484 235.687 151.388 236.356 151.388 236.739C150.91 237.216 150.815 237.408 150.815 237.408Z" fill="#FF9A6C"/>
<path d="M181.398 175.859C181.398 175.955 180.538 175.955 179.295 176.624C178.148 177.293 176.715 178.631 174.995 179.969C173.37 181.307 171.841 182.549 170.789 183.409C169.642 184.27 168.973 184.747 168.973 184.747C168.973 184.747 169.547 184.078 170.598 183.218C171.649 182.263 173.083 181.02 174.803 179.682C176.428 178.344 177.862 177.006 179.2 176.433C180.442 175.668 181.398 175.859 181.398 175.859Z" fill="#FF9A6C"/>
<path d="M127.973 250.887C128.068 250.887 131.604 260.348 135.714 272.2C139.824 284.051 143.073 293.608 142.978 293.704C142.882 293.704 139.346 284.242 135.236 272.391C131.031 260.54 127.877 250.887 127.973 250.887Z" fill="#263238"/>
</svg>
